<svg xmlns="http://www.w3.org/2000/svg" xmlns:xlink="http://www.w3.org/1999/xlink" width="1200" zoomAndPan="magnify" viewBox="0 0 900 149.999998" height="200" preserveAspectRatio="xMidYMid meet" version="1.0"><defs><g/></defs><g fill="#597cff" fill-opacity="0.302"><g transform="translate(10.549998, 108.274457)"><g><path d="M 47.140625 20.5 C 42.441406 20.5 37.847656 19.457031 33.359375 17.375 C 28.878906 15.300781 24.710938 12.5 20.859375 8.96875 C 17.003906 5.445312 13.601562 1.472656 10.65625 -2.953125 C 7.707031 -7.378906 5.410156 -11.992188 3.765625 -16.796875 C 2.128906 -21.609375 1.3125 -26.3125 1.3125 -30.90625 C 1.3125 -34.894531 1.859375 -38.773438 2.953125 -42.546875 C 4.046875 -46.316406 5.671875 -49.734375 7.828125 -52.796875 C 9.984375 -55.859375 12.703125 -58.289062 15.984375 -60.09375 C 19.265625 -61.894531 23.09375 -62.796875 27.46875 -62.796875 C 31.84375 -62.796875 35.664062 -61.894531 38.9375 -60.09375 C 42.21875 -58.289062 44.953125 -55.867188 47.140625 -52.828125 C 49.328125 -49.796875 50.96875 -46.378906 52.0625 -42.578125 C 53.15625 -38.785156 53.703125 -34.894531 53.703125 -30.90625 C 53.703125 -26.914062 53.15625 -23.035156 52.0625 -19.265625 C 50.96875 -15.492188 49.328125 -12.078125 47.140625 -9.015625 C 44.953125 -5.953125 42.21875 -3.519531 38.9375 -1.71875 C 35.664062 0.0820312 31.84375 0.984375 27.46875 0.984375 C 26.863281 0.984375 26 0.925781 24.875 0.8125 C 23.757812 0.707031 22.65625 0.546875 21.5625 0.328125 C 20.582031 1.367188 20.09375 2.296875 20.09375 3.109375 C 20.09375 3.929688 20.582031 4.535156 21.5625 4.921875 C 22.539062 5.304688 23.828125 5.5 25.421875 5.5 C 27.378906 5.5 29.628906 5.238281 32.171875 4.71875 C 34.710938 4.195312 37.304688 3.441406 39.953125 2.453125 C 42.609375 1.472656 45.003906 0.328125 47.140625 -0.984375 Z M 42.796875 -47.3125 C 41.046875 -47.3125 38.925781 -46.875 36.4375 -46 C 33.957031 -45.125 31.347656 -43.929688 28.609375 -42.421875 C 25.878906 -40.921875 23.203125 -39.210938 20.578125 -37.296875 C 17.953125 -35.390625 15.570312 -33.382812 13.4375 -31.28125 C 11.3125 -29.175781 9.601562 -27.082031 8.3125 -25 C 7.03125 -22.925781 6.390625 -20.988281 6.390625 -19.1875 C 6.390625 -17.488281 6.960938 -16.285156 8.109375 -15.578125 C 9.265625 -14.867188 10.609375 -14.515625 12.140625 -14.515625 C 13.941406 -14.515625 16.070312 -14.953125 18.53125 -15.828125 C 20.988281 -16.703125 23.582031 -17.890625 26.3125 -19.390625 C 29.050781 -20.890625 31.726562 -22.59375 34.34375 -24.5 C 36.96875 -26.414062 39.359375 -28.425781 41.515625 -30.53125 C 43.679688 -32.644531 45.40625 -34.753906 46.6875 -36.859375 C 47.96875 -38.960938 48.609375 -40.914062 48.609375 -42.71875 C 48.609375 -44.40625 48.019531 -45.59375 46.84375 -46.28125 C 45.675781 -46.96875 44.328125 -47.3125 42.796875 -47.3125 Z M 42.796875 -47.3125 "/></g></g></g><g fill="#597cff" fill-opacity="0.302"><g transform="translate(64.904223, 108.274457)"><g><path d="M 54.4375 -61.8125 C 52.738281 -57.0625 51.382812 -51.953125 50.375 -46.484375 C 49.363281 -41.015625 48.859375 -35.441406 48.859375 -29.765625 C 48.859375 -24.679688 49.304688 -19.609375 50.203125 -14.546875 C 51.109375 -9.492188 52.519531 -4.644531 54.4375 0 L 34.265625 0 L 41.40625 -27.296875 L 39.59375 -27.296875 C 38.78125 -23.472656 37.523438 -19.851562 35.828125 -16.4375 C 34.128906 -13.019531 32.09375 -10.015625 29.71875 -7.421875 C 27.34375 -4.828125 24.632812 -2.773438 21.59375 -1.265625 C 18.5625 0.234375 15.269531 0.984375 11.71875 0.984375 C 8.9375 0.984375 7.066406 0.4375 6.109375 -0.65625 C 5.148438 -1.75 4.671875 -3.390625 4.671875 -5.578125 C 4.671875 -7.378906 4.875 -9.535156 5.28125 -12.046875 C 5.695312 -14.566406 6.09375 -17.453125 6.46875 -20.703125 C 6.851562 -23.953125 7.046875 -27.519531 7.046875 -31.40625 C 7.046875 -35.71875 6.648438 -40.398438 5.859375 -45.453125 C 5.066406 -50.515625 3.578125 -55.96875 1.390625 -61.8125 L 22.875 -61.8125 C 23.800781 -59.957031 24.484375 -58.128906 24.921875 -56.328125 C 25.359375 -54.523438 25.578125 -52.75 25.578125 -51 C 25.578125 -47.820312 25.039062 -44.796875 23.96875 -41.921875 C 22.90625 -39.054688 21.582031 -36.351562 20 -33.8125 C 18.414062 -31.269531 16.816406 -28.90625 15.203125 -26.71875 C 13.597656 -24.539062 12.257812 -22.585938 11.1875 -20.859375 C 10.125 -19.140625 9.59375 -17.648438 9.59375 -16.390625 C 9.59375 -15.515625 9.820312 -14.898438 10.28125 -14.546875 C 10.75 -14.191406 11.421875 -14.015625 12.296875 -14.015625 C 13.773438 -14.015625 15.742188 -14.4375 18.203125 -15.28125 C 20.660156 -16.132812 23.269531 -17.363281 26.03125 -18.96875 C 28.789062 -20.582031 31.398438 -22.550781 33.859375 -24.875 C 36.316406 -27.195312 38.320312 -29.847656 39.875 -32.828125 C 41.4375 -35.804688 42.21875 -39.101562 42.21875 -42.71875 C 42.21875 -45.5625 41.613281 -48.578125 40.40625 -51.765625 C 39.207031 -54.960938 37.160156 -58.3125 34.265625 -61.8125 Z M 54.4375 -61.8125 "/></g></g></g><g fill="#597cff" fill-opacity="0.302"><g transform="translate(120.980071, 108.274457)"><g><path d="M 1.71875 0 C 3.46875 -4.75 4.820312 -9.867188 5.78125 -15.359375 C 6.738281 -20.859375 7.21875 -26.425781 7.21875 -32.0625 C 7.21875 -37.144531 6.78125 -42.210938 5.90625 -47.265625 C 5.03125 -52.316406 3.632812 -57.164062 1.71875 -61.8125 L 20.25 -61.8125 C 18.550781 -57.0625 17.195312 -51.953125 16.1875 -46.484375 C 15.175781 -41.015625 14.671875 -35.441406 14.671875 -29.765625 C 14.671875 -24.679688 15.117188 -19.609375 16.015625 -14.546875 C 16.921875 -9.492188 18.332031 -4.644531 20.25 0 Z M 1.71875 0 "/></g></g></g><g fill="#597cff" fill-opacity="0.302"><g transform="translate(142.869326, 108.274457)"><g><path d="M 34.34375 0.984375 C 28.882812 0.984375 24.0625 0.0820312 19.875 -1.71875 C 15.695312 -3.519531 12.203125 -5.953125 9.390625 -9.015625 C 6.578125 -12.078125 4.441406 -15.519531 2.984375 -19.34375 C 1.535156 -23.175781 0.8125 -27.085938 0.8125 -31.078125 C 0.8125 -35.003906 1.519531 -38.851562 2.9375 -42.625 C 4.363281 -46.394531 6.539062 -49.796875 9.46875 -52.828125 C 12.394531 -55.867188 16.070312 -58.289062 20.5 -60.09375 C 24.925781 -61.894531 30.144531 -62.796875 36.15625 -62.796875 C 37.738281 -62.796875 39.304688 -62.695312 40.859375 -62.5 C 42.421875 -62.3125 43.96875 -62.082031 45.5 -61.8125 L 45.5 -45.578125 C 42.21875 -45.578125 38.773438 -44.945312 35.171875 -43.6875 C 31.566406 -42.4375 28.054688 -40.785156 24.640625 -38.734375 C 21.222656 -36.679688 18.132812 -34.453125 15.375 -32.046875 C 12.613281 -29.648438 10.410156 -27.300781 8.765625 -25 C 7.128906 -22.707031 6.3125 -20.6875 6.3125 -18.9375 C 6.3125 -17.625 6.757812 -16.625 7.65625 -15.9375 C 8.5625 -15.257812 9.644531 -14.8125 10.90625 -14.59375 C 12.164062 -14.375 13.285156 -14.265625 14.265625 -14.265625 C 16.554688 -14.265625 19.164062 -14.550781 22.09375 -15.125 C 25.019531 -15.695312 28.09375 -16.460938 31.3125 -17.421875 C 34.539062 -18.378906 37.78125 -19.414062 41.03125 -20.53125 C 44.28125 -21.65625 47.351562 -22.765625 50.25 -23.859375 L 50.25 0 C 47.46875 0.382812 44.765625 0.644531 42.140625 0.78125 C 39.515625 0.914062 36.914062 0.984375 34.34375 0.984375 Z M 34.34375 0.984375 "/></g></g></g><g fill="#597cff" fill-opacity="0.302"><g transform="translate(194.518127, 108.274457)"><g><path d="M 1.640625 0 C 3.390625 -4.75 4.753906 -9.867188 5.734375 -15.359375 C 6.722656 -20.859375 7.21875 -26.425781 7.21875 -32.0625 C 7.21875 -37.144531 6.765625 -42.210938 5.859375 -47.265625 C 4.960938 -52.316406 3.554688 -57.164062 1.640625 -61.8125 L 20.171875 -61.8125 C 18.367188 -56.789062 16.988281 -51.597656 16.03125 -46.234375 C 15.070312 -40.878906 14.59375 -35.5 14.59375 -30.09375 C 14.59375 -26.207031 14.835938 -22.378906 15.328125 -18.609375 C 15.984375 -20.140625 17.117188 -21.789062 18.734375 -23.5625 C 20.347656 -25.34375 22.03125 -27.3125 23.78125 -29.46875 C 25.53125 -31.632812 27.03125 -34.066406 28.28125 -36.765625 C 29.539062 -39.472656 30.171875 -42.519531 30.171875 -45.90625 C 30.171875 -48.207031 29.800781 -50.679688 29.0625 -53.328125 C 28.320312 -55.984375 27.050781 -58.8125 25.25 -61.8125 L 47.140625 -61.8125 C 48.398438 -59.351562 49.03125 -56.867188 49.03125 -54.359375 C 49.03125 -51.460938 48.289062 -48.671875 46.8125 -45.984375 C 45.332031 -43.304688 43.445312 -40.78125 41.15625 -38.40625 C 38.863281 -36.03125 36.40625 -33.789062 33.78125 -31.6875 C 31.15625 -29.582031 28.691406 -27.628906 26.390625 -25.828125 C 24.097656 -24.023438 22.210938 -22.398438 20.734375 -20.953125 C 19.265625 -19.503906 18.53125 -18.234375 18.53125 -17.140625 C 18.53125 -16.316406 18.910156 -15.6875 19.671875 -15.25 C 20.441406 -14.8125 21.316406 -14.507812 22.296875 -14.34375 C 23.285156 -14.175781 24.078125 -14.09375 24.671875 -14.09375 C 26.691406 -14.09375 28.929688 -14.351562 31.390625 -14.875 C 33.859375 -15.394531 36.289062 -16.023438 38.6875 -16.765625 C 41.09375 -17.503906 43.222656 -18.226562 45.078125 -18.9375 C 46.941406 -19.644531 48.257812 -20.164062 49.03125 -20.5 L 49.03125 0 C 48.476562 0.21875 47.546875 0.4375 46.234375 0.65625 C 44.921875 0.875 43.554688 0.984375 42.140625 0.984375 C 39.242188 0.984375 36.222656 0.492188 33.078125 -0.484375 C 29.929688 -1.472656 26.925781 -2.960938 24.0625 -4.953125 C 21.195312 -6.953125 18.640625 -9.398438 16.390625 -12.296875 C 16.828125 -10.328125 17.398438 -8.234375 18.109375 -6.015625 C 18.828125 -3.804688 19.515625 -1.800781 20.171875 0 Z M 1.640625 0 "/></g></g></g><g fill="#597cff" fill-opacity="0.302"><g transform="translate(243.953417, 108.274457)"><g/></g></g><g fill="#597cff" fill-opacity="0.302"><g transform="translate(265.268804, 108.274457)"><g><path d="M 1.71875 0 C 3.46875 -4.75 4.832031 -9.867188 5.8125 -15.359375 C 6.800781 -20.859375 7.296875 -26.425781 7.296875 -32.0625 C 7.296875 -37.144531 6.84375 -42.210938 5.9375 -47.265625 C 5.039062 -52.316406 3.632812 -57.164062 1.71875 -61.8125 C 3.738281 -62.03125 6.0625 -62.207031 8.6875 -62.34375 C 11.3125 -62.476562 13.8125 -62.585938 16.1875 -62.671875 C 18.570312 -62.753906 20.390625 -62.796875 21.640625 -62.796875 C 27.765625 -62.796875 32.832031 -61.8125 36.84375 -59.84375 C 40.863281 -57.875 43.882812 -55.347656 45.90625 -52.265625 C 47.925781 -49.179688 48.9375 -45.941406 48.9375 -42.546875 C 48.9375 -39.265625 47.96875 -36.117188 46.03125 -33.109375 C 44.09375 -30.109375 41.207031 -27.648438 37.375 -25.734375 C 33.550781 -23.828125 28.742188 -22.875 22.953125 -22.875 L 13.609375 -22.875 C 13.609375 -18.226562 14.332031 -14.019531 15.78125 -10.25 C 17.226562 -6.476562 19.265625 -3.0625 21.890625 0 Z M 38.453125 -47.3125 C 37.242188 -47.3125 35.75 -46.953125 33.96875 -46.234375 C 32.195312 -45.523438 30.351562 -44.597656 28.4375 -43.453125 C 26.53125 -42.304688 24.726562 -41.019531 23.03125 -39.59375 C 21.34375 -38.175781 19.960938 -36.753906 18.890625 -35.328125 C 17.828125 -33.910156 17.296875 -32.601562 17.296875 -31.40625 C 17.296875 -29.757812 18.363281 -28.9375 20.5 -28.9375 C 21.695312 -28.9375 23.171875 -29.289062 24.921875 -30 C 26.671875 -30.71875 28.515625 -31.648438 30.453125 -32.796875 C 32.398438 -33.941406 34.207031 -35.222656 35.875 -36.640625 C 37.539062 -38.066406 38.90625 -39.488281 39.96875 -40.90625 C 41.03125 -42.332031 41.5625 -43.644531 41.5625 -44.84375 C 41.5625 -46.488281 40.523438 -47.3125 38.453125 -47.3125 Z M 38.453125 -47.3125 "/></g></g></g><g fill="#597cff" fill-opacity="0.302"><g transform="translate(314.86805, 108.274457)"><g><path d="M 54.4375 -61.8125 C 52.738281 -57.0625 51.382812 -51.953125 50.375 -46.484375 C 49.363281 -41.015625 48.859375 -35.441406 48.859375 -29.765625 C 48.859375 -24.679688 49.304688 -19.609375 50.203125 -14.546875 C 51.109375 -9.492188 52.519531 -4.644531 54.4375 0 L 34.265625 0 L 41.40625 -27.296875 L 39.59375 -27.296875 C 38.78125 -23.472656 37.523438 -19.851562 35.828125 -16.4375 C 34.128906 -13.019531 32.09375 -10.015625 29.71875 -7.421875 C 27.34375 -4.828125 24.632812 -2.773438 21.59375 -1.265625 C 18.5625 0.234375 15.269531 0.984375 11.71875 0.984375 C 8.9375 0.984375 7.066406 0.4375 6.109375 -0.65625 C 5.148438 -1.75 4.671875 -3.390625 4.671875 -5.578125 C 4.671875 -7.378906 4.875 -9.535156 5.28125 -12.046875 C 5.695312 -14.566406 6.09375 -17.453125 6.46875 -20.703125 C 6.851562 -23.953125 7.046875 -27.519531 7.046875 -31.40625 C 7.046875 -35.71875 6.648438 -40.398438 5.859375 -45.453125 C 5.066406 -50.515625 3.578125 -55.96875 1.390625 -61.8125 L 22.875 -61.8125 C 23.800781 -59.957031 24.484375 -58.128906 24.921875 -56.328125 C 25.359375 -54.523438 25.578125 -52.75 25.578125 -51 C 25.578125 -47.820312 25.039062 -44.796875 23.96875 -41.921875 C 22.90625 -39.054688 21.582031 -36.351562 20 -33.8125 C 18.414062 -31.269531 16.816406 -28.90625 15.203125 -26.71875 C 13.597656 -24.539062 12.257812 -22.585938 11.1875 -20.859375 C 10.125 -19.140625 9.59375 -17.648438 9.59375 -16.390625 C 9.59375 -15.515625 9.820312 -14.898438 10.28125 -14.546875 C 10.75 -14.191406 11.421875 -14.015625 12.296875 -14.015625 C 13.773438 -14.015625 15.742188 -14.4375 18.203125 -15.28125 C 20.660156 -16.132812 23.269531 -17.363281 26.03125 -18.96875 C 28.789062 -20.582031 31.398438 -22.550781 33.859375 -24.875 C 36.316406 -27.195312 38.320312 -29.847656 39.875 -32.828125 C 41.4375 -35.804688 42.21875 -39.101562 42.21875 -42.71875 C 42.21875 -45.5625 41.613281 -48.578125 40.40625 -51.765625 C 39.207031 -54.960938 37.160156 -58.3125 34.265625 -61.8125 Z M 54.4375 -61.8125 "/></g></g></g><g fill="#597cff" fill-opacity="0.302"><g transform="translate(370.943898, 108.274457)"><g><path d="M 1.71875 0 C 3.46875 -4.75 4.832031 -9.867188 5.8125 -15.359375 C 6.800781 -20.859375 7.296875 -26.425781 7.296875 -32.0625 C 7.296875 -37.144531 6.84375 -42.210938 5.9375 -47.265625 C 5.039062 -52.316406 3.632812 -57.164062 1.71875 -61.8125 L 45.828125 -61.8125 L 45.828125 -40.828125 C 45.222656 -41.097656 44.113281 -41.570312 42.5 -42.25 C 40.894531 -42.9375 39 -43.675781 36.8125 -44.46875 C 34.625 -45.269531 32.367188 -45.941406 30.046875 -46.484375 C 27.722656 -47.035156 25.550781 -47.3125 23.53125 -47.3125 C 21.882812 -47.3125 20.488281 -46.75 19.34375 -45.625 C 18.195312 -44.5 17.253906 -43.101562 16.515625 -41.4375 C 15.773438 -39.769531 15.238281 -38.046875 14.90625 -36.265625 C 14.582031 -34.492188 14.421875 -32.953125 14.421875 -31.640625 C 14.421875 -30.609375 14.597656 -29.882812 14.953125 -29.46875 C 15.316406 -29.0625 15.851562 -28.859375 16.5625 -28.859375 C 17.488281 -28.859375 18.617188 -29.144531 19.953125 -29.71875 C 21.296875 -30.289062 22.800781 -30.957031 24.46875 -31.71875 C 26.132812 -32.488281 27.867188 -33.160156 29.671875 -33.734375 C 31.484375 -34.304688 33.257812 -34.59375 35 -34.59375 C 35.332031 -34.59375 35.648438 -34.578125 35.953125 -34.546875 C 36.253906 -34.523438 36.566406 -34.488281 36.890625 -34.4375 L 36.890625 -22.953125 C 33.234375 -24.097656 29.804688 -25.050781 26.609375 -25.8125 C 23.410156 -26.582031 19.953125 -26.96875 16.234375 -26.96875 L 13.6875 -26.96875 L 13.6875 -23.9375 C 13.6875 -19.457031 14.257812 -15.234375 15.40625 -11.265625 C 16.5625 -7.304688 18.722656 -3.550781 21.890625 0 Z M 1.71875 0 "/></g></g></g><g fill="#597cff" fill-opacity="0.302"><g transform="translate(417.181875, 108.274457)"><g><path d="M 1.71875 0 C 3.46875 -4.75 4.832031 -9.867188 5.8125 -15.359375 C 6.800781 -20.859375 7.296875 -26.425781 7.296875 -32.0625 C 7.296875 -37.144531 6.84375 -42.210938 5.9375 -47.265625 C 5.039062 -52.316406 3.632812 -57.164062 1.71875 -61.8125 L 45.828125 -61.8125 L 45.828125 -40.828125 C 45.222656 -41.097656 44.113281 -41.570312 42.5 -42.25 C 40.894531 -42.9375 39 -43.675781 36.8125 -44.46875 C 34.625 -45.269531 32.367188 -45.941406 30.046875 -46.484375 C 27.722656 -47.035156 25.550781 -47.3125 23.53125 -47.3125 C 21.882812 -47.3125 20.488281 -46.75 19.34375 -45.625 C 18.195312 -44.5 17.253906 -43.101562 16.515625 -41.4375 C 15.773438 -39.769531 15.238281 -38.046875 14.90625 -36.265625 C 14.582031 -34.492188 14.421875 -32.953125 14.421875 -31.640625 C 14.421875 -30.609375 14.597656 -29.882812 14.953125 -29.46875 C 15.316406 -29.0625 15.851562 -28.859375 16.5625 -28.859375 C 17.488281 -28.859375 18.617188 -29.144531 19.953125 -29.71875 C 21.296875 -30.289062 22.800781 -30.957031 24.46875 -31.71875 C 26.132812 -32.488281 27.867188 -33.160156 29.671875 -33.734375 C 31.484375 -34.304688 33.257812 -34.59375 35 -34.59375 C 35.332031 -34.59375 35.648438 -34.578125 35.953125 -34.546875 C 36.253906 -34.523438 36.566406 -34.488281 36.890625 -34.4375 L 36.890625 -22.953125 C 33.234375 -24.097656 29.804688 -25.050781 26.609375 -25.8125 C 23.410156 -26.582031 19.953125 -26.96875 16.234375 -26.96875 L 13.6875 -26.96875 L 13.6875 -23.9375 C 13.6875 -19.457031 14.257812 -15.234375 15.40625 -11.265625 C 16.5625 -7.304688 18.722656 -3.550781 21.890625 0 Z M 1.71875 0 "/></g></g></g><g fill="#597cff" fill-opacity="0.302"><g transform="translate(463.419852, 108.274457)"><g/></g></g><g fill="#597cff" fill-opacity="0.302"><g transform="translate(484.73524, 108.274457)"><g><path d="M 1.71875 -29.515625 L 1.71875 -34.4375 L 15.90625 -34.4375 L 15.90625 -48.78125 L 21.15625 -48.78125 L 21.15625 -34.4375 L 35.328125 -34.4375 L 35.328125 -29.515625 L 21.15625 -29.515625 L 21.15625 -15.171875 L 15.90625 -15.171875 L 15.90625 -29.515625 Z M 1.71875 -29.515625 "/></g></g></g><g fill="#597cff" fill-opacity="0.302"><g transform="translate(521.709213, 108.274457)"><g/></g></g><g fill="#597cff" fill-opacity="0.302"><g transform="translate(543.0246, 108.274457)"><g><path d="M -1.234375 0 C -0.0859375 -3.0625 1.179688 -6.285156 2.578125 -9.671875 C 3.972656 -13.054688 5.351562 -16.566406 6.71875 -20.203125 C 8.082031 -23.835938 9.234375 -27.488281 10.171875 -31.15625 C 11.148438 -35.09375 11.640625 -39.132812 11.640625 -43.28125 C 11.640625 -47 11.253906 -50.5 10.484375 -53.78125 C 9.722656 -57.0625 8.632812 -59.738281 7.21875 -61.8125 L 42.953125 -61.8125 C 42.953125 -53.726562 43.347656 -46.117188 44.140625 -38.984375 C 44.941406 -31.847656 46.296875 -25.054688 48.203125 -18.609375 C 50.117188 -12.160156 52.796875 -5.957031 56.234375 0 L 27.953125 0 C 26.265625 -2.726562 25.0625 -5.320312 24.34375 -7.78125 C 23.632812 -10.25 23.28125 -12.570312 23.28125 -14.75 C 23.28125 -17.976562 23.894531 -20.914062 25.125 -23.5625 C 26.351562 -26.21875 27.867188 -28.640625 29.671875 -30.828125 C 31.484375 -33.015625 33.273438 -34.984375 35.046875 -36.734375 C 36.828125 -38.484375 38.332031 -40.039062 39.5625 -41.40625 C 40.789062 -42.769531 41.40625 -44 41.40625 -45.09375 C 41.40625 -46.019531 41.035156 -46.617188 40.296875 -46.890625 C 39.554688 -47.171875 38.804688 -47.3125 38.046875 -47.3125 C 36.566406 -47.3125 34.742188 -46.984375 32.578125 -46.328125 C 30.421875 -45.671875 28.179688 -44.65625 25.859375 -43.28125 C 23.535156 -41.914062 21.363281 -40.207031 19.34375 -38.15625 C 17.320312 -36.113281 15.679688 -33.679688 14.421875 -30.859375 C 13.171875 -28.046875 12.546875 -24.835938 12.546875 -21.234375 C 12.546875 -18.222656 13.101562 -14.957031 14.21875 -11.4375 C 15.34375 -7.914062 17.160156 -4.101562 19.671875 0 Z M -1.234375 0 "/></g></g></g><g fill="#597cff" fill-opacity="0.302"><g transform="translate(598.034671, 108.274457)"><g><path d="M 1.640625 0 C 3.054688 -6.125 4.296875 -12.054688 5.359375 -17.796875 C 6.429688 -23.535156 6.96875 -29.300781 6.96875 -35.09375 C 6.96875 -39.40625 6.554688 -43.773438 5.734375 -48.203125 C 4.921875 -52.628906 3.554688 -57.164062 1.640625 -61.8125 L 20.171875 -61.8125 C 21.097656 -60.226562 21.738281 -58.613281 22.09375 -56.96875 C 22.445312 -55.332031 22.625 -53.695312 22.625 -52.0625 C 22.625 -49.21875 22.171875 -46.390625 21.265625 -43.578125 C 20.367188 -40.765625 19.265625 -38.054688 17.953125 -35.453125 C 16.640625 -32.859375 15.328125 -30.425781 14.015625 -28.15625 C 12.703125 -25.894531 11.59375 -23.859375 10.6875 -22.046875 C 9.789062 -20.242188 9.34375 -18.769531 9.34375 -17.625 C 9.34375 -16.582031 9.765625 -15.816406 10.609375 -15.328125 C 11.460938 -14.835938 12.4375 -14.523438 13.53125 -14.390625 C 14.625 -14.253906 15.550781 -14.1875 16.3125 -14.1875 C 18.332031 -14.1875 20.53125 -14.390625 22.90625 -14.796875 C 25.289062 -15.203125 27.613281 -15.71875 29.875 -16.34375 C 32.144531 -16.976562 34.15625 -17.609375 35.90625 -18.234375 C 37.65625 -18.867188 38.882812 -19.378906 39.59375 -19.765625 L 39.59375 0 Z M 1.640625 0 "/></g></g></g><g fill="#597cff" fill-opacity="0.302"><g transform="translate(638.042022, 108.274457)"><g><path d="M 1.640625 0 C 3.054688 -6.125 4.296875 -12.054688 5.359375 -17.796875 C 6.429688 -23.535156 6.96875 -29.300781 6.96875 -35.09375 C 6.96875 -39.40625 6.554688 -43.773438 5.734375 -48.203125 C 4.921875 -52.628906 3.554688 -57.164062 1.640625 -61.8125 L 20.171875 -61.8125 C 21.097656 -60.226562 21.738281 -58.613281 22.09375 -56.96875 C 22.445312 -55.332031 22.625 -53.695312 22.625 -52.0625 C 22.625 -49.21875 22.171875 -46.390625 21.265625 -43.578125 C 20.367188 -40.765625 19.265625 -38.054688 17.953125 -35.453125 C 16.640625 -32.859375 15.328125 -30.425781 14.015625 -28.15625 C 12.703125 -25.894531 11.59375 -23.859375 10.6875 -22.046875 C 9.789062 -20.242188 9.34375 -18.769531 9.34375 -17.625 C 9.34375 -16.582031 9.765625 -15.816406 10.609375 -15.328125 C 11.460938 -14.835938 12.4375 -14.523438 13.53125 -14.390625 C 14.625 -14.253906 15.550781 -14.1875 16.3125 -14.1875 C 18.332031 -14.1875 20.53125 -14.390625 22.90625 -14.796875 C 25.289062 -15.203125 27.613281 -15.71875 29.875 -16.34375 C 32.144531 -16.976562 34.15625 -17.609375 35.90625 -18.234375 C 37.65625 -18.867188 38.882812 -19.378906 39.59375 -19.765625 L 39.59375 0 Z M 1.640625 0 "/></g></g></g><g fill="#597cff" fill-opacity="0.302"><g transform="translate(678.049372, 108.274457)"><g/></g></g><g fill="#597cff" fill-opacity="0.302"><g transform="translate(699.36476, 108.274457)"><g><path d="M 1.640625 0 C 3.054688 -6.125 4.296875 -12.054688 5.359375 -17.796875 C 6.429688 -23.535156 6.96875 -29.300781 6.96875 -35.09375 C 6.96875 -39.40625 6.554688 -43.773438 5.734375 -48.203125 C 4.921875 -52.628906 3.554688 -57.164062 1.640625 -61.8125 L 20.171875 -61.8125 C 21.097656 -60.226562 21.738281 -58.613281 22.09375 -56.96875 C 22.445312 -55.332031 22.625 -53.695312 22.625 -52.0625 C 22.625 -49.21875 22.171875 -46.390625 21.265625 -43.578125 C 20.367188 -40.765625 19.265625 -38.054688 17.953125 -35.453125 C 16.640625 -32.859375 15.328125 -30.425781 14.015625 -28.15625 C 12.703125 -25.894531 11.59375 -23.859375 10.6875 -22.046875 C 9.789062 -20.242188 9.34375 -18.769531 9.34375 -17.625 C 9.34375 -16.582031 9.765625 -15.816406 10.609375 -15.328125 C 11.460938 -14.835938 12.4375 -14.523438 13.53125 -14.390625 C 14.625 -14.253906 15.550781 -14.1875 16.3125 -14.1875 C 18.332031 -14.1875 20.53125 -14.390625 22.90625 -14.796875 C 25.289062 -15.203125 27.613281 -15.71875 29.875 -16.34375 C 32.144531 -16.976562 34.15625 -17.609375 35.90625 -18.234375 C 37.65625 -18.867188 38.882812 -19.378906 39.59375 -19.765625 L 39.59375 0 Z M 1.640625 0 "/></g></g></g><g fill="#597cff" fill-opacity="0.302"><g transform="translate(739.372111, 108.274457)"><g><path d="M 27.46875 0.984375 C 23.09375 0.984375 19.265625 0.0820312 15.984375 -1.71875 C 12.703125 -3.519531 9.984375 -5.953125 7.828125 -9.015625 C 5.671875 -12.078125 4.046875 -15.492188 2.953125 -19.265625 C 1.859375 -23.035156 1.3125 -26.914062 1.3125 -30.90625 C 1.3125 -34.894531 1.859375 -38.785156 2.953125 -42.578125 C 4.046875 -46.378906 5.671875 -49.796875 7.828125 -52.828125 C 9.984375 -55.867188 12.703125 -58.289062 15.984375 -60.09375 C 19.265625 -61.894531 23.09375 -62.796875 27.46875 -62.796875 C 31.84375 -62.796875 35.664062 -61.894531 38.9375 -60.09375 C 42.21875 -58.289062 44.953125 -55.867188 47.140625 -52.828125 C 49.328125 -49.796875 50.96875 -46.378906 52.0625 -42.578125 C 53.15625 -38.785156 53.703125 -34.894531 53.703125 -30.90625 C 53.703125 -26.914062 53.15625 -23.035156 52.0625 -19.265625 C 50.96875 -15.492188 49.328125 -12.078125 47.140625 -9.015625 C 44.953125 -5.953125 42.21875 -3.519531 38.9375 -1.71875 C 35.664062 0.0820312 31.84375 0.984375 27.46875 0.984375 Z M 42.796875 -47.3125 C 41.046875 -47.3125 38.925781 -46.875 36.4375 -46 C 33.957031 -45.125 31.347656 -43.929688 28.609375 -42.421875 C 25.878906 -40.921875 23.203125 -39.210938 20.578125 -37.296875 C 17.953125 -35.390625 15.570312 -33.382812 13.4375 -31.28125 C 11.3125 -29.175781 9.601562 -27.082031 8.3125 -25 C 7.03125 -22.925781 6.390625 -20.988281 6.390625 -19.1875 C 6.390625 -17.488281 6.960938 -16.285156 8.109375 -15.578125 C 9.265625 -14.867188 10.609375 -14.515625 12.140625 -14.515625 C 13.941406 -14.515625 16.070312 -14.953125 18.53125 -15.828125 C 20.988281 -16.703125 23.582031 -17.890625 26.3125 -19.390625 C 29.050781 -20.890625 31.726562 -22.59375 34.34375 -24.5 C 36.96875 -26.414062 39.359375 -28.425781 41.515625 -30.53125 C 43.679688 -32.644531 45.40625 -34.753906 46.6875 -36.859375 C 47.96875 -38.960938 48.609375 -40.914062 48.609375 -42.71875 C 48.609375 -44.40625 48.019531 -45.59375 46.84375 -46.28125 C 45.675781 -46.96875 44.328125 -47.3125 42.796875 -47.3125 Z M 42.796875 -47.3125 "/></g></g></g><g fill="#597cff" fill-opacity="0.302"><g transform="translate(794.300224, 108.274457)"><g><path d="M 12.046875 0 C 12.046875 -8.09375 11.660156 -15.71875 10.890625 -22.875 C 10.128906 -30.03125 8.78125 -36.816406 6.84375 -43.234375 C 4.90625 -49.660156 2.210938 -55.851562 -1.234375 -61.8125 L 27.140625 -61.8125 C 28.773438 -59.082031 29.960938 -56.488281 30.703125 -54.03125 C 31.441406 -51.570312 31.8125 -49.25 31.8125 -47.0625 C 31.8125 -43.832031 31.195312 -40.890625 29.96875 -38.234375 C 28.738281 -35.585938 27.234375 -33.171875 25.453125 -30.984375 C 23.679688 -28.796875 21.890625 -26.828125 20.078125 -25.078125 C 18.273438 -23.335938 16.757812 -21.78125 15.53125 -20.40625 C 14.300781 -19.039062 13.6875 -17.8125 13.6875 -16.71875 C 13.6875 -15.789062 14.039062 -15.191406 14.75 -14.921875 C 15.46875 -14.648438 16.207031 -14.515625 16.96875 -14.515625 C 18.445312 -14.515625 20.265625 -14.84375 22.421875 -15.5 C 24.578125 -16.15625 26.816406 -17.164062 29.140625 -18.53125 C 31.460938 -19.894531 33.632812 -21.601562 35.65625 -23.65625 C 37.6875 -25.707031 39.328125 -28.140625 40.578125 -30.953125 C 41.835938 -33.765625 42.46875 -36.972656 42.46875 -40.578125 C 42.46875 -43.585938 41.921875 -46.851562 40.828125 -50.375 C 39.734375 -53.90625 37.898438 -57.71875 35.328125 -61.8125 L 56.234375 -61.8125 C 55.140625 -58.8125 53.882812 -55.601562 52.46875 -52.1875 C 51.050781 -48.769531 49.65625 -45.242188 48.28125 -41.609375 C 46.914062 -37.972656 45.769531 -34.320312 44.84375 -30.65625 C 43.863281 -26.726562 43.375 -22.6875 43.375 -18.53125 C 43.375 -14.863281 43.753906 -11.375 44.515625 -8.0625 C 45.285156 -4.757812 46.378906 -2.070312 47.796875 0 Z M 12.046875 0 "/></g></g></g><g fill="#597cff" fill-opacity="0.302"><g transform="translate(849.310337, 108.274457)"><g><path d="M 1.640625 0 C 3.390625 -4.75 4.753906 -9.867188 5.734375 -15.359375 C 6.722656 -20.859375 7.21875 -26.425781 7.21875 -32.0625 C 7.21875 -37.144531 6.765625 -42.210938 5.859375 -47.265625 C 4.960938 -52.316406 3.554688 -57.164062 1.640625 -61.8125 L 46.5625 -61.8125 L 46.5625 -40.828125 C 45.96875 -41.097656 44.820312 -41.585938 43.125 -42.296875 C 41.425781 -43.015625 39.429688 -43.78125 37.140625 -44.59375 C 34.847656 -45.414062 32.5 -46.128906 30.09375 -46.734375 C 27.6875 -47.335938 25.472656 -47.640625 23.453125 -47.640625 C 21.804688 -47.640625 20.410156 -47.0625 19.265625 -45.90625 C 18.117188 -44.757812 17.175781 -43.328125 16.4375 -41.609375 C 15.695312 -39.890625 15.160156 -38.125 14.828125 -36.3125 C 14.503906 -34.507812 14.34375 -32.953125 14.34375 -31.640625 C 14.34375 -30.609375 14.519531 -29.882812 14.875 -29.46875 C 15.226562 -29.0625 15.765625 -28.859375 16.484375 -28.859375 C 17.410156 -28.859375 18.539062 -29.144531 19.875 -29.71875 C 21.21875 -30.289062 22.722656 -30.957031 24.390625 -31.71875 C 26.054688 -32.488281 27.789062 -33.160156 29.59375 -33.734375 C 31.394531 -34.304688 33.171875 -34.59375 34.921875 -34.59375 C 35.191406 -34.59375 35.488281 -34.578125 35.8125 -34.546875 C 36.144531 -34.523438 36.476562 -34.488281 36.8125 -34.4375 L 36.8125 -22.953125 C 32.769531 -24.210938 29.09375 -25.222656 25.78125 -25.984375 C 22.476562 -26.753906 19.378906 -27.140625 16.484375 -27.140625 C 15.609375 -26.097656 14.757812 -24.945312 13.9375 -23.6875 C 13.113281 -22.4375 12.425781 -21.234375 11.875 -20.078125 C 11.332031 -18.929688 11.0625 -17.953125 11.0625 -17.140625 C 11.0625 -16.421875 11.390625 -15.84375 12.046875 -15.40625 C 12.703125 -14.96875 13.507812 -14.640625 14.46875 -14.421875 C 15.425781 -14.203125 16.34375 -14.066406 17.21875 -14.015625 C 18.09375 -13.960938 18.773438 -13.9375 19.265625 -13.9375 C 21.503906 -13.9375 24.207031 -14.164062 27.375 -14.625 C 30.550781 -15.09375 33.832031 -15.765625 37.21875 -16.640625 C 40.601562 -17.515625 43.71875 -18.554688 46.5625 -19.765625 L 46.5625 0 Z M 1.640625 0 "/></g></g></g><g fill="#597cff" fill-opacity="0.502"><g transform="translate(6.926545, 104.65101)"><g><path d="M 47.140625 20.5 C 42.441406 20.5 37.847656 19.457031 33.359375 17.375 C 28.878906 15.300781 24.710938 12.5 20.859375 8.96875 C 17.003906 5.445312 13.601562 1.472656 10.65625 -2.953125 C 7.707031 -7.378906 5.410156 -11.992188 3.765625 -16.796875 C 2.128906 -21.609375 1.3125 -26.3125 1.3125 -30.90625 C 1.3125 -34.894531 1.859375 -38.773438 2.953125 -42.546875 C 4.046875 -46.316406 5.671875 -49.734375 7.828125 -52.796875 C 9.984375 -55.859375 12.703125 -58.289062 15.984375 -60.09375 C 19.265625 -61.894531 23.09375 -62.796875 27.46875 -62.796875 C 31.84375 -62.796875 35.664062 -61.894531 38.9375 -60.09375 C 42.21875 -58.289062 44.953125 -55.867188 47.140625 -52.828125 C 49.328125 -49.796875 50.96875 -46.378906 52.0625 -42.578125 C 53.15625 -38.785156 53.703125 -34.894531 53.703125 -30.90625 C 53.703125 -26.914062 53.15625 -23.035156 52.0625 -19.265625 C 50.96875 -15.492188 49.328125 -12.078125 47.140625 -9.015625 C 44.953125 -5.953125 42.21875 -3.519531 38.9375 -1.71875 C 35.664062 0.0820312 31.84375 0.984375 27.46875 0.984375 C 26.863281 0.984375 26 0.925781 24.875 0.8125 C 23.757812 0.707031 22.65625 0.546875 21.5625 0.328125 C 20.582031 1.367188 20.09375 2.296875 20.09375 3.109375 C 20.09375 3.929688 20.582031 4.535156 21.5625 4.921875 C 22.539062 5.304688 23.828125 5.5 25.421875 5.5 C 27.378906 5.5 29.628906 5.238281 32.171875 4.71875 C 34.710938 4.195312 37.304688 3.441406 39.953125 2.453125 C 42.609375 1.472656 45.003906 0.328125 47.140625 -0.984375 Z M 42.796875 -47.3125 C 41.046875 -47.3125 38.925781 -46.875 36.4375 -46 C 33.957031 -45.125 31.347656 -43.929688 28.609375 -42.421875 C 25.878906 -40.921875 23.203125 -39.210938 20.578125 -37.296875 C 17.953125 -35.390625 15.570312 -33.382812 13.4375 -31.28125 C 11.3125 -29.175781 9.601562 -27.082031 8.3125 -25 C 7.03125 -22.925781 6.390625 -20.988281 6.390625 -19.1875 C 6.390625 -17.488281 6.960938 -16.285156 8.109375 -15.578125 C 9.265625 -14.867188 10.609375 -14.515625 12.140625 -14.515625 C 13.941406 -14.515625 16.070312 -14.953125 18.53125 -15.828125 C 20.988281 -16.703125 23.582031 -17.890625 26.3125 -19.390625 C 29.050781 -20.890625 31.726562 -22.59375 34.34375 -24.5 C 36.96875 -26.414062 39.359375 -28.425781 41.515625 -30.53125 C 43.679688 -32.644531 45.40625 -34.753906 46.6875 -36.859375 C 47.96875 -38.960938 48.609375 -40.914062 48.609375 -42.71875 C 48.609375 -44.40625 48.019531 -45.59375 46.84375 -46.28125 C 45.675781 -46.96875 44.328125 -47.3125 42.796875 -47.3125 Z M 42.796875 -47.3125 "/></g></g></g><g fill="#597cff" fill-opacity="0.502"><g transform="translate(61.28077, 104.65101)"><g><path d="M 54.4375 -61.8125 C 52.738281 -57.0625 51.382812 -51.953125 50.375 -46.484375 C 49.363281 -41.015625 48.859375 -35.441406 48.859375 -29.765625 C 48.859375 -24.679688 49.304688 -19.609375 50.203125 -14.546875 C 51.109375 -9.492188 52.519531 -4.644531 54.4375 0 L 34.265625 0 L 41.40625 -27.296875 L 39.59375 -27.296875 C 38.78125 -23.472656 37.523438 -19.851562 35.828125 -16.4375 C 34.128906 -13.019531 32.09375 -10.015625 29.71875 -7.421875 C 27.34375 -4.828125 24.632812 -2.773438 21.59375 -1.265625 C 18.5625 0.234375 15.269531 0.984375 11.71875 0.984375 C 8.9375 0.984375 7.066406 0.4375 6.109375 -0.65625 C 5.148438 -1.75 4.671875 -3.390625 4.671875 -5.578125 C 4.671875 -7.378906 4.875 -9.535156 5.28125 -12.046875 C 5.695312 -14.566406 6.09375 -17.453125 6.46875 -20.703125 C 6.851562 -23.953125 7.046875 -27.519531 7.046875 -31.40625 C 7.046875 -35.71875 6.648438 -40.398438 5.859375 -45.453125 C 5.066406 -50.515625 3.578125 -55.96875 1.390625 -61.8125 L 22.875 -61.8125 C 23.800781 -59.957031 24.484375 -58.128906 24.921875 -56.328125 C 25.359375 -54.523438 25.578125 -52.75 25.578125 -51 C 25.578125 -47.820312 25.039062 -44.796875 23.96875 -41.921875 C 22.90625 -39.054688 21.582031 -36.351562 20 -33.8125 C 18.414062 -31.269531 16.816406 -28.90625 15.203125 -26.71875 C 13.597656 -24.539062 12.257812 -22.585938 11.1875 -20.859375 C 10.125 -19.140625 9.59375 -17.648438 9.59375 -16.390625 C 9.59375 -15.515625 9.820312 -14.898438 10.28125 -14.546875 C 10.75 -14.191406 11.421875 -14.015625 12.296875 -14.015625 C 13.773438 -14.015625 15.742188 -14.4375 18.203125 -15.28125 C 20.660156 -16.132812 23.269531 -17.363281 26.03125 -18.96875 C 28.789062 -20.582031 31.398438 -22.550781 33.859375 -24.875 C 36.316406 -27.195312 38.320312 -29.847656 39.875 -32.828125 C 41.4375 -35.804688 42.21875 -39.101562 42.21875 -42.71875 C 42.21875 -45.5625 41.613281 -48.578125 40.40625 -51.765625 C 39.207031 -54.960938 37.160156 -58.3125 34.265625 -61.8125 Z M 54.4375 -61.8125 "/></g></g></g><g fill="#597cff" fill-opacity="0.502"><g transform="translate(117.356618, 104.65101)"><g><path d="M 1.71875 0 C 3.46875 -4.75 4.820312 -9.867188 5.78125 -15.359375 C 6.738281 -20.859375 7.21875 -26.425781 7.21875 -32.0625 C 7.21875 -37.144531 6.78125 -42.210938 5.90625 -47.265625 C 5.03125 -52.316406 3.632812 -57.164062 1.71875 -61.8125 L 20.25 -61.8125 C 18.550781 -57.0625 17.195312 -51.953125 16.1875 -46.484375 C 15.175781 -41.015625 14.671875 -35.441406 14.671875 -29.765625 C 14.671875 -24.679688 15.117188 -19.609375 16.015625 -14.546875 C 16.921875 -9.492188 18.332031 -4.644531 20.25 0 Z M 1.71875 0 "/></g></g></g><g fill="#597cff" fill-opacity="0.502"><g transform="translate(139.245873, 104.65101)"><g><path d="M 34.34375 0.984375 C 28.882812 0.984375 24.0625 0.0820312 19.875 -1.71875 C 15.695312 -3.519531 12.203125 -5.953125 9.390625 -9.015625 C 6.578125 -12.078125 4.441406 -15.519531 2.984375 -19.34375 C 1.535156 -23.175781 0.8125 -27.085938 0.8125 -31.078125 C 0.8125 -35.003906 1.519531 -38.851562 2.9375 -42.625 C 4.363281 -46.394531 6.539062 -49.796875 9.46875 -52.828125 C 12.394531 -55.867188 16.070312 -58.289062 20.5 -60.09375 C 24.925781 -61.894531 30.144531 -62.796875 36.15625 -62.796875 C 37.738281 -62.796875 39.304688 -62.695312 40.859375 -62.5 C 42.421875 -62.3125 43.96875 -62.082031 45.5 -61.8125 L 45.5 -45.578125 C 42.21875 -45.578125 38.773438 -44.945312 35.171875 -43.6875 C 31.566406 -42.4375 28.054688 -40.785156 24.640625 -38.734375 C 21.222656 -36.679688 18.132812 -34.453125 15.375 -32.046875 C 12.613281 -29.648438 10.410156 -27.300781 8.765625 -25 C 7.128906 -22.707031 6.3125 -20.6875 6.3125 -18.9375 C 6.3125 -17.625 6.757812 -16.625 7.65625 -15.9375 C 8.5625 -15.257812 9.644531 -14.8125 10.90625 -14.59375 C 12.164062 -14.375 13.285156 -14.265625 14.265625 -14.265625 C 16.554688 -14.265625 19.164062 -14.550781 22.09375 -15.125 C 25.019531 -15.695312 28.09375 -16.460938 31.3125 -17.421875 C 34.539062 -18.378906 37.78125 -19.414062 41.03125 -20.53125 C 44.28125 -21.65625 47.351562 -22.765625 50.25 -23.859375 L 50.25 0 C 47.46875 0.382812 44.765625 0.644531 42.140625 0.78125 C 39.515625 0.914062 36.914062 0.984375 34.34375 0.984375 Z M 34.34375 0.984375 "/></g></g></g><g fill="#597cff" fill-opacity="0.502"><g transform="translate(190.894675, 104.65101)"><g><path d="M 1.640625 0 C 3.390625 -4.75 4.753906 -9.867188 5.734375 -15.359375 C 6.722656 -20.859375 7.21875 -26.425781 7.21875 -32.0625 C 7.21875 -37.144531 6.765625 -42.210938 5.859375 -47.265625 C 4.960938 -52.316406 3.554688 -57.164062 1.640625 -61.8125 L 20.171875 -61.8125 C 18.367188 -56.789062 16.988281 -51.597656 16.03125 -46.234375 C 15.070312 -40.878906 14.59375 -35.5 14.59375 -30.09375 C 14.59375 -26.207031 14.835938 -22.378906 15.328125 -18.609375 C 15.984375 -20.140625 17.117188 -21.789062 18.734375 -23.5625 C 20.347656 -25.34375 22.03125 -27.3125 23.78125 -29.46875 C 25.53125 -31.632812 27.03125 -34.066406 28.28125 -36.765625 C 29.539062 -39.472656 30.171875 -42.519531 30.171875 -45.90625 C 30.171875 -48.207031 29.800781 -50.679688 29.0625 -53.328125 C 28.320312 -55.984375 27.050781 -58.8125 25.25 -61.8125 L 47.140625 -61.8125 C 48.398438 -59.351562 49.03125 -56.867188 49.03125 -54.359375 C 49.03125 -51.460938 48.289062 -48.671875 46.8125 -45.984375 C 45.332031 -43.304688 43.445312 -40.78125 41.15625 -38.40625 C 38.863281 -36.03125 36.40625 -33.789062 33.78125 -31.6875 C 31.15625 -29.582031 28.691406 -27.628906 26.390625 -25.828125 C 24.097656 -24.023438 22.210938 -22.398438 20.734375 -20.953125 C 19.265625 -19.503906 18.53125 -18.234375 18.53125 -17.140625 C 18.53125 -16.316406 18.910156 -15.6875 19.671875 -15.25 C 20.441406 -14.8125 21.316406 -14.507812 22.296875 -14.34375 C 23.285156 -14.175781 24.078125 -14.09375 24.671875 -14.09375 C 26.691406 -14.09375 28.929688 -14.351562 31.390625 -14.875 C 33.859375 -15.394531 36.289062 -16.023438 38.6875 -16.765625 C 41.09375 -17.503906 43.222656 -18.226562 45.078125 -18.9375 C 46.941406 -19.644531 48.257812 -20.164062 49.03125 -20.5 L 49.03125 0 C 48.476562 0.21875 47.546875 0.4375 46.234375 0.65625 C 44.921875 0.875 43.554688 0.984375 42.140625 0.984375 C 39.242188 0.984375 36.222656 0.492188 33.078125 -0.484375 C 29.929688 -1.472656 26.925781 -2.960938 24.0625 -4.953125 C 21.195312 -6.953125 18.640625 -9.398438 16.390625 -12.296875 C 16.828125 -10.328125 17.398438 -8.234375 18.109375 -6.015625 C 18.828125 -3.804688 19.515625 -1.800781 20.171875 0 Z M 1.640625 0 "/></g></g></g><g fill="#597cff" fill-opacity="0.502"><g transform="translate(240.329964, 104.65101)"><g/></g></g><g fill="#597cff" fill-opacity="0.502"><g transform="translate(261.645352, 104.65101)"><g><path d="M 1.71875 0 C 3.46875 -4.75 4.832031 -9.867188 5.8125 -15.359375 C 6.800781 -20.859375 7.296875 -26.425781 7.296875 -32.0625 C 7.296875 -37.144531 6.84375 -42.210938 5.9375 -47.265625 C 5.039062 -52.316406 3.632812 -57.164062 1.71875 -61.8125 C 3.738281 -62.03125 6.0625 -62.207031 8.6875 -62.34375 C 11.3125 -62.476562 13.8125 -62.585938 16.1875 -62.671875 C 18.570312 -62.753906 20.390625 -62.796875 21.640625 -62.796875 C 27.765625 -62.796875 32.832031 -61.8125 36.84375 -59.84375 C 40.863281 -57.875 43.882812 -55.347656 45.90625 -52.265625 C 47.925781 -49.179688 48.9375 -45.941406 48.9375 -42.546875 C 48.9375 -39.265625 47.96875 -36.117188 46.03125 -33.109375 C 44.09375 -30.109375 41.207031 -27.648438 37.375 -25.734375 C 33.550781 -23.828125 28.742188 -22.875 22.953125 -22.875 L 13.609375 -22.875 C 13.609375 -18.226562 14.332031 -14.019531 15.78125 -10.25 C 17.226562 -6.476562 19.265625 -3.0625 21.890625 0 Z M 38.453125 -47.3125 C 37.242188 -47.3125 35.75 -46.953125 33.96875 -46.234375 C 32.195312 -45.523438 30.351562 -44.597656 28.4375 -43.453125 C 26.53125 -42.304688 24.726562 -41.019531 23.03125 -39.59375 C 21.34375 -38.175781 19.960938 -36.753906 18.890625 -35.328125 C 17.828125 -33.910156 17.296875 -32.601562 17.296875 -31.40625 C 17.296875 -29.757812 18.363281 -28.9375 20.5 -28.9375 C 21.695312 -28.9375 23.171875 -29.289062 24.921875 -30 C 26.671875 -30.71875 28.515625 -31.648438 30.453125 -32.796875 C 32.398438 -33.941406 34.207031 -35.222656 35.875 -36.640625 C 37.539062 -38.066406 38.90625 -39.488281 39.96875 -40.90625 C 41.03125 -42.332031 41.5625 -43.644531 41.5625 -44.84375 C 41.5625 -46.488281 40.523438 -47.3125 38.453125 -47.3125 Z M 38.453125 -47.3125 "/></g></g></g><g fill="#597cff" fill-opacity="0.502"><g transform="translate(311.244597, 104.65101)"><g><path d="M 54.4375 -61.8125 C 52.738281 -57.0625 51.382812 -51.953125 50.375 -46.484375 C 49.363281 -41.015625 48.859375 -35.441406 48.859375 -29.765625 C 48.859375 -24.679688 49.304688 -19.609375 50.203125 -14.546875 C 51.109375 -9.492188 52.519531 -4.644531 54.4375 0 L 34.265625 0 L 41.40625 -27.296875 L 39.59375 -27.296875 C 38.78125 -23.472656 37.523438 -19.851562 35.828125 -16.4375 C 34.128906 -13.019531 32.09375 -10.015625 29.71875 -7.421875 C 27.34375 -4.828125 24.632812 -2.773438 21.59375 -1.265625 C 18.5625 0.234375 15.269531 0.984375 11.71875 0.984375 C 8.9375 0.984375 7.066406 0.4375 6.109375 -0.65625 C 5.148438 -1.75 4.671875 -3.390625 4.671875 -5.578125 C 4.671875 -7.378906 4.875 -9.535156 5.28125 -12.046875 C 5.695312 -14.566406 6.09375 -17.453125 6.46875 -20.703125 C 6.851562 -23.953125 7.046875 -27.519531 7.046875 -31.40625 C 7.046875 -35.71875 6.648438 -40.398438 5.859375 -45.453125 C 5.066406 -50.515625 3.578125 -55.96875 1.390625 -61.8125 L 22.875 -61.8125 C 23.800781 -59.957031 24.484375 -58.128906 24.921875 -56.328125 C 25.359375 -54.523438 25.578125 -52.75 25.578125 -51 C 25.578125 -47.820312 25.039062 -44.796875 23.96875 -41.921875 C 22.90625 -39.054688 21.582031 -36.351562 20 -33.8125 C 18.414062 -31.269531 16.816406 -28.90625 15.203125 -26.71875 C 13.597656 -24.539062 12.257812 -22.585938 11.1875 -20.859375 C 10.125 -19.140625 9.59375 -17.648438 9.59375 -16.390625 C 9.59375 -15.515625 9.820312 -14.898438 10.28125 -14.546875 C 10.75 -14.191406 11.421875 -14.015625 12.296875 -14.015625 C 13.773438 -14.015625 15.742188 -14.4375 18.203125 -15.28125 C 20.660156 -16.132812 23.269531 -17.363281 26.03125 -18.96875 C 28.789062 -20.582031 31.398438 -22.550781 33.859375 -24.875 C 36.316406 -27.195312 38.320312 -29.847656 39.875 -32.828125 C 41.4375 -35.804688 42.21875 -39.101562 42.21875 -42.71875 C 42.21875 -45.5625 41.613281 -48.578125 40.40625 -51.765625 C 39.207031 -54.960938 37.160156 -58.3125 34.265625 -61.8125 Z M 54.4375 -61.8125 "/></g></g></g><g fill="#597cff" fill-opacity="0.502"><g transform="translate(367.320445, 104.65101)"><g><path d="M 1.71875 0 C 3.46875 -4.75 4.832031 -9.867188 5.8125 -15.359375 C 6.800781 -20.859375 7.296875 -26.425781 7.296875 -32.0625 C 7.296875 -37.144531 6.84375 -42.210938 5.9375 -47.265625 C 5.039062 -52.316406 3.632812 -57.164062 1.71875 -61.8125 L 45.828125 -61.8125 L 45.828125 -40.828125 C 45.222656 -41.097656 44.113281 -41.570312 42.5 -42.25 C 40.894531 -42.9375 39 -43.675781 36.8125 -44.46875 C 34.625 -45.269531 32.367188 -45.941406 30.046875 -46.484375 C 27.722656 -47.035156 25.550781 -47.3125 23.53125 -47.3125 C 21.882812 -47.3125 20.488281 -46.75 19.34375 -45.625 C 18.195312 -44.5 17.253906 -43.101562 16.515625 -41.4375 C 15.773438 -39.769531 15.238281 -38.046875 14.90625 -36.265625 C 14.582031 -34.492188 14.421875 -32.953125 14.421875 -31.640625 C 14.421875 -30.609375 14.597656 -29.882812 14.953125 -29.46875 C 15.316406 -29.0625 15.851562 -28.859375 16.5625 -28.859375 C 17.488281 -28.859375 18.617188 -29.144531 19.953125 -29.71875 C 21.296875 -30.289062 22.800781 -30.957031 24.46875 -31.71875 C 26.132812 -32.488281 27.867188 -33.160156 29.671875 -33.734375 C 31.484375 -34.304688 33.257812 -34.59375 35 -34.59375 C 35.332031 -34.59375 35.648438 -34.578125 35.953125 -34.546875 C 36.253906 -34.523438 36.566406 -34.488281 36.890625 -34.4375 L 36.890625 -22.953125 C 33.234375 -24.097656 29.804688 -25.050781 26.609375 -25.8125 C 23.410156 -26.582031 19.953125 -26.96875 16.234375 -26.96875 L 13.6875 -26.96875 L 13.6875 -23.9375 C 13.6875 -19.457031 14.257812 -15.234375 15.40625 -11.265625 C 16.5625 -7.304688 18.722656 -3.550781 21.890625 0 Z M 1.71875 0 "/></g></g></g><g fill="#597cff" fill-opacity="0.502"><g transform="translate(413.558422, 104.65101)"><g><path d="M 1.71875 0 C 3.46875 -4.75 4.832031 -9.867188 5.8125 -15.359375 C 6.800781 -20.859375 7.296875 -26.425781 7.296875 -32.0625 C 7.296875 -37.144531 6.84375 -42.210938 5.9375 -47.265625 C 5.039062 -52.316406 3.632812 -57.164062 1.71875 -61.8125 L 45.828125 -61.8125 L 45.828125 -40.828125 C 45.222656 -41.097656 44.113281 -41.570312 42.5 -42.25 C 40.894531 -42.9375 39 -43.675781 36.8125 -44.46875 C 34.625 -45.269531 32.367188 -45.941406 30.046875 -46.484375 C 27.722656 -47.035156 25.550781 -47.3125 23.53125 -47.3125 C 21.882812 -47.3125 20.488281 -46.75 19.34375 -45.625 C 18.195312 -44.5 17.253906 -43.101562 16.515625 -41.4375 C 15.773438 -39.769531 15.238281 -38.046875 14.90625 -36.265625 C 14.582031 -34.492188 14.421875 -32.953125 14.421875 -31.640625 C 14.421875 -30.609375 14.597656 -29.882812 14.953125 -29.46875 C 15.316406 -29.0625 15.851562 -28.859375 16.5625 -28.859375 C 17.488281 -28.859375 18.617188 -29.144531 19.953125 -29.71875 C 21.296875 -30.289062 22.800781 -30.957031 24.46875 -31.71875 C 26.132812 -32.488281 27.867188 -33.160156 29.671875 -33.734375 C 31.484375 -34.304688 33.257812 -34.59375 35 -34.59375 C 35.332031 -34.59375 35.648438 -34.578125 35.953125 -34.546875 C 36.253906 -34.523438 36.566406 -34.488281 36.890625 -34.4375 L 36.890625 -22.953125 C 33.234375 -24.097656 29.804688 -25.050781 26.609375 -25.8125 C 23.410156 -26.582031 19.953125 -26.96875 16.234375 -26.96875 L 13.6875 -26.96875 L 13.6875 -23.9375 C 13.6875 -19.457031 14.257812 -15.234375 15.40625 -11.265625 C 16.5625 -7.304688 18.722656 -3.550781 21.890625 0 Z M 1.71875 0 "/></g></g></g><g fill="#597cff" fill-opacity="0.502"><g transform="translate(459.7964, 104.65101)"><g/></g></g><g fill="#597cff" fill-opacity="0.502"><g transform="translate(481.111787, 104.65101)"><g><path d="M 1.71875 -29.515625 L 1.71875 -34.4375 L 15.90625 -34.4375 L 15.90625 -48.78125 L 21.15625 -48.78125 L 21.15625 -34.4375 L 35.328125 -34.4375 L 35.328125 -29.515625 L 21.15625 -29.515625 L 21.15625 -15.171875 L 15.90625 -15.171875 L 15.90625 -29.515625 Z M 1.71875 -29.515625 "/></g></g></g><g fill="#597cff" fill-opacity="0.502"><g transform="translate(518.08576, 104.65101)"><g/></g></g><g fill="#597cff" fill-opacity="0.502"><g transform="translate(539.401148, 104.65101)"><g><path d="M -1.234375 0 C -0.0859375 -3.0625 1.179688 -6.285156 2.578125 -9.671875 C 3.972656 -13.054688 5.351562 -16.566406 6.71875 -20.203125 C 8.082031 -23.835938 9.234375 -27.488281 10.171875 -31.15625 C 11.148438 -35.09375 11.640625 -39.132812 11.640625 -43.28125 C 11.640625 -47 11.253906 -50.5 10.484375 -53.78125 C 9.722656 -57.0625 8.632812 -59.738281 7.21875 -61.8125 L 42.953125 -61.8125 C 42.953125 -53.726562 43.347656 -46.117188 44.140625 -38.984375 C 44.941406 -31.847656 46.296875 -25.054688 48.203125 -18.609375 C 50.117188 -12.160156 52.796875 -5.957031 56.234375 0 L 27.953125 0 C 26.265625 -2.726562 25.0625 -5.320312 24.34375 -7.78125 C 23.632812 -10.25 23.28125 -12.570312 23.28125 -14.75 C 23.28125 -17.976562 23.894531 -20.914062 25.125 -23.5625 C 26.351562 -26.21875 27.867188 -28.640625 29.671875 -30.828125 C 31.484375 -33.015625 33.273438 -34.984375 35.046875 -36.734375 C 36.828125 -38.484375 38.332031 -40.039062 39.5625 -41.40625 C 40.789062 -42.769531 41.40625 -44 41.40625 -45.09375 C 41.40625 -46.019531 41.035156 -46.617188 40.296875 -46.890625 C 39.554688 -47.171875 38.804688 -47.3125 38.046875 -47.3125 C 36.566406 -47.3125 34.742188 -46.984375 32.578125 -46.328125 C 30.421875 -45.671875 28.179688 -44.65625 25.859375 -43.28125 C 23.535156 -41.914062 21.363281 -40.207031 19.34375 -38.15625 C 17.320312 -36.113281 15.679688 -33.679688 14.421875 -30.859375 C 13.171875 -28.046875 12.546875 -24.835938 12.546875 -21.234375 C 12.546875 -18.222656 13.101562 -14.957031 14.21875 -11.4375 C 15.34375 -7.914062 17.160156 -4.101562 19.671875 0 Z M -1.234375 0 "/></g></g></g><g fill="#597cff" fill-opacity="0.502"><g transform="translate(594.411218, 104.65101)"><g><path d="M 1.640625 0 C 3.054688 -6.125 4.296875 -12.054688 5.359375 -17.796875 C 6.429688 -23.535156 6.96875 -29.300781 6.96875 -35.09375 C 6.96875 -39.40625 6.554688 -43.773438 5.734375 -48.203125 C 4.921875 -52.628906 3.554688 -57.164062 1.640625 -61.8125 L 20.171875 -61.8125 C 21.097656 -60.226562 21.738281 -58.613281 22.09375 -56.96875 C 22.445312 -55.332031 22.625 -53.695312 22.625 -52.0625 C 22.625 -49.21875 22.171875 -46.390625 21.265625 -43.578125 C 20.367188 -40.765625 19.265625 -38.054688 17.953125 -35.453125 C 16.640625 -32.859375 15.328125 -30.425781 14.015625 -28.15625 C 12.703125 -25.894531 11.59375 -23.859375 10.6875 -22.046875 C 9.789062 -20.242188 9.34375 -18.769531 9.34375 -17.625 C 9.34375 -16.582031 9.765625 -15.816406 10.609375 -15.328125 C 11.460938 -14.835938 12.4375 -14.523438 13.53125 -14.390625 C 14.625 -14.253906 15.550781 -14.1875 16.3125 -14.1875 C 18.332031 -14.1875 20.53125 -14.390625 22.90625 -14.796875 C 25.289062 -15.203125 27.613281 -15.71875 29.875 -16.34375 C 32.144531 -16.976562 34.15625 -17.609375 35.90625 -18.234375 C 37.65625 -18.867188 38.882812 -19.378906 39.59375 -19.765625 L 39.59375 0 Z M 1.640625 0 "/></g></g></g><g fill="#597cff" fill-opacity="0.502"><g transform="translate(634.418569, 104.65101)"><g><path d="M 1.640625 0 C 3.054688 -6.125 4.296875 -12.054688 5.359375 -17.796875 C 6.429688 -23.535156 6.96875 -29.300781 6.96875 -35.09375 C 6.96875 -39.40625 6.554688 -43.773438 5.734375 -48.203125 C 4.921875 -52.628906 3.554688 -57.164062 1.640625 -61.8125 L 20.171875 -61.8125 C 21.097656 -60.226562 21.738281 -58.613281 22.09375 -56.96875 C 22.445312 -55.332031 22.625 -53.695312 22.625 -52.0625 C 22.625 -49.21875 22.171875 -46.390625 21.265625 -43.578125 C 20.367188 -40.765625 19.265625 -38.054688 17.953125 -35.453125 C 16.640625 -32.859375 15.328125 -30.425781 14.015625 -28.15625 C 12.703125 -25.894531 11.59375 -23.859375 10.6875 -22.046875 C 9.789062 -20.242188 9.34375 -18.769531 9.34375 -17.625 C 9.34375 -16.582031 9.765625 -15.816406 10.609375 -15.328125 C 11.460938 -14.835938 12.4375 -14.523438 13.53125 -14.390625 C 14.625 -14.253906 15.550781 -14.1875 16.3125 -14.1875 C 18.332031 -14.1875 20.53125 -14.390625 22.90625 -14.796875 C 25.289062 -15.203125 27.613281 -15.71875 29.875 -16.34375 C 32.144531 -16.976562 34.15625 -17.609375 35.90625 -18.234375 C 37.65625 -18.867188 38.882812 -19.378906 39.59375 -19.765625 L 39.59375 0 Z M 1.640625 0 "/></g></g></g><g fill="#597cff" fill-opacity="0.502"><g transform="translate(674.42592, 104.65101)"><g/></g></g><g fill="#597cff" fill-opacity="0.502"><g transform="translate(695.741307, 104.65101)"><g><path d="M 1.640625 0 C 3.054688 -6.125 4.296875 -12.054688 5.359375 -17.796875 C 6.429688 -23.535156 6.96875 -29.300781 6.96875 -35.09375 C 6.96875 -39.40625 6.554688 -43.773438 5.734375 -48.203125 C 4.921875 -52.628906 3.554688 -57.164062 1.640625 -61.8125 L 20.171875 -61.8125 C 21.097656 -60.226562 21.738281 -58.613281 22.09375 -56.96875 C 22.445312 -55.332031 22.625 -53.695312 22.625 -52.0625 C 22.625 -49.21875 22.171875 -46.390625 21.265625 -43.578125 C 20.367188 -40.765625 19.265625 -38.054688 17.953125 -35.453125 C 16.640625 -32.859375 15.328125 -30.425781 14.015625 -28.15625 C 12.703125 -25.894531 11.59375 -23.859375 10.6875 -22.046875 C 9.789062 -20.242188 9.34375 -18.769531 9.34375 -17.625 C 9.34375 -16.582031 9.765625 -15.816406 10.609375 -15.328125 C 11.460938 -14.835938 12.4375 -14.523438 13.53125 -14.390625 C 14.625 -14.253906 15.550781 -14.1875 16.3125 -14.1875 C 18.332031 -14.1875 20.53125 -14.390625 22.90625 -14.796875 C 25.289062 -15.203125 27.613281 -15.71875 29.875 -16.34375 C 32.144531 -16.976562 34.15625 -17.609375 35.90625 -18.234375 C 37.65625 -18.867188 38.882812 -19.378906 39.59375 -19.765625 L 39.59375 0 Z M 1.640625 0 "/></g></g></g><g fill="#597cff" fill-opacity="0.502"><g transform="translate(735.748658, 104.65101)"><g><path d="M 27.46875 0.984375 C 23.09375 0.984375 19.265625 0.0820312 15.984375 -1.71875 C 12.703125 -3.519531 9.984375 -5.953125 7.828125 -9.015625 C 5.671875 -12.078125 4.046875 -15.492188 2.953125 -19.265625 C 1.859375 -23.035156 1.3125 -26.914062 1.3125 -30.90625 C 1.3125 -34.894531 1.859375 -38.785156 2.953125 -42.578125 C 4.046875 -46.378906 5.671875 -49.796875 7.828125 -52.828125 C 9.984375 -55.867188 12.703125 -58.289062 15.984375 -60.09375 C 19.265625 -61.894531 23.09375 -62.796875 27.46875 -62.796875 C 31.84375 -62.796875 35.664062 -61.894531 38.9375 -60.09375 C 42.21875 -58.289062 44.953125 -55.867188 47.140625 -52.828125 C 49.328125 -49.796875 50.96875 -46.378906 52.0625 -42.578125 C 53.15625 -38.785156 53.703125 -34.894531 53.703125 -30.90625 C 53.703125 -26.914062 53.15625 -23.035156 52.0625 -19.265625 C 50.96875 -15.492188 49.328125 -12.078125 47.140625 -9.015625 C 44.953125 -5.953125 42.21875 -3.519531 38.9375 -1.71875 C 35.664062 0.0820312 31.84375 0.984375 27.46875 0.984375 Z M 42.796875 -47.3125 C 41.046875 -47.3125 38.925781 -46.875 36.4375 -46 C 33.957031 -45.125 31.347656 -43.929688 28.609375 -42.421875 C 25.878906 -40.921875 23.203125 -39.210938 20.578125 -37.296875 C 17.953125 -35.390625 15.570312 -33.382812 13.4375 -31.28125 C 11.3125 -29.175781 9.601562 -27.082031 8.3125 -25 C 7.03125 -22.925781 6.390625 -20.988281 6.390625 -19.1875 C 6.390625 -17.488281 6.960938 -16.285156 8.109375 -15.578125 C 9.265625 -14.867188 10.609375 -14.515625 12.140625 -14.515625 C 13.941406 -14.515625 16.070312 -14.953125 18.53125 -15.828125 C 20.988281 -16.703125 23.582031 -17.890625 26.3125 -19.390625 C 29.050781 -20.890625 31.726562 -22.59375 34.34375 -24.5 C 36.96875 -26.414062 39.359375 -28.425781 41.515625 -30.53125 C 43.679688 -32.644531 45.40625 -34.753906 46.6875 -36.859375 C 47.96875 -38.960938 48.609375 -40.914062 48.609375 -42.71875 C 48.609375 -44.40625 48.019531 -45.59375 46.84375 -46.28125 C 45.675781 -46.96875 44.328125 -47.3125 42.796875 -47.3125 Z M 42.796875 -47.3125 "/></g></g></g><g fill="#597cff" fill-opacity="0.502"><g transform="translate(790.676771, 104.65101)"><g><path d="M 12.046875 0 C 12.046875 -8.09375 11.660156 -15.71875 10.890625 -22.875 C 10.128906 -30.03125 8.78125 -36.816406 6.84375 -43.234375 C 4.90625 -49.660156 2.210938 -55.851562 -1.234375 -61.8125 L 27.140625 -61.8125 C 28.773438 -59.082031 29.960938 -56.488281 30.703125 -54.03125 C 31.441406 -51.570312 31.8125 -49.25 31.8125 -47.0625 C 31.8125 -43.832031 31.195312 -40.890625 29.96875 -38.234375 C 28.738281 -35.585938 27.234375 -33.171875 25.453125 -30.984375 C 23.679688 -28.796875 21.890625 -26.828125 20.078125 -25.078125 C 18.273438 -23.335938 16.757812 -21.78125 15.53125 -20.40625 C 14.300781 -19.039062 13.6875 -17.8125 13.6875 -16.71875 C 13.6875 -15.789062 14.039062 -15.191406 14.75 -14.921875 C 15.46875 -14.648438 16.207031 -14.515625 16.96875 -14.515625 C 18.445312 -14.515625 20.265625 -14.84375 22.421875 -15.5 C 24.578125 -16.15625 26.816406 -17.164062 29.140625 -18.53125 C 31.460938 -19.894531 33.632812 -21.601562 35.65625 -23.65625 C 37.6875 -25.707031 39.328125 -28.140625 40.578125 -30.953125 C 41.835938 -33.765625 42.46875 -36.972656 42.46875 -40.578125 C 42.46875 -43.585938 41.921875 -46.851562 40.828125 -50.375 C 39.734375 -53.90625 37.898438 -57.71875 35.328125 -61.8125 L 56.234375 -61.8125 C 55.140625 -58.8125 53.882812 -55.601562 52.46875 -52.1875 C 51.050781 -48.769531 49.65625 -45.242188 48.28125 -41.609375 C 46.914062 -37.972656 45.769531 -34.320312 44.84375 -30.65625 C 43.863281 -26.726562 43.375 -22.6875 43.375 -18.53125 C 43.375 -14.863281 43.753906 -11.375 44.515625 -8.0625 C 45.285156 -4.757812 46.378906 -2.070312 47.796875 0 Z M 12.046875 0 "/></g></g></g><g fill="#597cff" fill-opacity="0.502"><g transform="translate(845.686884, 104.65101)"><g><path d="M 1.640625 0 C 3.390625 -4.75 4.753906 -9.867188 5.734375 -15.359375 C 6.722656 -20.859375 7.21875 -26.425781 7.21875 -32.0625 C 7.21875 -37.144531 6.765625 -42.210938 5.859375 -47.265625 C 4.960938 -52.316406 3.554688 -57.164062 1.640625 -61.8125 L 46.5625 -61.8125 L 46.5625 -40.828125 C 45.96875 -41.097656 44.820312 -41.585938 43.125 -42.296875 C 41.425781 -43.015625 39.429688 -43.78125 37.140625 -44.59375 C 34.847656 -45.414062 32.5 -46.128906 30.09375 -46.734375 C 27.6875 -47.335938 25.472656 -47.640625 23.453125 -47.640625 C 21.804688 -47.640625 20.410156 -47.0625 19.265625 -45.90625 C 18.117188 -44.757812 17.175781 -43.328125 16.4375 -41.609375 C 15.695312 -39.890625 15.160156 -38.125 14.828125 -36.3125 C 14.503906 -34.507812 14.34375 -32.953125 14.34375 -31.640625 C 14.34375 -30.609375 14.519531 -29.882812 14.875 -29.46875 C 15.226562 -29.0625 15.765625 -28.859375 16.484375 -28.859375 C 17.410156 -28.859375 18.539062 -29.144531 19.875 -29.71875 C 21.21875 -30.289062 22.722656 -30.957031 24.390625 -31.71875 C 26.054688 -32.488281 27.789062 -33.160156 29.59375 -33.734375 C 31.394531 -34.304688 33.171875 -34.59375 34.921875 -34.59375 C 35.191406 -34.59375 35.488281 -34.578125 35.8125 -34.546875 C 36.144531 -34.523438 36.476562 -34.488281 36.8125 -34.4375 L 36.8125 -22.953125 C 32.769531 -24.210938 29.09375 -25.222656 25.78125 -25.984375 C 22.476562 -26.753906 19.378906 -27.140625 16.484375 -27.140625 C 15.609375 -26.097656 14.757812 -24.945312 13.9375 -23.6875 C 13.113281 -22.4375 12.425781 -21.234375 11.875 -20.078125 C 11.332031 -18.929688 11.0625 -17.953125 11.0625 -17.140625 C 11.0625 -16.421875 11.390625 -15.84375 12.046875 -15.40625 C 12.703125 -14.96875 13.507812 -14.640625 14.46875 -14.421875 C 15.425781 -14.203125 16.34375 -14.066406 17.21875 -14.015625 C 18.09375 -13.960938 18.773438 -13.9375 19.265625 -13.9375 C 21.503906 -13.9375 24.207031 -14.164062 27.375 -14.625 C 30.550781 -15.09375 33.832031 -15.765625 37.21875 -16.640625 C 40.601562 -17.515625 43.71875 -18.554688 46.5625 -19.765625 L 46.5625 0 Z M 1.640625 0 "/></g></g></g><g fill="#72bf78" fill-opacity="1"><g transform="translate(3.303102, 101.027562)"><g><path d="M 47.140625 20.5 C 42.441406 20.5 37.847656 19.457031 33.359375 17.375 C 28.878906 15.300781 24.710938 12.5 20.859375 8.96875 C 17.003906 5.445312 13.601562 1.472656 10.65625 -2.953125 C 7.707031 -7.378906 5.410156 -11.992188 3.765625 -16.796875 C 2.128906 -21.609375 1.3125 -26.3125 1.3125 -30.90625 C 1.3125 -34.894531 1.859375 -38.773438 2.953125 -42.546875 C 4.046875 -46.316406 5.671875 -49.734375 7.828125 -52.796875 C 9.984375 -55.859375 12.703125 -58.289062 15.984375 -60.09375 C 19.265625 -61.894531 23.09375 -62.796875 27.46875 -62.796875 C 31.84375 -62.796875 35.664062 -61.894531 38.9375 -60.09375 C 42.21875 -58.289062 44.953125 -55.867188 47.140625 -52.828125 C 49.328125 -49.796875 50.96875 -46.378906 52.0625 -42.578125 C 53.15625 -38.785156 53.703125 -34.894531 53.703125 -30.90625 C 53.703125 -26.914062 53.15625 -23.035156 52.0625 -19.265625 C 50.96875 -15.492188 49.328125 -12.078125 47.140625 -9.015625 C 44.953125 -5.953125 42.21875 -3.519531 38.9375 -1.71875 C 35.664062 0.0820312 31.84375 0.984375 27.46875 0.984375 C 26.863281 0.984375 26 0.925781 24.875 0.8125 C 23.757812 0.707031 22.65625 0.546875 21.5625 0.328125 C 20.582031 1.367188 20.09375 2.296875 20.09375 3.109375 C 20.09375 3.929688 20.582031 4.535156 21.5625 4.921875 C 22.539062 5.304688 23.828125 5.5 25.421875 5.5 C 27.378906 5.5 29.628906 5.238281 32.171875 4.71875 C 34.710938 4.195312 37.304688 3.441406 39.953125 2.453125 C 42.609375 1.472656 45.003906 0.328125 47.140625 -0.984375 Z M 42.796875 -47.3125 C 41.046875 -47.3125 38.925781 -46.875 36.4375 -46 C 33.957031 -45.125 31.347656 -43.929688 28.609375 -42.421875 C 25.878906 -40.921875 23.203125 -39.210938 20.578125 -37.296875 C 17.953125 -35.390625 15.570312 -33.382812 13.4375 -31.28125 C 11.3125 -29.175781 9.601562 -27.082031 8.3125 -25 C 7.03125 -22.925781 6.390625 -20.988281 6.390625 -19.1875 C 6.390625 -17.488281 6.960938 -16.285156 8.109375 -15.578125 C 9.265625 -14.867188 10.609375 -14.515625 12.140625 -14.515625 C 13.941406 -14.515625 16.070312 -14.953125 18.53125 -15.828125 C 20.988281 -16.703125 23.582031 -17.890625 26.3125 -19.390625 C 29.050781 -20.890625 31.726562 -22.59375 34.34375 -24.5 C 36.96875 -26.414062 39.359375 -28.425781 41.515625 -30.53125 C 43.679688 -32.644531 45.40625 -34.753906 46.6875 -36.859375 C 47.96875 -38.960938 48.609375 -40.914062 48.609375 -42.71875 C 48.609375 -44.40625 48.019531 -45.59375 46.84375 -46.28125 C 45.675781 -46.96875 44.328125 -47.3125 42.796875 -47.3125 Z M 42.796875 -47.3125 "/></g></g></g><g fill="#72bf78" fill-opacity="1"><g transform="translate(57.657327, 101.027562)"><g><path d="M 54.4375 -61.8125 C 52.738281 -57.0625 51.382812 -51.953125 50.375 -46.484375 C 49.363281 -41.015625 48.859375 -35.441406 48.859375 -29.765625 C 48.859375 -24.679688 49.304688 -19.609375 50.203125 -14.546875 C 51.109375 -9.492188 52.519531 -4.644531 54.4375 0 L 34.265625 0 L 41.40625 -27.296875 L 39.59375 -27.296875 C 38.78125 -23.472656 37.523438 -19.851562 35.828125 -16.4375 C 34.128906 -13.019531 32.09375 -10.015625 29.71875 -7.421875 C 27.34375 -4.828125 24.632812 -2.773438 21.59375 -1.265625 C 18.5625 0.234375 15.269531 0.984375 11.71875 0.984375 C 8.9375 0.984375 7.066406 0.4375 6.109375 -0.65625 C 5.148438 -1.75 4.671875 -3.390625 4.671875 -5.578125 C 4.671875 -7.378906 4.875 -9.535156 5.28125 -12.046875 C 5.695312 -14.566406 6.09375 -17.453125 6.46875 -20.703125 C 6.851562 -23.953125 7.046875 -27.519531 7.046875 -31.40625 C 7.046875 -35.71875 6.648438 -40.398438 5.859375 -45.453125 C 5.066406 -50.515625 3.578125 -55.96875 1.390625 -61.8125 L 22.875 -61.8125 C 23.800781 -59.957031 24.484375 -58.128906 24.921875 -56.328125 C 25.359375 -54.523438 25.578125 -52.75 25.578125 -51 C 25.578125 -47.820312 25.039062 -44.796875 23.96875 -41.921875 C 22.90625 -39.054688 21.582031 -36.351562 20 -33.8125 C 18.414062 -31.269531 16.816406 -28.90625 15.203125 -26.71875 C 13.597656 -24.539062 12.257812 -22.585938 11.1875 -20.859375 C 10.125 -19.140625 9.59375 -17.648438 9.59375 -16.390625 C 9.59375 -15.515625 9.820312 -14.898438 10.28125 -14.546875 C 10.75 -14.191406 11.421875 -14.015625 12.296875 -14.015625 C 13.773438 -14.015625 15.742188 -14.4375 18.203125 -15.28125 C 20.660156 -16.132812 23.269531 -17.363281 26.03125 -18.96875 C 28.789062 -20.582031 31.398438 -22.550781 33.859375 -24.875 C 36.316406 -27.195312 38.320312 -29.847656 39.875 -32.828125 C 41.4375 -35.804688 42.21875 -39.101562 42.21875 -42.71875 C 42.21875 -45.5625 41.613281 -48.578125 40.40625 -51.765625 C 39.207031 -54.960938 37.160156 -58.3125 34.265625 -61.8125 Z M 54.4375 -61.8125 "/></g></g></g><g fill="#72bf78" fill-opacity="1"><g transform="translate(113.733175, 101.027562)"><g><path d="M 1.71875 0 C 3.46875 -4.75 4.820312 -9.867188 5.78125 -15.359375 C 6.738281 -20.859375 7.21875 -26.425781 7.21875 -32.0625 C 7.21875 -37.144531 6.78125 -42.210938 5.90625 -47.265625 C 5.03125 -52.316406 3.632812 -57.164062 1.71875 -61.8125 L 20.25 -61.8125 C 18.550781 -57.0625 17.195312 -51.953125 16.1875 -46.484375 C 15.175781 -41.015625 14.671875 -35.441406 14.671875 -29.765625 C 14.671875 -24.679688 15.117188 -19.609375 16.015625 -14.546875 C 16.921875 -9.492188 18.332031 -4.644531 20.25 0 Z M 1.71875 0 "/></g></g></g><g fill="#72bf78" fill-opacity="1"><g transform="translate(135.62243, 101.027562)"><g><path d="M 34.34375 0.984375 C 28.882812 0.984375 24.0625 0.0820312 19.875 -1.71875 C 15.695312 -3.519531 12.203125 -5.953125 9.390625 -9.015625 C 6.578125 -12.078125 4.441406 -15.519531 2.984375 -19.34375 C 1.535156 -23.175781 0.8125 -27.085938 0.8125 -31.078125 C 0.8125 -35.003906 1.519531 -38.851562 2.9375 -42.625 C 4.363281 -46.394531 6.539062 -49.796875 9.46875 -52.828125 C 12.394531 -55.867188 16.070312 -58.289062 20.5 -60.09375 C 24.925781 -61.894531 30.144531 -62.796875 36.15625 -62.796875 C 37.738281 -62.796875 39.304688 -62.695312 40.859375 -62.5 C 42.421875 -62.3125 43.96875 -62.082031 45.5 -61.8125 L 45.5 -45.578125 C 42.21875 -45.578125 38.773438 -44.945312 35.171875 -43.6875 C 31.566406 -42.4375 28.054688 -40.785156 24.640625 -38.734375 C 21.222656 -36.679688 18.132812 -34.453125 15.375 -32.046875 C 12.613281 -29.648438 10.410156 -27.300781 8.765625 -25 C 7.128906 -22.707031 6.3125 -20.6875 6.3125 -18.9375 C 6.3125 -17.625 6.757812 -16.625 7.65625 -15.9375 C 8.5625 -15.257812 9.644531 -14.8125 10.90625 -14.59375 C 12.164062 -14.375 13.285156 -14.265625 14.265625 -14.265625 C 16.554688 -14.265625 19.164062 -14.550781 22.09375 -15.125 C 25.019531 -15.695312 28.09375 -16.460938 31.3125 -17.421875 C 34.539062 -18.378906 37.78125 -19.414062 41.03125 -20.53125 C 44.28125 -21.65625 47.351562 -22.765625 50.25 -23.859375 L 50.25 0 C 47.46875 0.382812 44.765625 0.644531 42.140625 0.78125 C 39.515625 0.914062 36.914062 0.984375 34.34375 0.984375 Z M 34.34375 0.984375 "/></g></g></g><g fill="#72bf78" fill-opacity="1"><g transform="translate(187.271232, 101.027562)"><g><path d="M 1.640625 0 C 3.390625 -4.75 4.753906 -9.867188 5.734375 -15.359375 C 6.722656 -20.859375 7.21875 -26.425781 7.21875 -32.0625 C 7.21875 -37.144531 6.765625 -42.210938 5.859375 -47.265625 C 4.960938 -52.316406 3.554688 -57.164062 1.640625 -61.8125 L 20.171875 -61.8125 C 18.367188 -56.789062 16.988281 -51.597656 16.03125 -46.234375 C 15.070312 -40.878906 14.59375 -35.5 14.59375 -30.09375 C 14.59375 -26.207031 14.835938 -22.378906 15.328125 -18.609375 C 15.984375 -20.140625 17.117188 -21.789062 18.734375 -23.5625 C 20.347656 -25.34375 22.03125 -27.3125 23.78125 -29.46875 C 25.53125 -31.632812 27.03125 -34.066406 28.28125 -36.765625 C 29.539062 -39.472656 30.171875 -42.519531 30.171875 -45.90625 C 30.171875 -48.207031 29.800781 -50.679688 29.0625 -53.328125 C 28.320312 -55.984375 27.050781 -58.8125 25.25 -61.8125 L 47.140625 -61.8125 C 48.398438 -59.351562 49.03125 -56.867188 49.03125 -54.359375 C 49.03125 -51.460938 48.289062 -48.671875 46.8125 -45.984375 C 45.332031 -43.304688 43.445312 -40.78125 41.15625 -38.40625 C 38.863281 -36.03125 36.40625 -33.789062 33.78125 -31.6875 C 31.15625 -29.582031 28.691406 -27.628906 26.390625 -25.828125 C 24.097656 -24.023438 22.210938 -22.398438 20.734375 -20.953125 C 19.265625 -19.503906 18.53125 -18.234375 18.53125 -17.140625 C 18.53125 -16.316406 18.910156 -15.6875 19.671875 -15.25 C 20.441406 -14.8125 21.316406 -14.507812 22.296875 -14.34375 C 23.285156 -14.175781 24.078125 -14.09375 24.671875 -14.09375 C 26.691406 -14.09375 28.929688 -14.351562 31.390625 -14.875 C 33.859375 -15.394531 36.289062 -16.023438 38.6875 -16.765625 C 41.09375 -17.503906 43.222656 -18.226562 45.078125 -18.9375 C 46.941406 -19.644531 48.257812 -20.164062 49.03125 -20.5 L 49.03125 0 C 48.476562 0.21875 47.546875 0.4375 46.234375 0.65625 C 44.921875 0.875 43.554688 0.984375 42.140625 0.984375 C 39.242188 0.984375 36.222656 0.492188 33.078125 -0.484375 C 29.929688 -1.472656 26.925781 -2.960938 24.0625 -4.953125 C 21.195312 -6.953125 18.640625 -9.398438 16.390625 -12.296875 C 16.828125 -10.328125 17.398438 -8.234375 18.109375 -6.015625 C 18.828125 -3.804688 19.515625 -1.800781 20.171875 0 Z M 1.640625 0 "/></g></g></g><g fill="#72bf78" fill-opacity="1"><g transform="translate(236.706521, 101.027562)"><g/></g></g><g fill="#72bf78" fill-opacity="1"><g transform="translate(258.021909, 101.027562)"><g><path d="M 1.71875 0 C 3.46875 -4.75 4.832031 -9.867188 5.8125 -15.359375 C 6.800781 -20.859375 7.296875 -26.425781 7.296875 -32.0625 C 7.296875 -37.144531 6.84375 -42.210938 5.9375 -47.265625 C 5.039062 -52.316406 3.632812 -57.164062 1.71875 -61.8125 C 3.738281 -62.03125 6.0625 -62.207031 8.6875 -62.34375 C 11.3125 -62.476562 13.8125 -62.585938 16.1875 -62.671875 C 18.570312 -62.753906 20.390625 -62.796875 21.640625 -62.796875 C 27.765625 -62.796875 32.832031 -61.8125 36.84375 -59.84375 C 40.863281 -57.875 43.882812 -55.347656 45.90625 -52.265625 C 47.925781 -49.179688 48.9375 -45.941406 48.9375 -42.546875 C 48.9375 -39.265625 47.96875 -36.117188 46.03125 -33.109375 C 44.09375 -30.109375 41.207031 -27.648438 37.375 -25.734375 C 33.550781 -23.828125 28.742188 -22.875 22.953125 -22.875 L 13.609375 -22.875 C 13.609375 -18.226562 14.332031 -14.019531 15.78125 -10.25 C 17.226562 -6.476562 19.265625 -3.0625 21.890625 0 Z M 38.453125 -47.3125 C 37.242188 -47.3125 35.75 -46.953125 33.96875 -46.234375 C 32.195312 -45.523438 30.351562 -44.597656 28.4375 -43.453125 C 26.53125 -42.304688 24.726562 -41.019531 23.03125 -39.59375 C 21.34375 -38.175781 19.960938 -36.753906 18.890625 -35.328125 C 17.828125 -33.910156 17.296875 -32.601562 17.296875 -31.40625 C 17.296875 -29.757812 18.363281 -28.9375 20.5 -28.9375 C 21.695312 -28.9375 23.171875 -29.289062 24.921875 -30 C 26.671875 -30.71875 28.515625 -31.648438 30.453125 -32.796875 C 32.398438 -33.941406 34.207031 -35.222656 35.875 -36.640625 C 37.539062 -38.066406 38.90625 -39.488281 39.96875 -40.90625 C 41.03125 -42.332031 41.5625 -43.644531 41.5625 -44.84375 C 41.5625 -46.488281 40.523438 -47.3125 38.453125 -47.3125 Z M 38.453125 -47.3125 "/></g></g></g><g fill="#72bf78" fill-opacity="1"><g transform="translate(307.621154, 101.027562)"><g><path d="M 54.4375 -61.8125 C 52.738281 -57.0625 51.382812 -51.953125 50.375 -46.484375 C 49.363281 -41.015625 48.859375 -35.441406 48.859375 -29.765625 C 48.859375 -24.679688 49.304688 -19.609375 50.203125 -14.546875 C 51.109375 -9.492188 52.519531 -4.644531 54.4375 0 L 34.265625 0 L 41.40625 -27.296875 L 39.59375 -27.296875 C 38.78125 -23.472656 37.523438 -19.851562 35.828125 -16.4375 C 34.128906 -13.019531 32.09375 -10.015625 29.71875 -7.421875 C 27.34375 -4.828125 24.632812 -2.773438 21.59375 -1.265625 C 18.5625 0.234375 15.269531 0.984375 11.71875 0.984375 C 8.9375 0.984375 7.066406 0.4375 6.109375 -0.65625 C 5.148438 -1.75 4.671875 -3.390625 4.671875 -5.578125 C 4.671875 -7.378906 4.875 -9.535156 5.28125 -12.046875 C 5.695312 -14.566406 6.09375 -17.453125 6.46875 -20.703125 C 6.851562 -23.953125 7.046875 -27.519531 7.046875 -31.40625 C 7.046875 -35.71875 6.648438 -40.398438 5.859375 -45.453125 C 5.066406 -50.515625 3.578125 -55.96875 1.390625 -61.8125 L 22.875 -61.8125 C 23.800781 -59.957031 24.484375 -58.128906 24.921875 -56.328125 C 25.359375 -54.523438 25.578125 -52.75 25.578125 -51 C 25.578125 -47.820312 25.039062 -44.796875 23.96875 -41.921875 C 22.90625 -39.054688 21.582031 -36.351562 20 -33.8125 C 18.414062 -31.269531 16.816406 -28.90625 15.203125 -26.71875 C 13.597656 -24.539062 12.257812 -22.585938 11.1875 -20.859375 C 10.125 -19.140625 9.59375 -17.648438 9.59375 -16.390625 C 9.59375 -15.515625 9.820312 -14.898438 10.28125 -14.546875 C 10.75 -14.191406 11.421875 -14.015625 12.296875 -14.015625 C 13.773438 -14.015625 15.742188 -14.4375 18.203125 -15.28125 C 20.660156 -16.132812 23.269531 -17.363281 26.03125 -18.96875 C 28.789062 -20.582031 31.398438 -22.550781 33.859375 -24.875 C 36.316406 -27.195312 38.320312 -29.847656 39.875 -32.828125 C 41.4375 -35.804688 42.21875 -39.101562 42.21875 -42.71875 C 42.21875 -45.5625 41.613281 -48.578125 40.40625 -51.765625 C 39.207031 -54.960938 37.160156 -58.3125 34.265625 -61.8125 Z M 54.4375 -61.8125 "/></g></g></g><g fill="#72bf78" fill-opacity="1"><g transform="translate(363.697002, 101.027562)"><g><path d="M 1.71875 0 C 3.46875 -4.75 4.832031 -9.867188 5.8125 -15.359375 C 6.800781 -20.859375 7.296875 -26.425781 7.296875 -32.0625 C 7.296875 -37.144531 6.84375 -42.210938 5.9375 -47.265625 C 5.039062 -52.316406 3.632812 -57.164062 1.71875 -61.8125 L 45.828125 -61.8125 L 45.828125 -40.828125 C 45.222656 -41.097656 44.113281 -41.570312 42.5 -42.25 C 40.894531 -42.9375 39 -43.675781 36.8125 -44.46875 C 34.625 -45.269531 32.367188 -45.941406 30.046875 -46.484375 C 27.722656 -47.035156 25.550781 -47.3125 23.53125 -47.3125 C 21.882812 -47.3125 20.488281 -46.75 19.34375 -45.625 C 18.195312 -44.5 17.253906 -43.101562 16.515625 -41.4375 C 15.773438 -39.769531 15.238281 -38.046875 14.90625 -36.265625 C 14.582031 -34.492188 14.421875 -32.953125 14.421875 -31.640625 C 14.421875 -30.609375 14.597656 -29.882812 14.953125 -29.46875 C 15.316406 -29.0625 15.851562 -28.859375 16.5625 -28.859375 C 17.488281 -28.859375 18.617188 -29.144531 19.953125 -29.71875 C 21.296875 -30.289062 22.800781 -30.957031 24.46875 -31.71875 C 26.132812 -32.488281 27.867188 -33.160156 29.671875 -33.734375 C 31.484375 -34.304688 33.257812 -34.59375 35 -34.59375 C 35.332031 -34.59375 35.648438 -34.578125 35.953125 -34.546875 C 36.253906 -34.523438 36.566406 -34.488281 36.890625 -34.4375 L 36.890625 -22.953125 C 33.234375 -24.097656 29.804688 -25.050781 26.609375 -25.8125 C 23.410156 -26.582031 19.953125 -26.96875 16.234375 -26.96875 L 13.6875 -26.96875 L 13.6875 -23.9375 C 13.6875 -19.457031 14.257812 -15.234375 15.40625 -11.265625 C 16.5625 -7.304688 18.722656 -3.550781 21.890625 0 Z M 1.71875 0 "/></g></g></g><g fill="#72bf78" fill-opacity="1"><g transform="translate(409.93498, 101.027562)"><g><path d="M 1.71875 0 C 3.46875 -4.75 4.832031 -9.867188 5.8125 -15.359375 C 6.800781 -20.859375 7.296875 -26.425781 7.296875 -32.0625 C 7.296875 -37.144531 6.84375 -42.210938 5.9375 -47.265625 C 5.039062 -52.316406 3.632812 -57.164062 1.71875 -61.8125 L 45.828125 -61.8125 L 45.828125 -40.828125 C 45.222656 -41.097656 44.113281 -41.570312 42.5 -42.25 C 40.894531 -42.9375 39 -43.675781 36.8125 -44.46875 C 34.625 -45.269531 32.367188 -45.941406 30.046875 -46.484375 C 27.722656 -47.035156 25.550781 -47.3125 23.53125 -47.3125 C 21.882812 -47.3125 20.488281 -46.75 19.34375 -45.625 C 18.195312 -44.5 17.253906 -43.101562 16.515625 -41.4375 C 15.773438 -39.769531 15.238281 -38.046875 14.90625 -36.265625 C 14.582031 -34.492188 14.421875 -32.953125 14.421875 -31.640625 C 14.421875 -30.609375 14.597656 -29.882812 14.953125 -29.46875 C 15.316406 -29.0625 15.851562 -28.859375 16.5625 -28.859375 C 17.488281 -28.859375 18.617188 -29.144531 19.953125 -29.71875 C 21.296875 -30.289062 22.800781 -30.957031 24.46875 -31.71875 C 26.132812 -32.488281 27.867188 -33.160156 29.671875 -33.734375 C 31.484375 -34.304688 33.257812 -34.59375 35 -34.59375 C 35.332031 -34.59375 35.648438 -34.578125 35.953125 -34.546875 C 36.253906 -34.523438 36.566406 -34.488281 36.890625 -34.4375 L 36.890625 -22.953125 C 33.234375 -24.097656 29.804688 -25.050781 26.609375 -25.8125 C 23.410156 -26.582031 19.953125 -26.96875 16.234375 -26.96875 L 13.6875 -26.96875 L 13.6875 -23.9375 C 13.6875 -19.457031 14.257812 -15.234375 15.40625 -11.265625 C 16.5625 -7.304688 18.722656 -3.550781 21.890625 0 Z M 1.71875 0 "/></g></g></g><g fill="#72bf78" fill-opacity="1"><g transform="translate(456.172957, 101.027562)"><g/></g></g><g fill="#72bf78" fill-opacity="1"><g transform="translate(477.488344, 101.027562)"><g><path d="M 1.71875 -29.515625 L 1.71875 -34.4375 L 15.90625 -34.4375 L 15.90625 -48.78125 L 21.15625 -48.78125 L 21.15625 -34.4375 L 35.328125 -34.4375 L 35.328125 -29.515625 L 21.15625 -29.515625 L 21.15625 -15.171875 L 15.90625 -15.171875 L 15.90625 -29.515625 Z M 1.71875 -29.515625 "/></g></g></g><g fill="#72bf78" fill-opacity="1"><g transform="translate(514.462317, 101.027562)"><g/></g></g><g fill="#72bf78" fill-opacity="1"><g transform="translate(535.777705, 101.027562)"><g><path d="M -1.234375 0 C -0.0859375 -3.0625 1.179688 -6.285156 2.578125 -9.671875 C 3.972656 -13.054688 5.351562 -16.566406 6.71875 -20.203125 C 8.082031 -23.835938 9.234375 -27.488281 10.171875 -31.15625 C 11.148438 -35.09375 11.640625 -39.132812 11.640625 -43.28125 C 11.640625 -47 11.253906 -50.5 10.484375 -53.78125 C 9.722656 -57.0625 8.632812 -59.738281 7.21875 -61.8125 L 42.953125 -61.8125 C 42.953125 -53.726562 43.347656 -46.117188 44.140625 -38.984375 C 44.941406 -31.847656 46.296875 -25.054688 48.203125 -18.609375 C 50.117188 -12.160156 52.796875 -5.957031 56.234375 0 L 27.953125 0 C 26.265625 -2.726562 25.0625 -5.320312 24.34375 -7.78125 C 23.632812 -10.25 23.28125 -12.570312 23.28125 -14.75 C 23.28125 -17.976562 23.894531 -20.914062 25.125 -23.5625 C 26.351562 -26.21875 27.867188 -28.640625 29.671875 -30.828125 C 31.484375 -33.015625 33.273438 -34.984375 35.046875 -36.734375 C 36.828125 -38.484375 38.332031 -40.039062 39.5625 -41.40625 C 40.789062 -42.769531 41.40625 -44 41.40625 -45.09375 C 41.40625 -46.019531 41.035156 -46.617188 40.296875 -46.890625 C 39.554688 -47.171875 38.804688 -47.3125 38.046875 -47.3125 C 36.566406 -47.3125 34.742188 -46.984375 32.578125 -46.328125 C 30.421875 -45.671875 28.179688 -44.65625 25.859375 -43.28125 C 23.535156 -41.914062 21.363281 -40.207031 19.34375 -38.15625 C 17.320312 -36.113281 15.679688 -33.679688 14.421875 -30.859375 C 13.171875 -28.046875 12.546875 -24.835938 12.546875 -21.234375 C 12.546875 -18.222656 13.101562 -14.957031 14.21875 -11.4375 C 15.34375 -7.914062 17.160156 -4.101562 19.671875 0 Z M -1.234375 0 "/></g></g></g><g fill="#72bf78" fill-opacity="1"><g transform="translate(590.787775, 101.027562)"><g><path d="M 1.640625 0 C 3.054688 -6.125 4.296875 -12.054688 5.359375 -17.796875 C 6.429688 -23.535156 6.96875 -29.300781 6.96875 -35.09375 C 6.96875 -39.40625 6.554688 -43.773438 5.734375 -48.203125 C 4.921875 -52.628906 3.554688 -57.164062 1.640625 -61.8125 L 20.171875 -61.8125 C 21.097656 -60.226562 21.738281 -58.613281 22.09375 -56.96875 C 22.445312 -55.332031 22.625 -53.695312 22.625 -52.0625 C 22.625 -49.21875 22.171875 -46.390625 21.265625 -43.578125 C 20.367188 -40.765625 19.265625 -38.054688 17.953125 -35.453125 C 16.640625 -32.859375 15.328125 -30.425781 14.015625 -28.15625 C 12.703125 -25.894531 11.59375 -23.859375 10.6875 -22.046875 C 9.789062 -20.242188 9.34375 -18.769531 9.34375 -17.625 C 9.34375 -16.582031 9.765625 -15.816406 10.609375 -15.328125 C 11.460938 -14.835938 12.4375 -14.523438 13.53125 -14.390625 C 14.625 -14.253906 15.550781 -14.1875 16.3125 -14.1875 C 18.332031 -14.1875 20.53125 -14.390625 22.90625 -14.796875 C 25.289062 -15.203125 27.613281 -15.71875 29.875 -16.34375 C 32.144531 -16.976562 34.15625 -17.609375 35.90625 -18.234375 C 37.65625 -18.867188 38.882812 -19.378906 39.59375 -19.765625 L 39.59375 0 Z M 1.640625 0 "/></g></g></g><g fill="#72bf78" fill-opacity="1"><g transform="translate(630.795126, 101.027562)"><g><path d="M 1.640625 0 C 3.054688 -6.125 4.296875 -12.054688 5.359375 -17.796875 C 6.429688 -23.535156 6.96875 -29.300781 6.96875 -35.09375 C 6.96875 -39.40625 6.554688 -43.773438 5.734375 -48.203125 C 4.921875 -52.628906 3.554688 -57.164062 1.640625 -61.8125 L 20.171875 -61.8125 C 21.097656 -60.226562 21.738281 -58.613281 22.09375 -56.96875 C 22.445312 -55.332031 22.625 -53.695312 22.625 -52.0625 C 22.625 -49.21875 22.171875 -46.390625 21.265625 -43.578125 C 20.367188 -40.765625 19.265625 -38.054688 17.953125 -35.453125 C 16.640625 -32.859375 15.328125 -30.425781 14.015625 -28.15625 C 12.703125 -25.894531 11.59375 -23.859375 10.6875 -22.046875 C 9.789062 -20.242188 9.34375 -18.769531 9.34375 -17.625 C 9.34375 -16.582031 9.765625 -15.816406 10.609375 -15.328125 C 11.460938 -14.835938 12.4375 -14.523438 13.53125 -14.390625 C 14.625 -14.253906 15.550781 -14.1875 16.3125 -14.1875 C 18.332031 -14.1875 20.53125 -14.390625 22.90625 -14.796875 C 25.289062 -15.203125 27.613281 -15.71875 29.875 -16.34375 C 32.144531 -16.976562 34.15625 -17.609375 35.90625 -18.234375 C 37.65625 -18.867188 38.882812 -19.378906 39.59375 -19.765625 L 39.59375 0 Z M 1.640625 0 "/></g></g></g><g fill="#72bf78" fill-opacity="1"><g transform="translate(670.802477, 101.027562)"><g/></g></g><g fill="#72bf78" fill-opacity="1"><g transform="translate(692.117864, 101.027562)"><g><path d="M 1.640625 0 C 3.054688 -6.125 4.296875 -12.054688 5.359375 -17.796875 C 6.429688 -23.535156 6.96875 -29.300781 6.96875 -35.09375 C 6.96875 -39.40625 6.554688 -43.773438 5.734375 -48.203125 C 4.921875 -52.628906 3.554688 -57.164062 1.640625 -61.8125 L 20.171875 -61.8125 C 21.097656 -60.226562 21.738281 -58.613281 22.09375 -56.96875 C 22.445312 -55.332031 22.625 -53.695312 22.625 -52.0625 C 22.625 -49.21875 22.171875 -46.390625 21.265625 -43.578125 C 20.367188 -40.765625 19.265625 -38.054688 17.953125 -35.453125 C 16.640625 -32.859375 15.328125 -30.425781 14.015625 -28.15625 C 12.703125 -25.894531 11.59375 -23.859375 10.6875 -22.046875 C 9.789062 -20.242188 9.34375 -18.769531 9.34375 -17.625 C 9.34375 -16.582031 9.765625 -15.816406 10.609375 -15.328125 C 11.460938 -14.835938 12.4375 -14.523438 13.53125 -14.390625 C 14.625 -14.253906 15.550781 -14.1875 16.3125 -14.1875 C 18.332031 -14.1875 20.53125 -14.390625 22.90625 -14.796875 C 25.289062 -15.203125 27.613281 -15.71875 29.875 -16.34375 C 32.144531 -16.976562 34.15625 -17.609375 35.90625 -18.234375 C 37.65625 -18.867188 38.882812 -19.378906 39.59375 -19.765625 L 39.59375 0 Z M 1.640625 0 "/></g></g></g><g fill="#72bf78" fill-opacity="1"><g transform="translate(732.125215, 101.027562)"><g><path d="M 27.46875 0.984375 C 23.09375 0.984375 19.265625 0.0820312 15.984375 -1.71875 C 12.703125 -3.519531 9.984375 -5.953125 7.828125 -9.015625 C 5.671875 -12.078125 4.046875 -15.492188 2.953125 -19.265625 C 1.859375 -23.035156 1.3125 -26.914062 1.3125 -30.90625 C 1.3125 -34.894531 1.859375 -38.785156 2.953125 -42.578125 C 4.046875 -46.378906 5.671875 -49.796875 7.828125 -52.828125 C 9.984375 -55.867188 12.703125 -58.289062 15.984375 -60.09375 C 19.265625 -61.894531 23.09375 -62.796875 27.46875 -62.796875 C 31.84375 -62.796875 35.664062 -61.894531 38.9375 -60.09375 C 42.21875 -58.289062 44.953125 -55.867188 47.140625 -52.828125 C 49.328125 -49.796875 50.96875 -46.378906 52.0625 -42.578125 C 53.15625 -38.785156 53.703125 -34.894531 53.703125 -30.90625 C 53.703125 -26.914062 53.15625 -23.035156 52.0625 -19.265625 C 50.96875 -15.492188 49.328125 -12.078125 47.140625 -9.015625 C 44.953125 -5.953125 42.21875 -3.519531 38.9375 -1.71875 C 35.664062 0.0820312 31.84375 0.984375 27.46875 0.984375 Z M 42.796875 -47.3125 C 41.046875 -47.3125 38.925781 -46.875 36.4375 -46 C 33.957031 -45.125 31.347656 -43.929688 28.609375 -42.421875 C 25.878906 -40.921875 23.203125 -39.210938 20.578125 -37.296875 C 17.953125 -35.390625 15.570312 -33.382812 13.4375 -31.28125 C 11.3125 -29.175781 9.601562 -27.082031 8.3125 -25 C 7.03125 -22.925781 6.390625 -20.988281 6.390625 -19.1875 C 6.390625 -17.488281 6.960938 -16.285156 8.109375 -15.578125 C 9.265625 -14.867188 10.609375 -14.515625 12.140625 -14.515625 C 13.941406 -14.515625 16.070312 -14.953125 18.53125 -15.828125 C 20.988281 -16.703125 23.582031 -17.890625 26.3125 -19.390625 C 29.050781 -20.890625 31.726562 -22.59375 34.34375 -24.5 C 36.96875 -26.414062 39.359375 -28.425781 41.515625 -30.53125 C 43.679688 -32.644531 45.40625 -34.753906 46.6875 -36.859375 C 47.96875 -38.960938 48.609375 -40.914062 48.609375 -42.71875 C 48.609375 -44.40625 48.019531 -45.59375 46.84375 -46.28125 C 45.675781 -46.96875 44.328125 -47.3125 42.796875 -47.3125 Z M 42.796875 -47.3125 "/></g></g></g><g fill="#72bf78" fill-opacity="1"><g transform="translate(787.053328, 101.027562)"><g><path d="M 12.046875 0 C 12.046875 -8.09375 11.660156 -15.71875 10.890625 -22.875 C 10.128906 -30.03125 8.78125 -36.816406 6.84375 -43.234375 C 4.90625 -49.660156 2.210938 -55.851562 -1.234375 -61.8125 L 27.140625 -61.8125 C 28.773438 -59.082031 29.960938 -56.488281 30.703125 -54.03125 C 31.441406 -51.570312 31.8125 -49.25 31.8125 -47.0625 C 31.8125 -43.832031 31.195312 -40.890625 29.96875 -38.234375 C 28.738281 -35.585938 27.234375 -33.171875 25.453125 -30.984375 C 23.679688 -28.796875 21.890625 -26.828125 20.078125 -25.078125 C 18.273438 -23.335938 16.757812 -21.78125 15.53125 -20.40625 C 14.300781 -19.039062 13.6875 -17.8125 13.6875 -16.71875 C 13.6875 -15.789062 14.039062 -15.191406 14.75 -14.921875 C 15.46875 -14.648438 16.207031 -14.515625 16.96875 -14.515625 C 18.445312 -14.515625 20.265625 -14.84375 22.421875 -15.5 C 24.578125 -16.15625 26.816406 -17.164062 29.140625 -18.53125 C 31.460938 -19.894531 33.632812 -21.601562 35.65625 -23.65625 C 37.6875 -25.707031 39.328125 -28.140625 40.578125 -30.953125 C 41.835938 -33.765625 42.46875 -36.972656 42.46875 -40.578125 C 42.46875 -43.585938 41.921875 -46.851562 40.828125 -50.375 C 39.734375 -53.90625 37.898438 -57.71875 35.328125 -61.8125 L 56.234375 -61.8125 C 55.140625 -58.8125 53.882812 -55.601562 52.46875 -52.1875 C 51.050781 -48.769531 49.65625 -45.242188 48.28125 -41.609375 C 46.914062 -37.972656 45.769531 -34.320312 44.84375 -30.65625 C 43.863281 -26.726562 43.375 -22.6875 43.375 -18.53125 C 43.375 -14.863281 43.753906 -11.375 44.515625 -8.0625 C 45.285156 -4.757812 46.378906 -2.070312 47.796875 0 Z M 12.046875 0 "/></g></g></g><g fill="#72bf78" fill-opacity="1"><g transform="translate(842.063441, 101.027562)"><g><path d="M 1.640625 0 C 3.390625 -4.75 4.753906 -9.867188 5.734375 -15.359375 C 6.722656 -20.859375 7.21875 -26.425781 7.21875 -32.0625 C 7.21875 -37.144531 6.765625 -42.210938 5.859375 -47.265625 C 4.960938 -52.316406 3.554688 -57.164062 1.640625 -61.8125 L 46.5625 -61.8125 L 46.5625 -40.828125 C 45.96875 -41.097656 44.820312 -41.585938 43.125 -42.296875 C 41.425781 -43.015625 39.429688 -43.78125 37.140625 -44.59375 C 34.847656 -45.414062 32.5 -46.128906 30.09375 -46.734375 C 27.6875 -47.335938 25.472656 -47.640625 23.453125 -47.640625 C 21.804688 -47.640625 20.410156 -47.0625 19.265625 -45.90625 C 18.117188 -44.757812 17.175781 -43.328125 16.4375 -41.609375 C 15.695312 -39.890625 15.160156 -38.125 14.828125 -36.3125 C 14.503906 -34.507812 14.34375 -32.953125 14.34375 -31.640625 C 14.34375 -30.609375 14.519531 -29.882812 14.875 -29.46875 C 15.226562 -29.0625 15.765625 -28.859375 16.484375 -28.859375 C 17.410156 -28.859375 18.539062 -29.144531 19.875 -29.71875 C 21.21875 -30.289062 22.722656 -30.957031 24.390625 -31.71875 C 26.054688 -32.488281 27.789062 -33.160156 29.59375 -33.734375 C 31.394531 -34.304688 33.171875 -34.59375 34.921875 -34.59375 C 35.191406 -34.59375 35.488281 -34.578125 35.8125 -34.546875 C 36.144531 -34.523438 36.476562 -34.488281 36.8125 -34.4375 L 36.8125 -22.953125 C 32.769531 -24.210938 29.09375 -25.222656 25.78125 -25.984375 C 22.476562 -26.753906 19.378906 -27.140625 16.484375 -27.140625 C 15.609375 -26.097656 14.757812 -24.945312 13.9375 -23.6875 C 13.113281 -22.4375 12.425781 -21.234375 11.875 -20.078125 C 11.332031 -18.929688 11.0625 -17.953125 11.0625 -17.140625 C 11.0625 -16.421875 11.390625 -15.84375 12.046875 -15.40625 C 12.703125 -14.96875 13.507812 -14.640625 14.46875 -14.421875 C 15.425781 -14.203125 16.34375 -14.066406 17.21875 -14.015625 C 18.09375 -13.960938 18.773438 -13.9375 19.265625 -13.9375 C 21.503906 -13.9375 24.207031 -14.164062 27.375 -14.625 C 30.550781 -15.09375 33.832031 -15.765625 37.21875 -16.640625 C 40.601562 -17.515625 43.71875 -18.554688 46.5625 -19.765625 L 46.5625 0 Z M 1.640625 0 "/></g></g></g><g fill="#597cff" fill-opacity="0.302"><g transform="translate(897.274479, 108.274457)"><g/></g></g><g fill="#597cff" fill-opacity="0.502"><g transform="translate(893.651026, 104.65101)"><g/></g></g><g fill="#72bf78" fill-opacity="1"><g transform="translate(890.027583, 101.027562)"><g/></g></g></svg>