<svg width="66" height="66" viewBox="0 0 66 66" fill="none" xmlns="http://www.w3.org/2000/svg">
<path d="M21.7176 39.5643C19.8085 38.6563 18.2062 37.2104 17.1076 35.4043C16.1563 35.8778 15.3253 36.5618 14.6776 37.4043C14.004 38.0625 13.2012 38.5739 12.3199 38.9061C11.4387 39.2383 10.4981 39.3841 9.55758 39.3343C9.30446 39.3076 9.04885 39.35 8.81786 39.4569C8.58688 39.5638 8.38913 39.7312 8.2456 39.9413C8.10206 40.1515 8.01812 40.3966 8.00262 40.6507C7.98712 40.9047 8.04066 41.1582 8.15759 41.3843C9.31278 43.5639 11.0407 45.3871 13.1552 46.6576C15.2697 47.9281 17.6907 48.5977 20.1576 48.5943C21.586 48.5877 22.9796 48.1522 24.1576 47.3443C25.8797 49.0606 28.0714 50.2286 30.4564 50.7009C32.8415 51.1731 35.3129 50.9286 37.5591 49.998C39.8053 49.0674 41.7257 47.4925 43.0779 45.472C44.4302 43.4514 45.1538 41.0756 45.1576 38.6443C45.1613 41.2488 44.3308 43.7861 42.7876 45.8843C43.9936 46.3329 45.2708 46.5599 46.5576 46.5543C48.6961 46.5543 50.7864 45.92 52.5643 44.7317C54.3422 43.5435 55.7278 41.8546 56.5456 39.8787C57.3635 37.9029 57.577 35.7289 57.1591 33.6316C56.7412 31.5344 55.7107 29.6083 54.1979 28.0969C52.6851 26.5855 50.758 25.5568 48.6604 25.1408C46.5628 24.7248 44.3889 24.9403 42.4138 25.76C40.4387 26.5797 38.7512 27.9668 37.5645 29.7458C36.3779 31.5249 35.7456 33.6158 35.7476 35.7543C35.7513 33.9572 36.2021 32.1893 37.0595 30.6099C37.9169 29.0305 39.1538 27.6892 40.6587 26.7071C42.1637 25.7249 43.8894 25.1327 45.6804 24.9839C47.4713 24.835 49.2711 25.1341 50.9176 25.8543C50.5605 22.7404 49.0233 19.8818 46.6226 17.8668C44.2218 15.8519 41.1399 14.8338 38.0113 15.0222C34.8826 15.2105 31.9452 16.5909 29.8035 18.8793C27.6617 21.1677 26.4786 24.19 26.4976 27.3243C26.4923 24.4188 27.5242 21.6067 29.4076 19.3943C27.7907 18.9172 26.0848 18.8236 24.4254 19.1207C22.7659 19.4178 21.1986 20.0975 19.8476 21.1059C18.4966 22.1143 17.3992 23.4236 16.6424 24.93C15.8855 26.4364 15.4902 28.0984 15.4876 29.7843C15.4891 31.8342 16.0714 33.8417 17.1669 35.5744C18.2624 37.307 19.8264 38.6939 21.6776 39.5743" fill="#323232"/>
<path d="M21.7176 39.5643C19.8085 38.6563 18.2062 37.2104 17.1076 35.4043C16.1563 35.8778 15.3253 36.5618 14.6776 37.4043C14.004 38.0625 13.2012 38.5739 12.3199 38.9061C11.4387 39.2383 10.4981 39.3841 9.55758 39.3343C9.30446 39.3076 9.04885 39.35 8.81786 39.4569C8.58688 39.5638 8.38913 39.7312 8.2456 39.9413C8.10206 40.1515 8.01812 40.3966 8.00262 40.6507C7.98712 40.9047 8.04066 41.1582 8.15759 41.3843C9.31278 43.5639 11.0407 45.3871 13.1552 46.6576C15.2697 47.9281 17.6907 48.5977 20.1576 48.5943C21.586 48.5877 22.9796 48.1522 24.1576 47.3443C25.8797 49.0606 28.0714 50.2286 30.4564 50.7009C32.8415 51.1731 35.3129 50.9286 37.5591 49.998C39.8053 49.0674 41.7257 47.4925 43.0779 45.472C44.4302 43.4514 45.1538 41.0756 45.1576 38.6443C45.1613 41.2488 44.3308 43.7861 42.7876 45.8843C43.9936 46.3329 45.2708 46.5599 46.5576 46.5543C48.6961 46.5543 50.7864 45.92 52.5643 44.7317C54.3422 43.5435 55.7278 41.8546 56.5456 39.8787C57.3635 37.9029 57.577 35.7289 57.1591 33.6316C56.7412 31.5344 55.7107 29.6083 54.1979 28.0969C52.6851 26.5855 50.758 25.5568 48.6604 25.1408C46.5628 24.7248 44.3889 24.9403 42.4138 25.76C40.4387 26.5797 38.7512 27.9668 37.5645 29.7458C36.3779 31.5249 35.7456 33.6158 35.7476 35.7543C35.7513 33.9572 36.2021 32.1893 37.0595 30.6099C37.9169 29.0305 39.1538 27.6892 40.6587 26.7071C42.1637 25.7249 43.8894 25.1327 45.6804 24.9839C47.4713 24.835 49.2711 25.1341 50.9176 25.8543C50.5605 22.7404 49.0233 19.8818 46.6226 17.8668C44.2218 15.8519 41.1399 14.8338 38.0113 15.0222C34.8826 15.2105 31.9452 16.5909 29.8035 18.8793C27.6617 21.1677 26.4786 24.19 26.4976 27.3243C26.4923 24.4188 27.5242 21.6067 29.4076 19.3943C27.7907 18.9172 26.0848 18.8236 24.4254 19.1207C22.7659 19.4178 21.1986 20.0975 19.8476 21.1059C18.4966 22.1143 17.3992 23.4236 16.6424 24.93C15.8855 26.4364 15.4902 28.0984 15.4876 29.7843C15.4891 31.8342 16.0714 33.8417 17.1669 35.5744C18.2624 37.307 19.8264 38.6939 21.6776 39.5743" stroke="#323232" stroke-width="5" stroke-linecap="round" stroke-linejoin="round"/>
<path d="M21.7176 39.5643C19.8085 38.6563 18.2062 37.2104 17.1076 35.4043C16.1563 35.8778 15.3253 36.5618 14.6776 37.4043C14.004 38.0625 13.2012 38.5739 12.3199 38.9061C11.4387 39.2383 10.4981 39.3841 9.55758 39.3343C9.30446 39.3076 9.04885 39.35 8.81786 39.4569C8.58688 39.5638 8.38913 39.7312 8.2456 39.9413C8.10206 40.1515 8.01812 40.3966 8.00262 40.6507C7.98712 40.9047 8.04066 41.1582 8.15759 41.3843C9.31278 43.5639 11.0407 45.3871 13.1552 46.6576C15.2697 47.9281 17.6907 48.5977 20.1576 48.5943C21.586 48.5877 22.9796 48.1522 24.1576 47.3443C25.8797 49.0606 28.0714 50.2286 30.4564 50.7009C32.8415 51.1731 35.3129 50.9286 37.5591 49.998C39.8053 49.0674 41.7257 47.4925 43.0779 45.472C44.4302 43.4514 45.1538 41.0756 45.1576 38.6443C45.1613 41.2488 44.3308 43.7861 42.7876 45.8843C43.9936 46.3329 45.2708 46.5599 46.5576 46.5543C48.6961 46.5543 50.7864 45.92 52.5643 44.7317C54.3422 43.5435 55.7278 41.8546 56.5456 39.8787C57.3635 37.9029 57.577 35.7289 57.1591 33.6316C56.7412 31.5344 55.7107 29.6083 54.1979 28.0969C52.6851 26.5855 50.758 25.5568 48.6604 25.1408C46.5628 24.7248 44.3889 24.9403 42.4138 25.76C40.4387 26.5797 38.7512 27.9668 37.5645 29.7458C36.3779 31.5249 35.7456 33.6158 35.7476 35.7543C35.7513 33.9572 36.2021 32.1893 37.0595 30.6099C37.9169 29.0305 39.1538 27.6892 40.6587 26.7071C42.1637 25.7249 43.8894 25.1327 45.6804 24.9839C47.4713 24.835 49.2711 25.1341 50.9176 25.8543C50.5605 22.7404 49.0233 19.8818 46.6226 17.8668C44.2218 15.8519 41.1399 14.8338 38.0113 15.0222C34.8826 15.2105 31.9452 16.5909 29.8035 18.8793C27.6617 21.1677 26.4786 24.19 26.4976 27.3243C26.4923 24.4188 27.5242 21.6067 29.4076 19.3943C27.7907 18.9172 26.0848 18.8236 24.4254 19.1207C22.7659 19.4178 21.1986 20.0975 19.8476 21.1059C18.4966 22.1143 17.3992 23.4236 16.6424 24.93C15.8855 26.4364 15.4902 28.0984 15.4876 29.7843C15.4891 31.8342 16.0714 33.8417 17.1669 35.5744C18.2624 37.307 19.8264 38.6939 21.6776 39.5743" stroke="white" stroke-linecap="round" stroke-linejoin="round"/>
</svg>
