<svg width="66" height="66" viewBox="0 0 66 66" fill="none" xmlns="http://www.w3.org/2000/svg">
<path d="M33.0975 8.83421C36.25 8.83421 39.3318 9.7773 41.953 11.5442C44.5742 13.3111 46.6172 15.8224 47.8236 18.7606C49.0301 21.6989 49.3457 24.932 48.7307 28.0512C48.1156 31.1704 46.5976 34.0356 44.3684 36.2844C42.1392 38.5332 39.2991 40.0647 36.2072 40.6851C33.1152 41.3056 29.9103 40.9872 26.9978 39.7701C24.0853 38.553 21.5959 36.4921 19.8444 33.8477C18.093 31.2034 17.1581 28.0945 17.1581 24.9142C17.1662 20.652 18.848 16.5667 21.8355 13.5529C24.823 10.539 28.8726 8.84229 33.0975 8.83421ZM33.0975 7C29.5854 7 26.1522 8.05064 23.232 10.0191C20.3118 11.9875 18.0357 14.7853 16.6917 18.0587C15.3477 21.3321 14.996 24.934 15.6812 28.409C16.3664 31.8841 18.0576 35.0761 20.541 37.5814C23.0245 40.0867 26.1886 41.7929 29.6332 42.4841C33.0778 43.1753 36.6483 42.8206 39.8931 41.4647C43.1379 40.1088 45.9112 37.8127 47.8624 34.8667C49.8137 31.9208 50.8551 28.4573 50.8551 24.9142C50.8551 20.163 48.9842 15.6065 45.654 12.2469C42.3238 8.88738 37.8071 7 33.0975 7Z" fill="#181716"/>
<path d="M23.8247 25.0059C27.6838 25.0139 31.4085 26.4368 34.305 29.0095C37.2014 31.5822 39.0721 35.1293 39.5687 38.9901C40.0653 42.8509 39.1539 46.7622 37.0042 49.9954C34.8545 53.2286 31.6131 55.5633 27.8838 56.5647C24.1545 57.566 20.1915 57.1657 16.733 55.4383C13.2746 53.7109 10.5564 50.7742 9.08485 47.1752C7.61329 43.5762 7.48862 39.5603 8.73413 35.8754C9.97965 32.1906 12.5104 29.0881 15.855 27.1458C18.2795 25.7395 21.028 25.0015 23.8247 25.0059ZM23.8247 23.1717C19.9173 23.1568 16.1141 24.4425 13.0045 26.8295C9.89495 29.2165 7.65262 32.5715 6.62504 36.3747C5.59747 40.1778 5.84203 44.2167 7.3208 47.8654C8.79957 51.5141 11.43 54.5688 14.8044 56.5563C18.1789 58.5438 22.1089 59.3529 25.9854 58.8584C29.862 58.3638 33.4686 56.5932 36.2464 53.8209C39.0242 51.0486 40.818 47.4294 41.3499 43.5242C41.8818 39.619 41.122 35.6459 39.1883 32.2205C37.6225 29.5092 35.3805 27.2587 32.6852 25.6927C29.9898 24.1266 26.9351 23.2997 23.8247 23.294" fill="#181716"/>
<path d="M42.3701 25.0059C45.1607 25.0045 47.9013 25.7538 50.3095 27.1764C53.6396 29.1296 56.1523 32.2374 57.3795 35.9209C58.6068 39.6044 58.465 43.6124 56.9804 47.1982C55.4958 50.7841 52.7698 53.7032 49.3101 55.4119C45.8504 57.1205 41.893 57.5022 38.175 56.4858C34.4571 55.4694 31.2321 53.1242 29.101 49.8871C26.9698 46.65 26.0778 42.7417 26.5911 38.8903C27.1043 35.039 28.9878 31.5071 31.8907 28.9527C34.7936 26.3984 38.518 24.9956 42.3701 25.0059ZM42.3701 23.1717C38.0608 23.1579 33.8936 24.7254 30.6453 27.582C27.397 30.4386 25.2892 34.3894 24.7148 38.6979C24.1404 43.0064 25.1386 47.3785 27.5233 50.9994C29.9081 54.6203 33.5166 57.2429 37.6763 58.3782C41.8361 59.5135 46.2631 59.0842 50.1322 57.1702C54.0013 55.2561 57.0485 51.9881 58.7058 47.9751C60.363 43.9622 60.5173 39.4783 59.1397 35.3591C57.7622 31.2399 54.9469 27.7667 51.2186 25.5867C48.5356 23.9994 45.4804 23.1655 42.3701 23.1717Z" fill="#181716"/>
<path d="M33.0973 25.8007C30.583 27.3639 28.4988 29.54 27.0367 32.1288C25.5452 34.7127 24.7316 37.6377 24.6731 40.6273C27.2786 42.0507 30.1949 42.7961 33.158 42.7961C36.121 42.7961 39.0373 42.0507 41.6428 40.6273C41.5648 37.6385 40.7478 34.7167 39.266 32.1274C37.7843 29.5381 35.6846 27.3634 33.158 25.8007" fill="#181716"/>
</svg>
