<svg width="67" height="66" viewBox="0 0 67 66" fill="none" xmlns="http://www.w3.org/2000/svg">
<g clip-path="url(#clip0_283_4229)">
<path d="M63.8043 28.0096C64.4531 28.0096 65.0091 29.257 65.0091 30.7782V35.0376C65.0091 36.5588 64.4531 37.8062 63.8043 37.8062" stroke="#181716" stroke-width="1.82546" stroke-linecap="round" stroke-linejoin="round"/>
<path d="M50.7986 18H9.5881C4.84502 18 1 21.7868 1 26.458V39.3883C1 44.0595 4.84502 47.8463 9.5881 47.8463H50.7986C55.5417 47.8463 59.3867 44.0595 59.3867 39.3883V26.458C59.3867 21.7868 55.5417 18 50.7986 18Z" stroke="#181716" stroke-width="1.82546" stroke-miterlimit="10"/>
<path d="M48.9452 41.8222H11.4418C10.2865 41.8222 9.17861 41.3703 8.36173 40.5658C7.54485 39.7613 7.08594 38.6701 7.08594 37.5324V28.4051C7.08594 27.2674 7.54485 26.1762 8.36173 25.3717C9.17861 24.5672 10.2865 24.1153 11.4418 24.1153H48.9452C50.1004 24.1153 51.2084 24.5672 52.0253 25.3717C52.8421 26.1762 53.301 27.2674 53.301 28.4051V37.5324C53.301 38.6701 52.8421 39.7613 52.0253 40.5658C51.2084 41.3703 50.1004 41.8222 48.9452 41.8222Z" fill="#181716"/>
</g>
<defs>
<clipPath id="clip0_283_4229">
<rect width="66" height="66" fill="white" transform="translate(0.333374)"/>
</clipPath>
</defs>
</svg>
