<svg width="66" height="66" viewBox="0 0 66 66" fill="none" xmlns="http://www.w3.org/2000/svg">
<path d="M57.0721 11.8255C58.8743 11.8335 60.5999 12.5551 61.8714 13.8323C63.1429 15.1095 63.8567 16.8383 63.8567 18.6405V44.5012C63.8567 46.3035 63.1429 48.0323 61.8714 49.3095C60.5999 50.5867 58.8743 51.3083 57.0721 51.3163H9.64051C7.83304 51.3163 6.09959 50.5983 4.82152 49.3202C3.54345 48.0421 2.82539 46.3087 2.82539 44.5012V18.6405C2.82539 16.8331 3.54345 15.0996 4.82152 13.8215C6.09959 12.5435 7.83304 11.8255 9.64051 11.8255H57.0721ZM57.0721 10H9.64051C7.3489 10 5.15116 10.9103 3.53075 12.5308C1.91034 14.1512 1 16.3489 1 18.6405V44.5012C1 46.7929 1.91034 48.9906 3.53075 50.611C5.15116 52.2314 7.3489 53.1418 9.64051 53.1418H57.0721C59.3584 53.1337 61.5483 52.2198 63.1622 50.6003C64.776 48.9807 65.6822 46.7876 65.6821 44.5012V18.6405C65.6822 16.3542 64.776 14.161 63.1622 12.5415C61.5483 10.9219 59.3584 10.0081 57.0721 10Z" fill="#181716"/>
<path d="M6.93254 18.1841H5.44178C5.36916 18.1841 5.29954 18.213 5.24819 18.2643C5.19684 18.3157 5.16797 18.3853 5.16797 18.458V19.9488C5.16797 20.0214 5.19684 20.091 5.24819 20.1424C5.29954 20.1937 5.36916 20.2226 5.44178 20.2226H6.93254C7.00516 20.2226 7.07487 20.1937 7.12622 20.1424C7.17757 20.091 7.20635 20.0214 7.20635 19.9488V18.458C7.20635 18.3853 7.17757 18.3157 7.12622 18.2643C7.07487 18.213 7.00516 18.1841 6.93254 18.1841Z" fill="#181716"/>
<path d="M6.93254 22.261H5.44178C5.36916 22.261 5.29954 22.2899 5.24819 22.3412C5.19684 22.3926 5.16797 22.4622 5.16797 22.5348V24.0256C5.16797 24.0983 5.19684 24.1679 5.24819 24.2192C5.29954 24.2706 5.36916 24.2995 5.44178 24.2995H6.93254C7.00516 24.2995 7.07487 24.2706 7.12622 24.2192C7.17757 24.1679 7.20635 24.0983 7.20635 24.0256V22.5348C7.20635 22.4622 7.17757 22.3926 7.12622 22.3412C7.07487 22.2899 7.00516 22.261 6.93254 22.261Z" fill="#181716"/>
<path d="M6.93254 26.3379H5.44178C5.36916 26.3379 5.29954 26.3667 5.24819 26.4181C5.19684 26.4694 5.16797 26.5391 5.16797 26.6117V28.1025C5.16797 28.1385 5.17501 28.1741 5.18877 28.2073C5.20253 28.2405 5.22276 28.2707 5.24819 28.2961C5.27362 28.3215 5.30373 28.3417 5.33695 28.3555C5.37017 28.3692 5.40582 28.3763 5.44178 28.3763H6.93254C6.9685 28.3763 7.00415 28.3692 7.03737 28.3555C7.07059 28.3417 7.1008 28.3215 7.12622 28.2961C7.15165 28.2707 7.17179 28.2405 7.18555 28.2073C7.19931 28.1741 7.20635 28.1385 7.20635 28.1025V26.6117C7.20635 26.5391 7.17757 26.4694 7.12622 26.4181C7.07487 26.3667 7.00516 26.3379 6.93254 26.3379Z" fill="#181716"/>
<path d="M6.93254 30.4147H5.44178C5.36916 30.4147 5.29954 30.4435 5.24819 30.4949C5.19684 30.5463 5.16797 30.6159 5.16797 30.6885V32.2098C5.16797 32.2824 5.19684 32.352 5.24819 32.4034C5.29954 32.4547 5.36916 32.4836 5.44178 32.4836H6.93254C7.00516 32.4836 7.07487 32.4547 7.12622 32.4034C7.17757 32.352 7.20635 32.2824 7.20635 32.2098V30.6885C7.20635 30.6159 7.17757 30.5463 7.12622 30.4949C7.07487 30.4435 7.00516 30.4147 6.93254 30.4147Z" fill="#181716"/>
<path d="M6.93254 34.522H5.44178C5.37413 34.5216 5.30868 34.5462 5.25812 34.5912C5.20756 34.6361 5.17548 34.6982 5.16797 34.7654V36.2866C5.16797 36.3592 5.19684 36.4289 5.24819 36.4803C5.29954 36.5316 5.36916 36.5605 5.44178 36.5605H6.93254C7.00516 36.5605 7.07487 36.5316 7.12622 36.4803C7.17757 36.4289 7.20635 36.3592 7.20635 36.2866V34.7654C7.19883 34.6982 7.16675 34.6361 7.11619 34.5912C7.06563 34.5462 7.00019 34.5216 6.93254 34.522Z" fill="#181716"/>
<path d="M6.93254 38.5989H5.44178C5.36916 38.5989 5.29954 38.6277 5.24819 38.6791C5.19684 38.7304 5.16797 38.8001 5.16797 38.8727V40.3635C5.16797 40.4361 5.19684 40.5058 5.24819 40.5571C5.29954 40.6085 5.36916 40.6373 5.44178 40.6373H6.93254C7.00516 40.6373 7.07487 40.6085 7.12622 40.5571C7.17757 40.5058 7.20635 40.4361 7.20635 40.3635V38.8727C7.20635 38.8001 7.17757 38.7304 7.12622 38.6791C7.07487 38.6277 7.00516 38.5989 6.93254 38.5989Z" fill="#181716"/>
<path d="M11.04 14.1072H9.5492C9.48155 14.1068 9.41611 14.1315 9.36555 14.1764C9.31499 14.2214 9.28291 14.2834 9.27539 14.3506V15.8719C9.27539 15.9445 9.30417 16.0141 9.35552 16.0655C9.40687 16.1168 9.47658 16.1457 9.5492 16.1457H11.04C11.1126 16.1457 11.1822 16.1168 11.2336 16.0655C11.2849 16.0141 11.3138 15.9445 11.3138 15.8719V14.3506C11.3063 14.2834 11.2742 14.2214 11.2236 14.1764C11.1731 14.1315 11.1076 14.1068 11.04 14.1072Z" fill="#181716"/>
<path d="M11.04 18.1841H9.5492C9.47658 18.1841 9.40687 18.213 9.35552 18.2643C9.30417 18.3157 9.27539 18.3853 9.27539 18.458V19.9488C9.27539 20.0214 9.30417 20.091 9.35552 20.1424C9.40687 20.1937 9.47658 20.2226 9.5492 20.2226H11.04C11.1126 20.2226 11.1822 20.1937 11.2336 20.1424C11.2849 20.091 11.3138 20.0214 11.3138 19.9488V18.458C11.3138 18.3853 11.2849 18.3157 11.2336 18.2643C11.1822 18.213 11.1126 18.1841 11.04 18.1841Z" fill="#181716"/>
<path d="M11.04 22.261H9.5492C9.47658 22.261 9.40687 22.2899 9.35552 22.3412C9.30417 22.3926 9.27539 22.4622 9.27539 22.5348V24.0256C9.27539 24.0983 9.30417 24.1679 9.35552 24.2192C9.40687 24.2706 9.47658 24.2995 9.5492 24.2995H11.04C11.1126 24.2995 11.1822 24.2706 11.2336 24.2192C11.2849 24.1679 11.3138 24.0983 11.3138 24.0256V22.5348C11.3138 22.4622 11.2849 22.3926 11.2336 22.3412C11.1822 22.2899 11.1126 22.261 11.04 22.261Z" fill="#181716"/>
<path d="M11.04 26.3379H9.5492C9.47658 26.3379 9.40687 26.3667 9.35552 26.4181C9.30417 26.4694 9.27539 26.5391 9.27539 26.6117V28.1025C9.27539 28.1385 9.28243 28.1741 9.29619 28.2073C9.30995 28.2405 9.33009 28.2707 9.35552 28.2961C9.38094 28.3215 9.41115 28.3417 9.44437 28.3555C9.47759 28.3692 9.51324 28.3763 9.5492 28.3763H11.04C11.0759 28.3763 11.1116 28.3692 11.1448 28.3555C11.178 28.3417 11.2081 28.3215 11.2336 28.2961C11.259 28.2707 11.2792 28.2405 11.293 28.2073C11.3067 28.1741 11.3138 28.1385 11.3138 28.1025V26.6117C11.3138 26.5391 11.2849 26.4694 11.2336 26.4181C11.1822 26.3667 11.1126 26.3379 11.04 26.3379Z" fill="#181716"/>
<path d="M11.04 30.4147H9.5492C9.47658 30.4147 9.40687 30.4435 9.35552 30.4949C9.30417 30.5463 9.27539 30.6159 9.27539 30.6885V32.2098C9.27539 32.2824 9.30417 32.352 9.35552 32.4034C9.40687 32.4547 9.47658 32.4836 9.5492 32.4836H11.04C11.1126 32.4836 11.1822 32.4547 11.2336 32.4034C11.2849 32.352 11.3138 32.2824 11.3138 32.2098V30.6885C11.3138 30.6159 11.2849 30.5463 11.2336 30.4949C11.1822 30.4435 11.1126 30.4147 11.04 30.4147Z" fill="#181716"/>
<path d="M11.04 34.522H9.5492C9.48155 34.5216 9.41611 34.5462 9.36555 34.5912C9.31499 34.6361 9.28291 34.6982 9.27539 34.7654V36.2866C9.27539 36.3592 9.30417 36.4289 9.35552 36.4803C9.40687 36.5316 9.47658 36.5605 9.5492 36.5605H11.04C11.1126 36.5605 11.1822 36.5316 11.2336 36.4803C11.2849 36.4289 11.3138 36.3592 11.3138 36.2866V34.7654C11.3063 34.6982 11.2742 34.6361 11.2236 34.5912C11.1731 34.5462 11.1076 34.5216 11.04 34.522Z" fill="#181716"/>
<path d="M11.04 38.5989H9.5492C9.47658 38.5989 9.40687 38.6277 9.35552 38.6791C9.30417 38.7304 9.27539 38.8001 9.27539 38.8727V40.3635C9.27539 40.4361 9.30417 40.5058 9.35552 40.5571C9.40687 40.6085 9.47658 40.6373 9.5492 40.6373H11.04C11.1126 40.6373 11.1822 40.6085 11.2336 40.5571C11.2849 40.5058 11.3138 40.4361 11.3138 40.3635V38.8727C11.3138 38.8001 11.2849 38.7304 11.2336 38.6791C11.1822 38.6277 11.1126 38.5989 11.04 38.5989Z" fill="#181716"/>
<path d="M15.2692 14.1072H13.7783C13.7107 14.1068 13.6453 14.1315 13.5948 14.1764C13.5442 14.2214 13.512 14.2834 13.5045 14.3506V15.8719C13.5045 15.9445 13.5334 16.0141 13.5847 16.0655C13.6361 16.1168 13.7057 16.1457 13.7783 16.1457H15.2692C15.3418 16.1457 15.4114 16.1168 15.4628 16.0655C15.5141 16.0141 15.543 15.9445 15.543 15.8719V14.3506C15.5355 14.2834 15.5033 14.2214 15.4527 14.1764C15.4022 14.1315 15.3368 14.1068 15.2692 14.1072Z" fill="#181716"/>
<path d="M15.2692 18.1841H13.7783C13.7057 18.1841 13.6361 18.213 13.5847 18.2643C13.5334 18.3157 13.5045 18.3853 13.5045 18.458V19.9488C13.5045 20.0214 13.5334 20.091 13.5847 20.1424C13.6361 20.1937 13.7057 20.2226 13.7783 20.2226H15.2692C15.3418 20.2226 15.4114 20.1937 15.4628 20.1424C15.5141 20.091 15.543 20.0214 15.543 19.9488V18.458C15.543 18.3853 15.5141 18.3157 15.4628 18.2643C15.4114 18.213 15.3418 18.1841 15.2692 18.1841Z" fill="#181716"/>
<path d="M15.2692 22.261H13.7783C13.7057 22.261 13.6361 22.2899 13.5847 22.3412C13.5334 22.3926 13.5045 22.4622 13.5045 22.5348V24.0256C13.5045 24.0983 13.5334 24.1679 13.5847 24.2192C13.6361 24.2706 13.7057 24.2995 13.7783 24.2995H15.2692C15.3418 24.2995 15.4114 24.2706 15.4628 24.2192C15.5141 24.1679 15.543 24.0983 15.543 24.0256V22.5348C15.543 22.4622 15.5141 22.3926 15.4628 22.3412C15.4114 22.2899 15.3418 22.261 15.2692 22.261Z" fill="#181716"/>
<path d="M15.2692 26.3379H13.7783C13.7057 26.3379 13.6361 26.3667 13.5847 26.4181C13.5334 26.4694 13.5045 26.5391 13.5045 26.6117V28.1025C13.5045 28.1385 13.5116 28.1741 13.5254 28.2073C13.5392 28.2405 13.5593 28.2707 13.5847 28.2961C13.6102 28.3215 13.6404 28.3417 13.6736 28.3555C13.7068 28.3692 13.7424 28.3763 13.7783 28.3763H15.2692C15.3051 28.3763 15.3407 28.3692 15.3739 28.3555C15.4071 28.3417 15.4373 28.3215 15.4628 28.2961C15.4882 28.2707 15.5083 28.2405 15.5221 28.2073C15.5359 28.1741 15.543 28.1385 15.543 28.1025V26.6117C15.543 26.5391 15.5141 26.4694 15.4628 26.4181C15.4114 26.3667 15.3418 26.3379 15.2692 26.3379Z" fill="#181716"/>
<path d="M15.2692 30.4147H13.7783C13.7057 30.4147 13.6361 30.4435 13.5847 30.4949C13.5334 30.5463 13.5045 30.6159 13.5045 30.6885V32.2098C13.5045 32.2824 13.5334 32.352 13.5847 32.4034C13.6361 32.4547 13.7057 32.4836 13.7783 32.4836H15.2692C15.3418 32.4836 15.4114 32.4547 15.4628 32.4034C15.5141 32.352 15.543 32.2824 15.543 32.2098V30.6885C15.543 30.6159 15.5141 30.5463 15.4628 30.4949C15.4114 30.4435 15.3418 30.4147 15.2692 30.4147Z" fill="#181716"/>
<path d="M15.2692 34.522H13.7783C13.7107 34.5216 13.6453 34.5462 13.5948 34.5912C13.5442 34.6361 13.512 34.6982 13.5045 34.7654V36.2866C13.5045 36.3592 13.5334 36.4289 13.5847 36.4803C13.6361 36.5316 13.7057 36.5605 13.7783 36.5605H15.2692C15.3418 36.5605 15.4114 36.5316 15.4628 36.4803C15.5141 36.4289 15.543 36.3592 15.543 36.2866V34.7654C15.5355 34.6982 15.5033 34.6361 15.4527 34.5912C15.4022 34.5462 15.3368 34.5216 15.2692 34.522Z" fill="#181716"/>
<path d="M15.2692 38.5989H13.7783C13.7057 38.5989 13.6361 38.6277 13.5847 38.6791C13.5334 38.7304 13.5045 38.8001 13.5045 38.8727V40.3635C13.5045 40.4361 13.5334 40.5058 13.5847 40.5571C13.6361 40.6085 13.7057 40.6373 13.7783 40.6373H15.2692C15.3418 40.6373 15.4114 40.6085 15.4628 40.5571C15.5141 40.5058 15.543 40.4361 15.543 40.3635V38.8727C15.543 38.8001 15.5141 38.7304 15.4628 38.6791C15.4114 38.6277 15.3418 38.5989 15.2692 38.5989Z" fill="#181716"/>
<path d="M19.4373 14.1072H17.9464C17.8788 14.1068 17.8134 14.1315 17.7629 14.1764C17.7123 14.2214 17.6801 14.2834 17.6726 14.3506V15.8719C17.6726 15.9445 17.7015 16.0141 17.7528 16.0655C17.8042 16.1168 17.8738 16.1457 17.9464 16.1457H19.4373C19.5099 16.1457 19.5795 16.1168 19.6309 16.0655C19.6822 16.0141 19.7111 15.9445 19.7111 15.8719V14.3506C19.7036 14.2834 19.6714 14.2214 19.6208 14.1764C19.5703 14.1315 19.5049 14.1068 19.4373 14.1072Z" fill="#181716"/>
<path d="M19.4373 18.1841H17.9464C17.8738 18.1841 17.8042 18.213 17.7528 18.2643C17.7015 18.3157 17.6726 18.3853 17.6726 18.458V19.9488C17.6726 20.0214 17.7015 20.091 17.7528 20.1424C17.8042 20.1937 17.8738 20.2226 17.9464 20.2226H19.4373C19.5099 20.2226 19.5795 20.1937 19.6309 20.1424C19.6822 20.091 19.7111 20.0214 19.7111 19.9488V18.458C19.7111 18.3853 19.6822 18.3157 19.6309 18.2643C19.5795 18.213 19.5099 18.1841 19.4373 18.1841Z" fill="#181716"/>
<path d="M19.4373 22.261H17.9464C17.8738 22.261 17.8042 22.2899 17.7528 22.3412C17.7015 22.3926 17.6726 22.4622 17.6726 22.5348V24.0256C17.6726 24.0983 17.7015 24.1679 17.7528 24.2192C17.8042 24.2706 17.8738 24.2995 17.9464 24.2995H19.4373C19.5099 24.2995 19.5795 24.2706 19.6309 24.2192C19.6822 24.1679 19.7111 24.0983 19.7111 24.0256V22.5348C19.7111 22.4622 19.6822 22.3926 19.6309 22.3412C19.5795 22.2899 19.5099 22.261 19.4373 22.261Z" fill="#181716"/>
<path d="M19.4373 26.3379H17.9464C17.8738 26.3379 17.8042 26.3667 17.7528 26.4181C17.7015 26.4694 17.6726 26.5391 17.6726 26.6117V28.1025C17.6726 28.1385 17.6797 28.1741 17.6935 28.2073C17.7073 28.2405 17.7274 28.2707 17.7528 28.2961C17.7783 28.3215 17.8085 28.3417 17.8417 28.3555C17.8749 28.3692 17.9105 28.3763 17.9464 28.3763H19.4373C19.4732 28.3763 19.5088 28.3692 19.542 28.3555C19.5752 28.3417 19.6054 28.3215 19.6309 28.2961C19.6563 28.2707 19.6764 28.2405 19.6902 28.2073C19.704 28.1741 19.7111 28.1385 19.7111 28.1025V26.6117C19.7111 26.5391 19.6822 26.4694 19.6309 26.4181C19.5795 26.3667 19.5099 26.3379 19.4373 26.3379Z" fill="#181716"/>
<path d="M19.4373 30.4147H17.9464C17.8738 30.4147 17.8042 30.4435 17.7528 30.4949C17.7015 30.5463 17.6726 30.6159 17.6726 30.6885V32.2098C17.6726 32.2824 17.7015 32.352 17.7528 32.4034C17.8042 32.4547 17.8738 32.4836 17.9464 32.4836H19.4373C19.5099 32.4836 19.5795 32.4547 19.6309 32.4034C19.6822 32.352 19.7111 32.2824 19.7111 32.2098V30.6885C19.7111 30.6159 19.6822 30.5463 19.6309 30.4949C19.5795 30.4435 19.5099 30.4147 19.4373 30.4147Z" fill="#181716"/>
<path d="M19.4373 34.522H17.9464C17.8788 34.5216 17.8134 34.5462 17.7629 34.5912C17.7123 34.6361 17.6801 34.6982 17.6726 34.7654V36.2866C17.6726 36.3592 17.7015 36.4289 17.7528 36.4803C17.8042 36.5316 17.8738 36.5605 17.9464 36.5605H19.4373C19.5099 36.5605 19.5795 36.5316 19.6309 36.4803C19.6822 36.4289 19.7111 36.3592 19.7111 36.2866V34.7654C19.7036 34.6982 19.6714 34.6361 19.6208 34.5912C19.5703 34.5462 19.5049 34.5216 19.4373 34.522Z" fill="#181716"/>
<path d="M19.4373 38.5989H17.9464C17.8738 38.5989 17.8042 38.6277 17.7528 38.6791C17.7015 38.7304 17.6726 38.8001 17.6726 38.8727V40.3635C17.6726 40.4361 17.7015 40.5058 17.7528 40.5571C17.8042 40.6085 17.8738 40.6373 17.9464 40.6373H19.4373C19.5099 40.6373 19.5795 40.6085 19.6309 40.5571C19.6822 40.5058 19.7111 40.4361 19.7111 40.3635V38.8727C19.7111 38.8001 19.6822 38.7304 19.6309 38.6791C19.5795 38.6277 19.5099 38.5989 19.4373 38.5989Z" fill="#181716"/>
<path d="M23.6054 14.1072H22.1146C22.047 14.1068 21.9815 14.1315 21.9309 14.1764C21.8804 14.2214 21.8482 14.2834 21.8407 14.3506V15.8719C21.8407 15.9445 21.8696 16.0141 21.9209 16.0655C21.9723 16.1168 22.042 16.1457 22.1146 16.1457H23.6054C23.678 16.1457 23.7476 16.1168 23.799 16.0655C23.8503 16.0141 23.8792 15.9445 23.8792 15.8719V14.3506C23.8717 14.2834 23.8395 14.2214 23.7889 14.1764C23.7384 14.1315 23.673 14.1068 23.6054 14.1072Z" fill="#181716"/>
<path d="M23.6054 18.1841H22.1146C22.042 18.1841 21.9723 18.213 21.9209 18.2643C21.8696 18.3157 21.8407 18.3853 21.8407 18.458V19.9488C21.8407 20.0214 21.8696 20.091 21.9209 20.1424C21.9723 20.1937 22.042 20.2226 22.1146 20.2226H23.6054C23.678 20.2226 23.7476 20.1937 23.799 20.1424C23.8503 20.091 23.8792 20.0214 23.8792 19.9488V18.458C23.8792 18.3853 23.8503 18.3157 23.799 18.2643C23.7476 18.213 23.678 18.1841 23.6054 18.1841Z" fill="#181716"/>
<path d="M23.6054 22.261H22.1146C22.042 22.261 21.9723 22.2899 21.9209 22.3412C21.8696 22.3926 21.8407 22.4622 21.8407 22.5348V24.0256C21.8407 24.0983 21.8696 24.1679 21.9209 24.2192C21.9723 24.2706 22.042 24.2995 22.1146 24.2995H23.6054C23.678 24.2995 23.7476 24.2706 23.799 24.2192C23.8503 24.1679 23.8792 24.0983 23.8792 24.0256V22.5348C23.8792 22.4622 23.8503 22.3926 23.799 22.3412C23.7476 22.2899 23.678 22.261 23.6054 22.261Z" fill="#181716"/>
<path d="M23.6054 26.3379H22.1146C22.042 26.3379 21.9723 26.3667 21.9209 26.4181C21.8696 26.4694 21.8407 26.5391 21.8407 26.6117V28.1025C21.8407 28.1385 21.8478 28.1741 21.8616 28.2073C21.8753 28.2405 21.8955 28.2707 21.9209 28.2961C21.9463 28.3215 21.9766 28.3417 22.0098 28.3555C22.043 28.3692 22.0786 28.3763 22.1146 28.3763H23.6054C23.6413 28.3763 23.6769 28.3692 23.7101 28.3555C23.7433 28.3417 23.7735 28.3215 23.799 28.2961C23.8244 28.2707 23.8445 28.2405 23.8583 28.2073C23.872 28.1741 23.8792 28.1385 23.8792 28.1025V26.6117C23.8792 26.5391 23.8503 26.4694 23.799 26.4181C23.7476 26.3667 23.678 26.3379 23.6054 26.3379Z" fill="#181716"/>
<path d="M23.6054 30.4147H22.1146C22.042 30.4147 21.9723 30.4435 21.9209 30.4949C21.8696 30.5463 21.8407 30.6159 21.8407 30.6885V32.2098C21.8407 32.2824 21.8696 32.352 21.9209 32.4034C21.9723 32.4547 22.042 32.4836 22.1146 32.4836H23.6054C23.678 32.4836 23.7476 32.4547 23.799 32.4034C23.8503 32.352 23.8792 32.2824 23.8792 32.2098V30.6885C23.8792 30.6159 23.8503 30.5463 23.799 30.4949C23.7476 30.4435 23.678 30.4147 23.6054 30.4147Z" fill="#181716"/>
<path d="M23.6054 34.522H22.1146C22.047 34.5216 21.9815 34.5462 21.9309 34.5912C21.8804 34.6361 21.8482 34.6982 21.8407 34.7654V36.2866C21.8407 36.3592 21.8696 36.4289 21.9209 36.4803C21.9723 36.5316 22.042 36.5605 22.1146 36.5605H23.6054C23.678 36.5605 23.7476 36.5316 23.799 36.4803C23.8503 36.4289 23.8792 36.3592 23.8792 36.2866V34.7654C23.8717 34.6982 23.8395 34.6361 23.7889 34.5912C23.7384 34.5462 23.673 34.5216 23.6054 34.522Z" fill="#181716"/>
<path d="M23.6054 38.5989H22.1146C22.042 38.5989 21.9723 38.6277 21.9209 38.6791C21.8696 38.7304 21.8407 38.8001 21.8407 38.8727V40.3635C21.8407 40.4361 21.8696 40.5058 21.9209 40.5571C21.9723 40.6085 22.042 40.6373 22.1146 40.6373H23.6054C23.678 40.6373 23.7476 40.6085 23.799 40.5571C23.8503 40.5058 23.8792 40.4361 23.8792 40.3635V38.8727C23.8792 38.8001 23.8503 38.7304 23.799 38.6791C23.7476 38.6277 23.678 38.5989 23.6054 38.5989Z" fill="#181716"/>
<path d="M26.2521 16.1457H27.7734C27.846 16.1457 27.9156 16.1168 27.967 16.0655C28.0183 16.0141 28.0472 15.9445 28.0472 15.8719V14.3506C28.0397 14.2834 28.0076 14.2214 27.957 14.1764C27.9065 14.1315 27.841 14.1068 27.7734 14.1072H26.2521C26.1899 14.1139 26.1317 14.1416 26.0874 14.1859C26.0431 14.2302 26.0154 14.2884 26.0088 14.3506V15.8719C26.0084 15.9395 26.0329 16.0049 26.0779 16.0555C26.1228 16.106 26.1849 16.1382 26.2521 16.1457Z" fill="#181716"/>
<path d="M26.2521 20.2226H27.7734C27.846 20.2226 27.9156 20.1937 27.967 20.1424C28.0183 20.091 28.0472 20.0214 28.0472 19.9488V18.458C28.0472 18.3853 28.0183 18.3157 27.967 18.2643C27.9156 18.213 27.846 18.1841 27.7734 18.1841H26.2521C26.1849 18.1917 26.1228 18.2238 26.0779 18.2743C26.0329 18.3249 26.0084 18.3903 26.0088 18.458V19.9488C26.0084 20.0164 26.0329 20.0818 26.0779 20.1324C26.1228 20.1829 26.1849 20.2151 26.2521 20.2226Z" fill="#181716"/>
<path d="M26.2521 24.2995H27.7734C27.846 24.2995 27.9156 24.2706 27.967 24.2192C28.0183 24.1679 28.0472 24.0983 28.0472 24.0256V22.5348C28.0472 22.4622 28.0183 22.3926 27.967 22.3412C27.9156 22.2899 27.846 22.261 27.7734 22.261H26.2521C26.1849 22.2685 26.1228 22.3007 26.0779 22.3512C26.0329 22.4018 26.0084 22.4672 26.0088 22.5348V24.0256C26.0084 24.0933 26.0329 24.1587 26.0779 24.2092C26.1228 24.2598 26.1849 24.292 26.2521 24.2995Z" fill="#181716"/>
<path d="M26.2521 28.3763H27.7734C27.841 28.3767 27.9065 28.3521 27.957 28.3072C28.0076 28.2622 28.0397 28.2001 28.0472 28.1329V26.6117C28.0472 26.5391 28.0183 26.4694 27.967 26.4181C27.9156 26.3667 27.846 26.3379 27.7734 26.3379H26.2521C26.1849 26.3454 26.1228 26.3775 26.0779 26.4281C26.0329 26.4786 26.0084 26.544 26.0088 26.6117V28.1329C26.0154 28.1952 26.0431 28.2533 26.0874 28.2976C26.1317 28.3419 26.1899 28.3697 26.2521 28.3763Z" fill="#181716"/>
<path d="M26.2521 32.4836H27.7734C27.846 32.4836 27.9156 32.4547 27.967 32.4034C28.0183 32.352 28.0472 32.2824 28.0472 32.2098V30.6885C28.0472 30.6159 28.0183 30.5463 27.967 30.4949C27.9156 30.4435 27.846 30.4147 27.7734 30.4147H26.2521C26.1849 30.4222 26.1228 30.4544 26.0779 30.5049C26.0329 30.5555 26.0084 30.6209 26.0088 30.6885V32.2098C26.0084 32.2774 26.0329 32.3428 26.0779 32.3934C26.1228 32.4439 26.1849 32.476 26.2521 32.4836Z" fill="#181716"/>
<path d="M26.2521 36.5605H27.7734C27.846 36.5605 27.9156 36.5316 27.967 36.4803C28.0183 36.4289 28.0472 36.3592 28.0472 36.2866V34.7654C28.0397 34.6982 28.0076 34.6361 27.957 34.5912C27.9065 34.5462 27.841 34.5216 27.7734 34.522H26.2521C26.1899 34.5286 26.1317 34.5564 26.0874 34.6007C26.0431 34.645 26.0154 34.7031 26.0088 34.7654V36.2866C26.0084 36.3543 26.0329 36.4197 26.0779 36.4702C26.1228 36.5208 26.1849 36.5529 26.2521 36.5605Z" fill="#181716"/>
<path d="M26.2521 40.6373H27.7734C27.846 40.6373 27.9156 40.6085 27.967 40.5571C28.0183 40.5058 28.0472 40.4361 28.0472 40.3635V38.8727C28.0472 38.8001 28.0183 38.7304 27.967 38.6791C27.9156 38.6277 27.846 38.5989 27.7734 38.5989H26.2521C26.1849 38.6064 26.1228 38.6385 26.0779 38.6891C26.0329 38.7397 26.0084 38.8051 26.0088 38.8727V40.3635C26.0084 40.4312 26.0329 40.4966 26.0779 40.5471C26.1228 40.5977 26.1849 40.6298 26.2521 40.6373Z" fill="#181716"/>
<path d="M30.4205 16.1457H31.9417C31.993 16.1839 32.0559 16.2029 32.1197 16.1995C32.1835 16.1962 32.2441 16.1706 32.291 16.1273C32.338 16.084 32.3683 16.0256 32.3767 15.9623C32.3852 15.899 32.3712 15.8347 32.3373 15.7806V14.2594C32.3298 14.1922 32.2976 14.1301 32.247 14.0852C32.1965 14.0402 32.1311 14.0156 32.0635 14.016H30.5422C30.4746 14.0156 30.4091 14.0402 30.3586 14.0852C30.308 14.1301 30.2759 14.1922 30.2684 14.2594V15.7806C30.2684 15.8533 30.2973 15.9229 30.3487 15.9742C30.4 16.0256 30.4696 16.0544 30.5422 16.0544" fill="#181716"/>
<path d="M30.42 20.2226H31.9413C32.0139 20.2226 32.0836 20.1937 32.1349 20.1424C32.1863 20.091 32.2151 20.0214 32.2151 19.9488V18.458C32.2151 18.3853 32.1863 18.3157 32.1349 18.2643C32.0836 18.213 32.0139 18.1841 31.9413 18.1841H30.42C30.3474 18.1841 30.2778 18.213 30.2265 18.2643C30.1751 18.3157 30.1462 18.3853 30.1462 18.458V19.9488C30.1462 20.0214 30.1751 20.091 30.2265 20.1424C30.2778 20.1937 30.3474 20.2226 30.42 20.2226Z" fill="#181716"/>
<path d="M30.42 24.2995H31.9413C32.0139 24.2995 32.0836 24.2706 32.1349 24.2192C32.1863 24.1679 32.2151 24.0983 32.2151 24.0256V22.5348C32.2151 22.4622 32.1863 22.3926 32.1349 22.3412C32.0836 22.2899 32.0139 22.261 31.9413 22.261H30.42C30.3474 22.261 30.2778 22.2899 30.2265 22.3412C30.1751 22.3926 30.1462 22.4622 30.1462 22.5348V24.0256C30.1462 24.0983 30.1751 24.1679 30.2265 24.2192C30.2778 24.2706 30.3474 24.2995 30.42 24.2995Z" fill="#181716"/>
<path d="M30.42 28.3763H31.9413C32.0089 28.3767 32.0744 28.3521 32.1249 28.3072C32.1755 28.2622 32.2076 28.2001 32.2151 28.1329V26.6117C32.2151 26.5391 32.1863 26.4694 32.1349 26.4181C32.0836 26.3667 32.0139 26.3379 31.9413 26.3379H30.42C30.3474 26.3379 30.2778 26.3667 30.2265 26.4181C30.1751 26.4694 30.1462 26.5391 30.1462 26.6117V28.1329C30.1538 28.2001 30.1859 28.2622 30.2365 28.3072C30.287 28.3521 30.3524 28.3767 30.42 28.3763Z" fill="#181716"/>
<path d="M30.42 32.4836H31.9413C32.0139 32.4836 32.0836 32.4547 32.1349 32.4034C32.1863 32.352 32.2151 32.2824 32.2151 32.2098V30.6885C32.2151 30.6159 32.1863 30.5463 32.1349 30.4949C32.0836 30.4435 32.0139 30.4147 31.9413 30.4147H30.42C30.3474 30.4147 30.2778 30.4435 30.2265 30.4949C30.1751 30.5463 30.1462 30.6159 30.1462 30.6885V32.2098C30.1462 32.2824 30.1751 32.352 30.2265 32.4034C30.2778 32.4547 30.3474 32.4836 30.42 32.4836Z" fill="#181716"/>
<path d="M30.42 36.5605H31.9413C32.0139 36.5605 32.0836 36.5316 32.1349 36.4803C32.1863 36.4289 32.2151 36.3592 32.2151 36.2866V34.7654C32.2076 34.6982 32.1755 34.6361 32.1249 34.5912C32.0744 34.5462 32.0089 34.5216 31.9413 34.522H30.42C30.3524 34.5216 30.287 34.5462 30.2365 34.5912C30.1859 34.6361 30.1538 34.6982 30.1462 34.7654V36.2866C30.1462 36.3592 30.1751 36.4289 30.2265 36.4803C30.2778 36.5316 30.3474 36.5605 30.42 36.5605Z" fill="#181716"/>
<path d="M30.42 38.5989C30.3474 38.5989 30.2778 38.6277 30.2265 38.6791C30.1751 38.7304 30.1462 38.8001 30.1462 38.8727V40.3635C30.1462 40.4361 30.1751 40.5058 30.2265 40.5571C30.2778 40.6085 30.3474 40.6373 30.42 40.6373H30.8156L31.6979 38.5989H30.42Z" fill="#181716"/>
<path d="M34.5885 16.1457H36.1097C36.1823 16.1457 36.2521 16.1168 36.3034 16.0655C36.3548 16.0141 36.3835 15.9445 36.3835 15.8719V14.3506C36.376 14.2834 36.3439 14.2214 36.2934 14.1764C36.2428 14.1315 36.1774 14.1068 36.1097 14.1072H34.5885C34.5209 14.1068 34.4555 14.1315 34.4049 14.1764C34.3544 14.2214 34.3222 14.2834 34.3147 14.3506V15.8719C34.3147 15.9445 34.3436 16.0141 34.3949 16.0655C34.4463 16.1168 34.5159 16.1457 34.5885 16.1457Z" fill="#181716"/>
<path d="M34.5885 20.2226H36.1097C36.1823 20.2226 36.2521 20.1937 36.3034 20.1424C36.3548 20.091 36.3835 20.0214 36.3835 19.9488V18.458C36.3835 18.3853 36.3548 18.3157 36.3034 18.2643C36.2521 18.213 36.1823 18.1841 36.1097 18.1841H34.5885C34.5159 18.1841 34.4463 18.213 34.3949 18.2643C34.3436 18.3157 34.3147 18.3853 34.3147 18.458V19.9488C34.3147 20.0214 34.3436 20.091 34.3949 20.1424C34.4463 20.1937 34.5159 20.2226 34.5885 20.2226Z" fill="#181716"/>
<path d="M34.5885 24.2995H36.1097C36.1823 24.2995 36.2521 24.2706 36.3034 24.2192C36.3548 24.1679 36.3835 24.0983 36.3835 24.0256V22.5348C36.3835 22.4622 36.3548 22.3926 36.3034 22.3412C36.2521 22.2899 36.1823 22.261 36.1097 22.261H34.5885C34.5159 22.261 34.4463 22.2899 34.3949 22.3412C34.3436 22.3926 34.3147 22.4622 34.3147 22.5348V24.0256C34.3147 24.0983 34.3436 24.1679 34.3949 24.2192C34.4463 24.2706 34.5159 24.2995 34.5885 24.2995Z" fill="#181716"/>
<path d="M36.3835 26.6117C36.3835 26.5391 36.3548 26.4694 36.3034 26.4181C36.2521 26.3667 36.1823 26.3379 36.1097 26.3379H34.5885C34.5159 26.3379 34.4463 26.3667 34.3949 26.4181C34.3436 26.4694 34.3147 26.5391 34.3147 26.6117V28.1025C34.3147 28.1751 34.3436 28.2448 34.3949 28.2961C34.4463 28.3475 34.5159 28.3763 34.5885 28.3763H36.0185L36.3835 27.5244V26.6117Z" fill="#181716"/>
<path d="M34.5885 30.4148C34.5159 30.4148 34.4463 30.4436 34.3949 30.495C34.3436 30.5463 34.3147 30.616 34.3147 30.6886V32.2098L35.0753 30.3539L34.5885 30.4148Z" fill="#181716"/>
<path d="M6.93254 42.767H5.44178C5.36916 42.767 5.29954 42.7959 5.24819 42.8472C5.19684 42.8986 5.16797 42.9682 5.16797 43.0408V44.5316C5.16797 44.6042 5.19684 44.6739 5.24819 44.7253C5.29954 44.7766 5.36916 44.8055 5.44178 44.8055H6.93254C7.00516 44.8055 7.07487 44.7766 7.12622 44.7253C7.17757 44.6739 7.20635 44.6042 7.20635 44.5316V43.1625C7.20635 43.0899 7.17757 43.0203 7.12622 42.9689C7.07487 42.9176 7.00516 42.8887 6.93254 42.8887" fill="#181716"/>
<path d="M11.04 42.767H9.5492C9.47658 42.767 9.40687 42.7959 9.35552 42.8472C9.30417 42.8986 9.27539 42.9682 9.27539 43.0408V44.5316C9.27539 44.6042 9.30417 44.6739 9.35552 44.7253C9.40687 44.7766 9.47658 44.8055 9.5492 44.8055H11.04C11.1126 44.8055 11.1822 44.7766 11.2336 44.7253C11.2849 44.6739 11.3138 44.6042 11.3138 44.5316V43.1625C11.3138 43.0899 11.2849 43.0203 11.2336 42.9689C11.1822 42.9176 11.1126 42.8887 11.04 42.8887" fill="#181716"/>
<path d="M15.2692 42.767H13.7783C13.7057 42.767 13.6361 42.7959 13.5847 42.8472C13.5334 42.8986 13.5045 42.9682 13.5045 43.0408V44.5316C13.5045 44.6042 13.5334 44.6739 13.5847 44.7253C13.6361 44.7766 13.7057 44.8055 13.7783 44.8055H15.2692C15.3418 44.8055 15.4114 44.7766 15.4628 44.7253C15.5141 44.6739 15.543 44.6042 15.543 44.5316V43.1625C15.543 43.0899 15.5141 43.0203 15.4628 42.9689C15.4114 42.9176 15.3418 42.8887 15.2692 42.8887" fill="#181716"/>
<path d="M19.4373 42.767H17.9464C17.8738 42.767 17.8042 42.7959 17.7528 42.8472C17.7015 42.8986 17.6726 42.9682 17.6726 43.0408V44.5316C17.6726 44.6042 17.7015 44.6739 17.7528 44.7253C17.8042 44.7766 17.8738 44.8055 17.9464 44.8055H19.4373C19.5099 44.8055 19.5795 44.7766 19.6309 44.7253C19.6822 44.6739 19.7111 44.6042 19.7111 44.5316V43.1625C19.7111 43.0899 19.6822 43.0203 19.6309 42.9689C19.5795 42.9176 19.5099 42.8887 19.4373 42.8887" fill="#181716"/>
<path d="M23.6054 42.767H22.1146C22.042 42.767 21.9723 42.7959 21.9209 42.8472C21.8696 42.8986 21.8407 42.9682 21.8407 43.0408V44.5316C21.8407 44.6042 21.8696 44.6739 21.9209 44.7253C21.9723 44.7766 22.042 44.8055 22.1146 44.8055H23.6054C23.678 44.8055 23.7476 44.7766 23.799 44.7253C23.8503 44.6739 23.8792 44.6042 23.8792 44.5316V43.1625C23.8792 43.0899 23.8503 43.0203 23.799 42.9689C23.7476 42.9176 23.678 42.8887 23.6054 42.8887" fill="#181716"/>
<path d="M26.2521 44.8055H27.7734C27.846 44.8055 27.9156 44.7766 27.967 44.7253C28.0183 44.6739 28.0472 44.6042 28.0472 44.5316V43.1625C28.0472 43.0899 28.0183 43.0203 27.967 42.9689C27.9156 42.9176 27.846 42.8887 27.7734 42.8887H26.2521C26.1849 42.8962 26.1228 42.9284 26.0779 42.9789C26.0329 43.0295 26.0084 43.0949 26.0088 43.1625V44.6533C26.0084 44.721 26.0329 44.7864 26.0779 44.8369C26.1228 44.8875 26.1849 44.9196 26.2521 44.9272" fill="#181716"/>
<path d="M11.04 46.9352H9.5492C9.48155 46.9348 9.41611 46.9594 9.36555 47.0044C9.31499 47.0493 9.28291 47.1114 9.27539 47.1786V48.6998C9.27539 48.7358 9.28243 48.7714 9.29619 48.8046C9.30995 48.8378 9.33009 48.868 9.35552 48.8934C9.38094 48.9188 9.41115 48.939 9.44437 48.9528C9.47759 48.9666 9.51324 48.9736 9.5492 48.9736H11.04C11.0759 48.9736 11.1116 48.9666 11.1448 48.9528C11.178 48.939 11.2081 48.9188 11.2336 48.8934C11.259 48.868 11.2792 48.8378 11.293 48.8046C11.3067 48.7714 11.3138 48.7358 11.3138 48.6998V47.1786C11.3063 47.1114 11.2742 47.0493 11.2236 47.0044C11.1731 46.9594 11.1076 46.9348 11.04 46.9352Z" fill="#181716"/>
<path d="M15.2692 46.9352H13.7783C13.7107 46.9348 13.6453 46.9594 13.5948 47.0044C13.5442 47.0493 13.512 47.1114 13.5045 47.1786V48.6998C13.5045 48.7358 13.5116 48.7714 13.5254 48.8046C13.5392 48.8378 13.5593 48.868 13.5847 48.8934C13.6102 48.9188 13.6404 48.939 13.6736 48.9528C13.7068 48.9666 13.7424 48.9736 13.7783 48.9736H15.2692C15.3051 48.9736 15.3407 48.9666 15.3739 48.9528C15.4071 48.939 15.4373 48.9188 15.4628 48.8934C15.4882 48.868 15.5083 48.8378 15.5221 48.8046C15.5359 48.7714 15.543 48.7358 15.543 48.6998V47.1786C15.5355 47.1114 15.5033 47.0493 15.4527 47.0044C15.4022 46.9594 15.3368 46.9348 15.2692 46.9352Z" fill="#181716"/>
<path d="M19.4373 46.9352H17.9464C17.8788 46.9348 17.8134 46.9594 17.7629 47.0044C17.7123 47.0493 17.6801 47.1114 17.6726 47.1786V48.6998C17.6726 48.7358 17.6797 48.7714 17.6935 48.8046C17.7073 48.8378 17.7274 48.868 17.7528 48.8934C17.7783 48.9188 17.8085 48.939 17.8417 48.9528C17.8749 48.9666 17.9105 48.9736 17.9464 48.9736H19.4373C19.4732 48.9736 19.5088 48.9666 19.542 48.9528C19.5752 48.939 19.6054 48.9188 19.6309 48.8934C19.6563 48.868 19.6764 48.8378 19.6902 48.8046C19.704 48.7714 19.7111 48.7358 19.7111 48.6998V47.1786C19.7036 47.1114 19.6714 47.0493 19.6208 47.0044C19.5703 46.9594 19.5049 46.9348 19.4373 46.9352Z" fill="#181716"/>
<path d="M23.6054 46.9352H22.1146C22.047 46.9348 21.9815 46.9594 21.9309 47.0044C21.8804 47.0493 21.8482 47.1114 21.8407 47.1786V48.6998C21.8407 48.7358 21.8478 48.7714 21.8616 48.8046C21.8753 48.8378 21.8955 48.868 21.9209 48.8934C21.9463 48.9188 21.9766 48.939 22.0098 48.9528C22.043 48.9666 22.0786 48.9736 22.1146 48.9736H23.6054C23.6413 48.9736 23.6769 48.9666 23.7101 48.9528C23.7433 48.939 23.7735 48.9188 23.799 48.8934C23.8244 48.868 23.8445 48.8378 23.8583 48.8046C23.872 48.7714 23.8792 48.7358 23.8792 48.6998V47.1786C23.8717 47.1114 23.8395 47.0493 23.7889 47.0044C23.7384 46.9594 23.673 46.9348 23.6054 46.9352Z" fill="#181716"/>
<path d="M28.0472 47.1786C28.0397 47.1114 28.0076 47.0493 27.957 47.0044C27.9065 46.9594 27.841 46.9348 27.7734 46.9352H26.2521C26.1899 46.9418 26.1317 46.9696 26.0874 47.0139C26.0431 47.0582 26.0154 47.1163 26.0088 47.1786V48.6998C26.0084 48.7675 26.0329 48.8329 26.0779 48.8834C26.1228 48.934 26.1849 48.9661 26.2521 48.9736H27.2866L28.0472 47.209V47.1786Z" fill="#181716"/>
<path d="M36.3835 48.6998V48.9736C36.4092 48.905 36.4092 48.8293 36.3835 48.7606" fill="#181716"/>
<path d="M38.7565 16.1457H40.2777C40.3449 16.1382 40.407 16.106 40.452 16.0555C40.4969 16.0049 40.5216 15.9395 40.5211 15.8719V14.3506C40.5145 14.2884 40.4868 14.2302 40.4425 14.1859C40.3982 14.1416 40.34 14.1139 40.2777 14.1072H38.7565C38.6888 14.1068 38.6235 14.1315 38.5729 14.1764C38.5224 14.2214 38.4902 14.2834 38.4827 14.3506V15.8719C38.4827 15.9445 38.5115 16.0141 38.5629 16.0655C38.6142 16.1168 38.6839 16.1457 38.7565 16.1457Z" fill="#181716"/>
<path d="M40.2777 18.1841H38.7565C38.6839 18.1841 38.6142 18.213 38.5629 18.2643C38.5115 18.3157 38.4827 18.3853 38.4827 18.458V19.9488C38.4827 20.0214 38.5115 20.091 38.5629 20.1424C38.6142 20.1937 38.6839 20.2226 38.7565 20.2226H39.4563L40.3386 18.2146" fill="#181716"/>
<path d="M40.2778 40.6373C40.3125 40.6376 40.3469 40.6304 40.3786 40.6164C40.4103 40.6023 40.4386 40.5816 40.4616 40.5556C40.4847 40.5297 40.5019 40.4991 40.5122 40.466C40.5225 40.4329 40.5256 40.3979 40.5212 40.3635V38.8727L39.7606 40.6677L40.2778 40.6373Z" fill="#181716"/>
<path d="M38.4222 44.5316C38.4222 44.6043 38.4511 44.6739 38.5025 44.7253C38.5538 44.7766 38.6234 44.8055 38.696 44.8055H40.2173C40.252 44.8057 40.2863 44.7986 40.318 44.7845C40.3497 44.7704 40.3781 44.7497 40.4011 44.7238C40.4242 44.6979 40.4414 44.6673 40.4517 44.6342C40.462 44.601 40.4651 44.5661 40.4607 44.5316V43.1625C40.4651 43.1281 40.462 43.0932 40.4517 43.06C40.4414 43.0269 40.4242 42.9964 40.4011 42.9704C40.3781 42.9445 40.3497 42.9238 40.318 42.9097C40.2863 42.8956 40.252 42.8885 40.2173 42.8887H38.7873L38.4222 43.7406V44.5316Z" fill="#181716"/>
<path d="M40.2777 46.9352H38.7565C38.6888 46.9348 38.6235 46.9594 38.5729 47.0044C38.5224 47.0493 38.4902 47.1114 38.4827 47.1786V48.6998C38.4827 48.7358 38.4898 48.7714 38.5036 48.8046C38.5173 48.8378 38.5375 48.868 38.5629 48.8934C38.5883 48.9188 38.6185 48.939 38.6517 48.9528C38.685 48.9666 38.7205 48.9736 38.7565 48.9736H40.2777C40.3124 48.9739 40.3468 48.9667 40.3785 48.9527C40.4102 48.9386 40.4385 48.9179 40.4615 48.8919C40.4846 48.866 40.5019 48.8354 40.5121 48.8023C40.5224 48.7692 40.5255 48.7342 40.5211 48.6998V47.1786C40.5211 47.114 40.4955 47.0521 40.4498 47.0065C40.4042 46.9608 40.3422 46.9352 40.2777 46.9352Z" fill="#181716"/>
<path d="M44.507 30.4147H44.1419L43.29 32.4836H44.507C44.5742 32.476 44.6363 32.4439 44.6813 32.3934C44.7262 32.3428 44.7508 32.2774 44.7503 32.2098V30.6885C44.7508 30.6209 44.7262 30.5555 44.6813 30.5049C44.6363 30.4544 44.5742 30.4222 44.507 30.4147Z" fill="#181716"/>
<path d="M44.5068 34.522H42.9856C42.918 34.5216 42.8525 34.5462 42.8019 34.5912C42.7514 34.6361 42.7193 34.6982 42.7118 34.7654V36.2866C42.7118 36.3592 42.7407 36.4289 42.792 36.4803C42.8434 36.5316 42.913 36.5605 42.9856 36.5605H44.5068C44.574 36.5529 44.6362 36.5208 44.6811 36.4702C44.726 36.4197 44.7506 36.3543 44.7502 36.2866V34.7654C44.7436 34.7031 44.7158 34.645 44.6715 34.6007C44.6272 34.5564 44.5691 34.5286 44.5068 34.522Z" fill="#181716"/>
<path d="M44.5068 38.5989H42.9856C42.913 38.5989 42.8434 38.6277 42.792 38.6791C42.7407 38.7304 42.7118 38.8001 42.7118 38.8727V40.3635C42.7118 40.4361 42.7407 40.5058 42.792 40.5571C42.8434 40.6085 42.913 40.6373 42.9856 40.6373H44.5068C44.574 40.6298 44.6362 40.5977 44.6811 40.5471C44.726 40.4966 44.7506 40.4312 44.7502 40.3635V38.8727C44.7506 38.8051 44.726 38.7397 44.6811 38.6891C44.6362 38.6385 44.574 38.6064 44.5068 38.5989Z" fill="#181716"/>
<path d="M44.5068 42.767H42.9856C42.913 42.767 42.8434 42.7959 42.792 42.8472C42.7407 42.8986 42.7118 42.9682 42.7118 43.0408V44.5316C42.7118 44.6042 42.7407 44.6739 42.792 44.7253C42.8434 44.7766 42.913 44.8055 42.9856 44.8055H44.5068C44.574 44.7979 44.6362 44.7658 44.6811 44.7153C44.726 44.6647 44.7506 44.5993 44.7502 44.5316V43.1625C44.7506 43.0949 44.726 43.0295 44.6811 42.9789C44.6362 42.9284 44.574 42.8962 44.5068 42.8887" fill="#181716"/>
<path d="M44.5068 46.9352H42.9856C42.918 46.9348 42.8525 46.9594 42.8019 47.0044C42.7514 47.0493 42.7193 47.1114 42.7118 47.1786V48.6998C42.7118 48.7358 42.7188 48.7714 42.7326 48.8046C42.7464 48.8378 42.7666 48.868 42.792 48.8934C42.8174 48.9188 42.8476 48.939 42.8808 48.9528C42.914 48.9666 42.9496 48.9736 42.9856 48.9736H44.5068C44.574 48.9661 44.6362 48.934 44.6811 48.8834C44.726 48.8329 44.7506 48.7675 44.7502 48.6998V47.1786C44.7436 47.1163 44.7158 47.0582 44.6715 47.0139C44.6272 46.9696 44.5691 46.9418 44.5068 46.9352Z" fill="#181716"/>
<path d="M48.5837 20.2226C48.6563 20.2226 48.7259 20.1937 48.7772 20.1424C48.8286 20.091 48.8575 20.0214 48.8575 19.9488V19.1273L48.4011 20.2226H48.5837Z" fill="#181716"/>
<path d="M46.8191 24.0256C46.8191 24.0983 46.8479 24.1679 46.8992 24.2192C46.9506 24.2706 47.0203 24.2995 47.0929 24.2995H48.5837C48.6563 24.2995 48.7259 24.2706 48.7773 24.2192C48.8286 24.1679 48.8575 24.0983 48.8575 24.0256V22.5348C48.8575 22.4622 48.8286 22.3926 48.7773 22.3412C48.7259 22.2899 48.6563 22.261 48.5837 22.261H47.5492L46.8191 23.9344V24.0256Z" fill="#181716"/>
<path d="M48.5837 26.3379H47.0929C47.0203 26.3379 46.9506 26.3667 46.8992 26.4181C46.8479 26.4694 46.8191 26.5391 46.8191 26.6117V28.1025C46.8191 28.1751 46.8479 28.2448 46.8992 28.2961C46.9506 28.3475 47.0203 28.3763 47.0929 28.3763H48.5837C48.6563 28.3763 48.7259 28.3475 48.7773 28.2961C48.8286 28.2448 48.8575 28.1751 48.8575 28.1025V26.6117C48.8575 26.5391 48.8286 26.4694 48.7773 26.4181C48.7259 26.3667 48.6563 26.3379 48.5837 26.3379Z" fill="#181716"/>
<path d="M48.5837 30.4147H47.0929C47.0203 30.4147 46.9506 30.4435 46.8992 30.4949C46.8479 30.5463 46.8191 30.6159 46.8191 30.6885V32.2098C46.8191 32.2824 46.8479 32.352 46.8992 32.4034C46.9506 32.4547 47.0203 32.4836 47.0929 32.4836H48.5837C48.6563 32.4836 48.7259 32.4547 48.7773 32.4034C48.8286 32.352 48.8575 32.2824 48.8575 32.2098V30.6885C48.8575 30.6159 48.8286 30.5463 48.7773 30.4949C48.7259 30.4435 48.6563 30.4147 48.5837 30.4147Z" fill="#181716"/>
<path d="M48.5837 34.522H47.0929C47.0253 34.5216 46.9598 34.5462 46.9092 34.5912C46.8587 34.6361 46.8266 34.6982 46.8191 34.7654V36.2866C46.8191 36.3592 46.8479 36.4289 46.8992 36.4803C46.9506 36.5316 47.0203 36.5605 47.0929 36.5605H48.5837C48.6563 36.5605 48.7259 36.5316 48.7773 36.4803C48.8286 36.4289 48.8575 36.3592 48.8575 36.2866V34.7654C48.85 34.6982 48.8179 34.6361 48.7673 34.5912C48.7168 34.5462 48.6513 34.5216 48.5837 34.522Z" fill="#181716"/>
<path d="M48.5837 38.5989H47.0929C47.0203 38.5989 46.9506 38.6277 46.8992 38.6791C46.8479 38.7304 46.8191 38.8001 46.8191 38.8727V40.3635C46.8191 40.4361 46.8479 40.5058 46.8992 40.5571C46.9506 40.6085 47.0203 40.6373 47.0929 40.6373H48.5837C48.6563 40.6373 48.7259 40.6085 48.7773 40.5571C48.8286 40.5058 48.8575 40.4361 48.8575 40.3635V38.8727C48.8575 38.8001 48.8286 38.7304 48.7773 38.6791C48.7259 38.6277 48.6563 38.5989 48.5837 38.5989Z" fill="#181716"/>
<path d="M48.5837 42.767H47.0929C47.0203 42.767 46.9506 42.7959 46.8992 42.8472C46.8479 42.8986 46.8191 42.9682 46.8191 43.0408V44.5316C46.8191 44.6042 46.8479 44.6739 46.8992 44.7253C46.9506 44.7766 47.0203 44.8055 47.0929 44.8055H48.5837C48.6563 44.8055 48.7259 44.7766 48.7773 44.7253C48.8286 44.6739 48.8575 44.6042 48.8575 44.5316V43.1625C48.8575 43.0899 48.8286 43.0203 48.7773 42.9689C48.7259 42.9176 48.6563 42.8887 48.5837 42.8887" fill="#181716"/>
<path d="M48.5837 46.9352H47.0929C47.0253 46.9348 46.9598 46.9594 46.9092 47.0044C46.8587 47.0493 46.8266 47.1114 46.8191 47.1786V48.6998C46.8191 48.7724 46.8479 48.8421 46.8992 48.8934C46.9506 48.9448 47.0203 48.9736 47.0929 48.9736H48.5837C48.6563 48.9736 48.7259 48.9448 48.7773 48.8934C48.8286 48.8421 48.8575 48.7724 48.8575 48.6998V47.1786C48.85 47.1114 48.8179 47.0493 48.7673 47.0044C48.7168 46.9594 48.6513 46.9348 48.5837 46.9352Z" fill="#181716"/>
<path d="M50.9875 14.3506V15.8719C50.9875 15.9445 51.0164 16.0141 51.0678 16.0655C51.1191 16.1168 51.1887 16.1457 51.2614 16.1457H52.7521C52.8247 16.1457 52.8945 16.1168 52.9458 16.0655C52.9972 16.0141 53.0259 15.9445 53.0259 15.8719V14.3506C53.0184 14.2834 52.9863 14.2214 52.9358 14.1764C52.8852 14.1315 52.8198 14.1068 52.7521 14.1072H51.2614C51.1937 14.1068 51.1283 14.1315 51.0777 14.1764C51.0271 14.2214 50.9951 14.2834 50.9875 14.3506Z" fill="#181716"/>
<path d="M53.0259 18.458C53.0259 18.3853 52.9972 18.3157 52.9458 18.2643C52.8945 18.213 52.8247 18.1841 52.7521 18.1841H51.2614C51.1887 18.1841 51.1191 18.213 51.0678 18.2643C51.0164 18.3157 50.9875 18.3853 50.9875 18.458V19.9488C50.9875 20.0214 51.0164 20.091 51.0678 20.1424C51.1191 20.1937 51.1887 20.2226 51.2614 20.2226H52.4783L53.0259 18.8839V18.458Z" fill="#181716"/>
<path d="M51.2614 22.261C51.1887 22.261 51.1191 22.2899 51.0678 22.3412C51.0164 22.3926 50.9875 22.4622 50.9875 22.5348V23.7214L51.596 22.261H51.2614Z" fill="#181716"/>
<path d="M52.7521 30.4147H51.2614C51.1887 30.4147 51.1191 30.4435 51.0678 30.4949C51.0164 30.5463 50.9875 30.6159 50.9875 30.6885V32.2098C50.9875 32.2824 51.0164 32.352 51.0678 32.4034C51.1191 32.4547 51.1887 32.4836 51.2614 32.4836H52.7521C52.8247 32.4836 52.8945 32.4547 52.9458 32.4034C52.9972 32.352 53.0259 32.2824 53.0259 32.2098V30.6885C53.0259 30.6159 52.9972 30.5463 52.9458 30.4949C52.8945 30.4435 52.8247 30.4147 52.7521 30.4147Z" fill="#181716"/>
<path d="M52.7521 34.522H51.2614C51.1937 34.5216 51.1283 34.5462 51.0777 34.5912C51.0271 34.6361 50.9951 34.6982 50.9875 34.7654V36.2866C50.9875 36.3592 51.0164 36.4289 51.0678 36.4803C51.1191 36.5316 51.1887 36.5605 51.2614 36.5605H52.7521C52.8247 36.5605 52.8945 36.5316 52.9458 36.4803C52.9972 36.4289 53.0259 36.3592 53.0259 36.2866V34.7654C53.0184 34.6982 52.9863 34.6361 52.9358 34.5912C52.8852 34.5462 52.8198 34.5216 52.7521 34.522Z" fill="#181716"/>
<path d="M52.7521 38.5989H51.2614C51.1887 38.5989 51.1191 38.6277 51.0678 38.6791C51.0164 38.7304 50.9875 38.8001 50.9875 38.8727V40.3635C50.9875 40.4361 51.0164 40.5058 51.0678 40.5571C51.1191 40.6085 51.1887 40.6373 51.2614 40.6373H52.7521C52.8247 40.6373 52.8945 40.6085 52.9458 40.5571C52.9972 40.5058 53.0259 40.4361 53.0259 40.3635V38.8727C53.0259 38.8001 52.9972 38.7304 52.9458 38.6791C52.8945 38.6277 52.8247 38.5989 52.7521 38.5989Z" fill="#181716"/>
<path d="M52.7521 42.767H51.2614C51.1887 42.767 51.1191 42.7959 51.0678 42.8472C51.0164 42.8986 50.9875 42.9682 50.9875 43.0408V44.5316C50.9875 44.6042 51.0164 44.6739 51.0678 44.7253C51.1191 44.7766 51.1887 44.8055 51.2614 44.8055H52.7521C52.8247 44.8055 52.8945 44.7766 52.9458 44.7253C52.9972 44.6739 53.0259 44.6042 53.0259 44.5316V43.1625C53.0259 43.0899 52.9972 43.0203 52.9458 42.9689C52.8945 42.9176 52.8247 42.8887 52.7521 42.8887" fill="#181716"/>
<path d="M52.7521 46.9352H51.2614C51.1937 46.9348 51.1283 46.9594 51.0777 47.0044C51.0271 47.0493 50.9951 47.1114 50.9875 47.1786V48.6998C50.9875 48.7358 50.9946 48.7714 51.0083 48.8046C51.0221 48.8378 51.0423 48.868 51.0678 48.8934C51.0932 48.9188 51.1233 48.939 51.1565 48.9528C51.1898 48.9666 51.2254 48.9736 51.2614 48.9736H52.7521C52.7881 48.9736 52.8237 48.9666 52.8569 48.9528C52.8902 48.939 52.9204 48.9188 52.9458 48.8934C52.9712 48.868 52.9914 48.8378 53.0051 48.8046C53.0189 48.7714 53.0259 48.7358 53.0259 48.6998V47.1786C53.0184 47.1114 52.9863 47.0493 52.9358 47.0044C52.8852 46.9594 52.8198 46.9348 52.7521 46.9352Z" fill="#181716"/>
<path d="M56.9198 20.2226C56.9924 20.2226 57.0621 20.1937 57.1135 20.1424C57.1648 20.091 57.1937 20.0214 57.1937 19.9488V18.4579L56.4331 20.2226H56.9198Z" fill="#181716"/>
<path d="M55.1555 24.0256C55.1555 24.0983 55.1844 24.1679 55.2357 24.2192C55.2871 24.2706 55.3567 24.2995 55.4293 24.2995H56.9201C56.9927 24.2995 57.0624 24.2706 57.1138 24.2192C57.1651 24.1679 57.194 24.0983 57.194 24.0256V22.5348C57.194 22.4622 57.1651 22.3926 57.1138 22.3412C57.0624 22.2899 56.9927 22.261 56.9201 22.261H55.5815L55.1555 23.265V24.0256Z" fill="#181716"/>
<path d="M56.9201 26.3379H55.4293C55.3567 26.3379 55.2871 26.3667 55.2357 26.4181C55.1844 26.4694 55.1555 26.5391 55.1555 26.6117V28.1025C55.1555 28.1385 55.1626 28.1741 55.1763 28.2073C55.1901 28.2405 55.2103 28.2707 55.2357 28.2961C55.2612 28.3215 55.2914 28.3417 55.3246 28.3555C55.3578 28.3692 55.3934 28.3763 55.4293 28.3763H56.9201C56.956 28.3763 56.9917 28.3692 57.0249 28.3555C57.0581 28.3417 57.0883 28.3215 57.1138 28.2961C57.1392 28.2707 57.1593 28.2405 57.1731 28.2073C57.1869 28.1741 57.194 28.1385 57.194 28.1025V26.6117C57.194 26.5391 57.1651 26.4694 57.1138 26.4181C57.0624 26.3667 56.9927 26.3379 56.9201 26.3379Z" fill="#181716"/>
<path d="M56.9201 30.4147H55.4293C55.3567 30.4147 55.2871 30.4435 55.2357 30.4949C55.1844 30.5463 55.1555 30.6159 55.1555 30.6885V32.2098C55.1555 32.2824 55.1844 32.352 55.2357 32.4034C55.2871 32.4547 55.3567 32.4836 55.4293 32.4836H56.9201C56.9927 32.4836 57.0624 32.4547 57.1138 32.4034C57.1651 32.352 57.194 32.2824 57.194 32.2098V30.6885C57.194 30.6159 57.1651 30.5463 57.1138 30.4949C57.0624 30.4435 56.9927 30.4147 56.9201 30.4147Z" fill="#181716"/>
<path d="M56.9201 34.522H55.4293C55.3617 34.5216 55.2963 34.5462 55.2458 34.5912C55.1952 34.6361 55.163 34.6982 55.1555 34.7654V36.2866C55.1555 36.3592 55.1844 36.4289 55.2357 36.4803C55.2871 36.5316 55.3567 36.5605 55.4293 36.5605H56.9201C56.9927 36.5605 57.0624 36.5316 57.1138 36.4803C57.1651 36.4289 57.194 36.3592 57.194 36.2866V34.7654C57.1865 34.6982 57.1543 34.6361 57.1037 34.5912C57.0532 34.5462 56.9877 34.5216 56.9201 34.522Z" fill="#181716"/>
<path d="M56.9201 38.5989H55.4293C55.3567 38.5989 55.2871 38.6277 55.2357 38.6791C55.1844 38.7304 55.1555 38.8001 55.1555 38.8727V40.3635C55.1555 40.4361 55.1844 40.5058 55.2357 40.5571C55.2871 40.6085 55.3567 40.6373 55.4293 40.6373H56.9201C56.9927 40.6373 57.0624 40.6085 57.1138 40.5571C57.1651 40.5058 57.194 40.4361 57.194 40.3635V38.8727C57.194 38.8001 57.1651 38.7304 57.1138 38.6791C57.0624 38.6277 56.9927 38.5989 56.9201 38.5989Z" fill="#181716"/>
<path d="M56.9201 42.767H55.4293C55.3567 42.767 55.2871 42.7959 55.2357 42.8472C55.1844 42.8986 55.1555 42.9682 55.1555 43.0408V44.5316C55.1555 44.6042 55.1844 44.6739 55.2357 44.7253C55.2871 44.7766 55.3567 44.8055 55.4293 44.8055H56.9201C56.9927 44.8055 57.0624 44.7766 57.1138 44.7253C57.1651 44.6739 57.194 44.6042 57.194 44.5316V43.1625C57.194 43.0899 57.1651 43.0203 57.1138 42.9689C57.0624 42.9176 56.9927 42.8887 56.9201 42.8887" fill="#181716"/>
<path d="M56.9201 46.9352H55.4293C55.3617 46.9348 55.2963 46.9594 55.2458 47.0044C55.1952 47.0493 55.163 47.1114 55.1555 47.1786V48.6998C55.1555 48.7358 55.1626 48.7714 55.1763 48.8046C55.1901 48.8378 55.2103 48.868 55.2357 48.8934C55.2612 48.9188 55.2914 48.939 55.3246 48.9528C55.3578 48.9666 55.3934 48.9736 55.4293 48.9736H56.9201C56.956 48.9736 56.9917 48.9666 57.0249 48.9528C57.0581 48.939 57.0883 48.9188 57.1138 48.8934C57.1392 48.868 57.1593 48.8378 57.1731 48.8046C57.1869 48.7714 57.194 48.7358 57.194 48.6998V47.1786C57.1865 47.1114 57.1543 47.0493 57.1037 47.0044C57.0532 46.9594 56.9877 46.9348 56.9201 46.9352Z" fill="#181716"/>
<path d="M61.088 18.1841H59.7189C59.6463 18.1841 59.5766 18.213 59.5253 18.2643C59.4739 18.3157 59.4451 18.3853 59.4451 18.458V19.9488C59.4451 20.0214 59.4739 20.091 59.5253 20.1424C59.5766 20.1937 59.6463 20.2226 59.7189 20.2226H61.2096C61.2823 20.2226 61.352 20.1937 61.4033 20.1424C61.4547 20.091 61.4834 20.0214 61.4834 19.9488V18.458C61.4834 18.3853 61.4547 18.3157 61.4033 18.2643C61.352 18.213 61.2823 18.1841 61.2096 18.1841" fill="#181716"/>
<path d="M61.088 22.261H59.7189C59.6463 22.261 59.5766 22.2899 59.5253 22.3412C59.4739 22.3926 59.4451 22.4622 59.4451 22.5348V24.0256C59.4451 24.0983 59.4739 24.1679 59.5253 24.2192C59.5766 24.2706 59.6463 24.2995 59.7189 24.2995H61.2096C61.2823 24.2995 61.352 24.2706 61.4033 24.2192C61.4547 24.1679 61.4834 24.0983 61.4834 24.0256V22.5348C61.4834 22.4622 61.4547 22.3926 61.4033 22.3412C61.352 22.2899 61.2823 22.261 61.2096 22.261" fill="#181716"/>
<path d="M61.088 26.3379H59.7189C59.6463 26.3379 59.5766 26.3667 59.5253 26.4181C59.4739 26.4694 59.4451 26.5391 59.4451 26.6117V28.1025C59.4451 28.1385 59.4521 28.1741 59.4659 28.2073C59.4796 28.2405 59.4999 28.2707 59.5253 28.2961C59.5507 28.3215 59.5808 28.3417 59.6141 28.3555C59.6473 28.3692 59.6829 28.3763 59.7189 28.3763H61.2096C61.2823 28.3763 61.352 28.3475 61.4033 28.2961C61.4547 28.2448 61.4834 28.1751 61.4834 28.1025V26.6117C61.4834 26.5391 61.4547 26.4694 61.4033 26.4181C61.352 26.3667 61.2823 26.3379 61.2096 26.3379" fill="#181716"/>
<path d="M61.088 30.4147H59.7189C59.6463 30.4147 59.5766 30.4435 59.5253 30.4949C59.4739 30.5463 59.4451 30.6159 59.4451 30.6885V32.2098C59.4451 32.2824 59.4739 32.352 59.5253 32.4034C59.5766 32.4547 59.6463 32.4836 59.7189 32.4836H61.2096C61.2823 32.4836 61.352 32.4547 61.4033 32.4034C61.4547 32.352 61.4834 32.2824 61.4834 32.2098V30.6885C61.4834 30.6159 61.4547 30.5463 61.4033 30.4949C61.352 30.4435 61.2823 30.4147 61.2096 30.4147" fill="#181716"/>
<path d="M61.088 34.522H59.7189C59.6512 34.5216 59.5858 34.5462 59.5352 34.5912C59.4847 34.6361 59.4526 34.6982 59.4451 34.7654V36.2866C59.4451 36.3592 59.4739 36.4289 59.5253 36.4803C59.5766 36.5316 59.6463 36.5605 59.7189 36.5605H61.2096C61.2823 36.5605 61.352 36.5316 61.4033 36.4803C61.4547 36.4289 61.4834 36.3592 61.4834 36.2866V34.7654C61.4759 34.6982 61.4439 34.6361 61.3933 34.5912C61.3427 34.5462 61.2773 34.5216 61.2096 34.522" fill="#181716"/>
<path d="M61.088 38.5989H59.7189C59.6463 38.5989 59.5766 38.6277 59.5253 38.6791C59.4739 38.7304 59.4451 38.8001 59.4451 38.8727V40.3635C59.4451 40.4361 59.4739 40.5058 59.5253 40.5571C59.5766 40.6085 59.6463 40.6373 59.7189 40.6373H61.2096C61.2823 40.6373 61.352 40.6085 61.4033 40.5571C61.4547 40.5058 61.4834 40.4361 61.4834 40.3635V38.8727C61.4834 38.8001 61.4547 38.7304 61.4033 38.6791C61.352 38.6277 61.2823 38.5989 61.2096 38.5989" fill="#181716"/>
<path d="M61.088 42.767H59.7189C59.6463 42.767 59.5766 42.7959 59.5253 42.8472C59.4739 42.8986 59.4451 42.9682 59.4451 43.0408V44.5316C59.4451 44.6042 59.4739 44.6739 59.5253 44.7253C59.5766 44.7766 59.6463 44.8055 59.7189 44.8055H61.2096C61.2823 44.8055 61.352 44.7766 61.4033 44.7253C61.4547 44.6739 61.4834 44.6042 61.4834 44.5316V43.1625C61.4834 43.0899 61.4547 43.0203 61.4033 42.9689C61.352 42.9176 61.2823 42.8887 61.2096 42.8887" fill="#181716"/>
</svg>
