<svg width="66" height="66" viewBox="0 0 66 66" fill="none" xmlns="http://www.w3.org/2000/svg">
<path d="M52.4016 22.0152H13.1238C11.6917 21.9383 10.259 22.1539 8.91308 22.6489C7.56712 23.1439 6.33614 23.908 5.29522 24.8945C4.25429 25.881 3.42525 27.0692 2.8587 28.3866C2.29216 29.7041 2 31.1231 2 32.5572C2 33.9914 2.29216 35.4105 2.8587 36.7279C3.42525 38.0454 4.25429 39.2336 5.29522 40.2201C6.33614 41.2066 7.56712 41.9706 8.91308 42.4656C10.259 42.9607 11.6917 43.1763 13.1238 43.0993H52.4016C53.8337 43.1763 55.2664 42.9607 56.6124 42.4656C57.9583 41.9706 59.1893 41.2066 60.2302 40.2201C61.2711 39.2336 62.1002 38.0454 62.6667 36.7279C63.2333 35.4105 63.5255 33.9914 63.5255 32.5572C63.5255 31.1231 63.2333 29.7041 62.6667 28.3866C62.1002 27.0692 61.2711 25.881 60.2302 24.8945C59.1893 23.908 57.9583 23.1439 56.6124 22.6489C55.2664 22.1539 53.8337 21.9383 52.4016 22.0152Z" stroke="#181716" stroke-width="1.82546" stroke-miterlimit="10"/>
<path d="M52.4018 26.8831H52.2192V28.1001H46.682V26.8831H41.1752V28.1001H35.638V26.8831H30.0094V28.1001H24.4722V26.8831H18.9654V28.1001H13.4282V26.8831H13.1239C11.6203 26.8831 10.1778 27.4784 9.11168 28.5388C8.04559 29.5991 7.44261 31.0384 7.43457 32.5421C7.43457 34.051 8.03399 35.4981 9.10096 36.565C10.1679 37.632 11.615 38.2314 13.1239 38.2314H13.4282V37.0145H18.9654V38.2314H24.4722V37.0145H30.0094V38.2314H35.5162V37.0145H41.0535V38.2314H46.5604V37.0145H52.2192V38.2314H52.5235C54.0324 38.2314 55.4795 37.632 56.5465 36.565C57.6135 35.4981 58.2128 34.051 58.2128 32.5421C58.2129 31.7964 58.0654 31.058 57.7792 30.3694C57.4929 29.6809 57.0734 29.0557 56.5447 28.5298C56.0159 28.0039 55.3885 27.5877 54.6984 27.3051C54.0083 27.0225 53.2692 26.8791 52.5235 26.8831" fill="#181716"/>
</svg>
