<svg width="67" height="66" viewBox="0 0 67 66" fill="none" xmlns="http://www.w3.org/2000/svg">
<path d="M52.937 13.6078C55.7978 13.6149 58.5393 14.7239 60.5622 16.6924C62.585 18.6608 63.7247 21.3285 63.732 24.1123V41.6645C63.732 44.453 62.5955 47.1276 60.5719 49.1018C58.5482 51.076 55.8026 52.1887 52.937 52.1958H13.4197C10.5807 52.1535 7.87308 51.0245 5.88346 49.0533C3.89384 47.0821 2.78242 44.4275 2.78999 41.6645V24.1123C2.78999 21.331 3.92354 18.6632 5.94203 16.694C7.96053 14.7248 10.6992 13.6149 13.5574 13.6078H52.937ZM52.937 12H13.4197C11.7864 12 10.1692 12.3135 8.66056 12.9225C7.15193 13.5316 5.78154 14.4242 4.6279 15.5493C3.47427 16.6743 2.56002 18.0098 1.93749 19.4792C1.31497 20.9485 0.996409 22.523 1.00003 24.1123V41.6645C0.996409 43.2539 1.31497 44.8283 1.93749 46.2977C2.56002 47.7671 3.47427 49.1025 4.6279 50.2276C5.78154 51.3527 7.15193 52.2453 8.66056 52.8543C10.1692 53.4634 11.7864 53.7768 13.4197 53.7768H52.937C54.5716 53.7768 56.1902 53.4636 57.7004 52.8549C59.2105 52.2461 60.5827 51.354 61.7386 50.2292C62.8944 49.1045 63.8112 47.7692 64.4368 46.2997C65.0623 44.8302 65.3842 43.2551 65.3842 41.6645V24.1123C65.3842 22.5217 65.0623 20.9467 64.4368 19.4771C63.8112 18.0076 62.8944 16.6724 61.7386 15.5476C60.5827 14.4229 59.2105 13.5307 57.7004 12.922C56.1902 12.3133 54.5716 12 52.937 12Z" fill="#181716"/>
<mask id="mask0_283_4152" style="mask-type:luminance" maskUnits="userSpaceOnUse" x="6" y="17" width="26" height="32">
<path d="M12.6211 17.5202C11.8123 17.5167 11.0108 17.6686 10.2625 17.9674C9.5143 18.2661 8.83405 18.7057 8.26088 19.261C7.68772 19.8162 7.23293 20.4762 6.92259 21.203C6.61226 21.9297 6.45251 22.709 6.45251 23.496V42.254C6.45251 43.0423 6.61205 43.8228 6.92205 44.5511C7.23204 45.2794 7.68644 45.9411 8.25925 46.4985C8.83205 47.0559 9.51204 47.498 10.2604 47.7997C11.0088 48.1013 11.811 48.2566 12.6211 48.2566H17.4127C19.3004 48.2566 21.1697 47.8948 22.9137 47.1918C24.6578 46.4889 26.2425 45.4585 27.5773 44.1596C28.9121 42.8607 29.971 41.3186 30.6934 39.6215C31.4158 37.9244 31.7876 36.1054 31.7876 34.2685V31.5887C31.7803 27.8835 30.2626 24.3324 27.5676 21.715C24.8726 19.0975 21.2204 17.6274 17.4127 17.6274L12.6211 17.5202Z" fill="white"/>
</mask>
<g mask="url(#mask0_283_4152)">
<path d="M25.2886 17.5202L31.7876 23.8443" stroke="#181716" stroke-width="1.82546" stroke-miterlimit="10" stroke-linecap="round"/>
<path d="M16.5039 17.5202L31.7876 32.3927" stroke="#181716" stroke-width="1.82546" stroke-miterlimit="10" stroke-linecap="round"/>
<path d="M8.84827 18.5921L31.7876 40.941" stroke="#181716" stroke-width="1.82546" stroke-miterlimit="10" stroke-linecap="round"/>
<path d="M6.48022 24.8358L29.4195 47.1847" stroke="#181716" stroke-width="1.82546" stroke-miterlimit="10" stroke-linecap="round"/>
<path d="M6.48022 33.3841L21.7639 48.2566" stroke="#181716" stroke-width="1.82546" stroke-miterlimit="10" stroke-linecap="round"/>
<path d="M6.48022 41.9325L12.9792 48.2566" stroke="#181716" stroke-width="1.82546" stroke-miterlimit="10" stroke-linecap="round"/>
<path d="M12.979 17.5202L6.47998 23.8444" stroke="#181716" stroke-width="1.82546" stroke-miterlimit="10" stroke-linecap="round"/>
<path d="M21.7637 17.5202L6.47998 32.3927" stroke="#181716" stroke-width="1.82546" stroke-miterlimit="10" stroke-linecap="round"/>
<path d="M29.4195 18.5921L6.48022 40.941" stroke="#181716" stroke-width="1.82546" stroke-miterlimit="10" stroke-linecap="round"/>
<path d="M31.7876 24.8358L8.84827 47.1847" stroke="#181716" stroke-width="1.82546" stroke-miterlimit="10" stroke-linecap="round"/>
<path d="M31.7876 33.3841L16.5039 48.2566" stroke="#181716" stroke-width="1.82546" stroke-miterlimit="10" stroke-linecap="round"/>
<path d="M31.7876 41.9325L25.2886 48.2566" stroke="#181716" stroke-width="1.82546" stroke-miterlimit="10" stroke-linecap="round"/>
</g>
<mask id="mask1_283_4152" style="mask-type:luminance" maskUnits="userSpaceOnUse" x="34" y="17" width="26" height="32">
<path d="M48.9714 17.5202C45.1637 17.5202 41.5115 18.9903 38.8165 21.6078C36.1214 24.2253 34.6037 27.7763 34.5964 31.4816V34.1613C34.5964 37.8712 36.1109 41.4291 38.8067 44.0524C41.5026 46.6757 45.1589 48.1494 48.9714 48.1494H53.763C55.3968 48.1424 56.9616 47.5077 58.1168 46.3835C59.2721 45.2593 59.9243 43.7367 59.9315 42.1469V23.3888C59.9243 21.8015 59.2711 20.2816 58.1151 19.1617C56.9591 18.0417 55.3942 17.413 53.763 17.413L48.9714 17.5202Z" fill="white"/>
</mask>
<g mask="url(#mask1_283_4152)">
<path d="M53.4326 17.5203L59.9316 23.8444" stroke="#181716" stroke-width="1.82546" stroke-miterlimit="10" stroke-linecap="round"/>
<path d="M44.6479 17.5203L59.9316 32.3927" stroke="#181716" stroke-width="1.82546" stroke-miterlimit="10" stroke-linecap="round"/>
<path d="M36.9647 18.5921L59.9316 40.941" stroke="#181716" stroke-width="1.82546" stroke-miterlimit="10" stroke-linecap="round"/>
<path d="M34.5967 24.8359L57.5635 47.1847" stroke="#181716" stroke-width="1.82546" stroke-miterlimit="10" stroke-linecap="round"/>
<path d="M34.5967 33.3842L49.9079 48.2566" stroke="#181716" stroke-width="1.82546" stroke-miterlimit="10" stroke-linecap="round"/>
<path d="M34.5967 41.9325L41.1232 48.2566" stroke="#181716" stroke-width="1.82546" stroke-miterlimit="10" stroke-linecap="round"/>
<path d="M41.1231 17.5203L34.5966 23.8444" stroke="#181716" stroke-width="1.82546" stroke-miterlimit="10" stroke-linecap="round"/>
<path d="M49.9078 17.5203L34.5966 32.3927" stroke="#181716" stroke-width="1.82546" stroke-miterlimit="10" stroke-linecap="round"/>
<path d="M57.5635 18.5921L34.5967 40.941" stroke="#181716" stroke-width="1.82546" stroke-miterlimit="10" stroke-linecap="round"/>
<path d="M59.9316 24.8359L36.9647 47.1847" stroke="#181716" stroke-width="1.82546" stroke-miterlimit="10" stroke-linecap="round"/>
<path d="M59.9316 33.3842L44.6479 48.2566" stroke="#181716" stroke-width="1.82546" stroke-miterlimit="10" stroke-linecap="round"/>
<path d="M59.9316 41.9325L53.4326 48.2566" stroke="#181716" stroke-width="1.82546" stroke-miterlimit="10" stroke-linecap="round"/>
</g>
</svg>
